<svg width="223" height="236" viewBox="0 0 223 236" fill="none" xmlns="http://www.w3.org/2000/svg">
<path d="M127.431 6.25701C131.379 9.10313 133.783 12.8011 134.614 17.6216C134.833 19.3456 134.827 21.0717 134.818 22.8068C134.818 23.0079 134.818 23.209 134.817 23.4162C134.784 32.4162 133.575 41.3704 131.871 50.1945C131.829 50.4127 131.786 50.6309 131.743 50.8557C130.771 55.8555 129.568 60.7923 128.332 65.7322C127.829 67.7451 127.328 69.7586 126.831 71.7734C126.779 71.9878 126.726 72.2022 126.671 72.4231C124.671 79.9559 124.671 79.9559 123.914 87.6608C123.915 87.9765 123.915 87.9765 123.916 88.2985C123.919 88.5097 123.921 88.7208 123.924 88.9384C123.926 89.2683 123.926 89.2683 123.927 89.6049C123.931 90.1398 123.936 90.6747 123.941 91.2096C126.989 90.7626 129.307 88.2717 131.445 86.2293C131.936 85.7728 132.442 85.3361 132.95 84.8988C134.09 83.9034 135.171 82.8605 136.239 81.7887C136.426 81.6015 136.614 81.4144 136.807 81.2216C137.2 80.829 137.592 80.4361 137.984 80.0428C138.579 79.4469 139.175 78.8525 139.771 78.2582C140.155 77.8737 140.539 77.489 140.923 77.1043C141.186 76.8425 141.186 76.8425 141.454 76.5753C142.312 75.7128 143.139 74.8362 143.933 73.9148C145.022 72.6562 146.184 71.4809 147.362 70.3062C147.587 70.0809 147.812 69.8557 148.044 69.6236C148.517 69.1507 148.99 68.6781 149.463 68.2058C150.183 67.488 150.9 66.7687 151.618 66.0493C152.08 65.5873 152.542 65.1254 153.005 64.6636C153.217 64.4512 153.428 64.2388 153.647 64.02C154.801 62.8708 155.979 61.7685 157.218 60.7112C157.741 60.2506 158.232 59.7682 158.719 59.2706C159.556 58.421 160.431 57.6372 161.334 56.8596C161.966 56.3057 162.584 55.7385 163.199 55.1671C164.646 53.8261 166.118 52.5376 167.657 51.3024C168.291 50.7916 168.917 50.2756 169.54 49.7521C175.289 44.9485 182.731 39.2235 190.658 39.8232C194.239 40.3812 197.02 41.7151 199.743 44.0818C200.049 44.3469 200.049 44.3469 200.361 44.6174C202.225 46.3551 203.571 48.3899 204.969 50.5001C205.814 51.7686 206.674 53.0258 207.533 54.2845C207.713 54.5494 207.893 54.8143 208.079 55.0873C209.219 56.759 210.373 58.4187 211.543 60.069C211.683 60.2668 211.822 60.4646 211.966 60.6684C212.524 61.4588 213.083 62.2467 213.656 63.0267C215.484 65.587 215.665 68.3389 215.226 71.4074C214.159 76.9638 211.709 82.1262 207.977 86.3833C207.795 86.6087 207.613 86.8341 207.426 87.0664C196.356 100.317 173.456 104.972 157.815 110.078C157.122 110.304 156.429 110.531 155.736 110.757C153.698 111.423 151.659 112.088 149.619 112.748C148.776 113.02 147.933 113.295 147.091 113.569C146.696 113.698 146.301 113.825 145.905 113.952C145.364 114.126 144.824 114.302 144.283 114.479C143.979 114.578 143.674 114.676 143.361 114.778C142.636 114.988 142.636 114.988 142.395 115.625C142.745 115.737 143.094 115.849 143.454 115.965C145.145 116.529 146.791 117.198 148.446 117.861C161.544 123.039 174.927 127.375 188.522 131.046C211.929 137.383 211.929 137.383 217.739 147.336C221.277 153.523 223.526 159.926 221.604 167.012C218.55 176.93 211.435 186.641 202.298 191.711C197.436 194.166 192.522 195.108 187.252 193.415C181.359 191.295 175.496 188.316 170.405 184.667C169.925 184.324 169.44 183.988 168.953 183.653C165.52 181.272 162.271 178.633 159.193 175.808C158.601 175.266 157.997 174.74 157.389 174.216C156.489 173.434 155.651 172.609 154.817 171.758C154.332 171.283 153.829 170.852 153.308 170.418C151.949 169.251 150.756 167.93 149.546 166.612C148.568 165.547 147.571 164.509 146.54 163.496C145.68 162.627 144.893 161.694 144.098 160.766C143.847 160.473 143.596 160.18 143.345 159.887C142.917 159.388 142.49 158.889 142.062 158.389C140.99 157.136 139.91 155.889 138.829 154.644C136.723 152.219 134.632 149.783 132.618 147.28C129.032 142.478 129.032 142.478 124.225 139.473C124.569 142.284 125.107 144.984 125.822 147.724C125.875 147.929 125.928 148.135 125.983 148.346C127.059 152.502 128.298 156.607 129.548 160.713C143.434 206.29 143.434 206.29 136.238 220.563C131.37 229.03 119.603 231.94 110.863 234.362C103.525 236.284 95.6829 234.825 89.1467 231.045C82.8514 227.056 79.368 221.029 77.6763 213.883C73.4572 194.323 82.6842 173.404 89.4635 155.433C90.7123 152.12 91.9404 148.801 93.1246 145.465C93.2846 145.015 93.4454 144.565 93.6071 144.115C94.4578 141.745 95.2234 139.428 95.5511 136.918C94.3321 137.569 93.4289 138.414 92.4814 139.402C91.5975 140.318 90.7084 141.201 89.7378 142.025C88.0335 143.498 86.463 145.112 84.8738 146.707C84.3205 147.261 83.7657 147.815 83.2108 148.368C80.8662 150.711 80.8662 150.711 78.6531 153.177C77.8925 154.066 77.0834 154.911 76.2812 155.762C75.2 156.91 74.1325 158.067 73.0862 159.248C71.6068 160.896 70.0501 162.462 68.4816 164.024C67.9935 164.511 67.507 164.999 67.0206 165.487C65.4116 167.097 63.788 168.662 62.0506 170.135C61.7221 170.424 61.3942 170.715 61.0669 171.006C58.6711 173.12 56.1936 175.093 53.6362 177.007C53.1396 177.384 52.6469 177.766 52.1566 178.151C49.7494 180.04 47.2503 181.758 44.697 183.442C44.2811 183.718 43.8652 183.993 43.4493 184.269C42.447 184.931 41.4432 185.592 40.4387 186.251C39.9585 186.567 39.479 186.883 38.9996 187.2C34.4612 190.195 30.5276 192.132 24.9658 191.143C21.0136 190.221 17.6779 188.095 14.6389 185.465C14.4664 185.317 14.294 185.168 14.1164 185.015C7.21584 178.989 1.6221 170.397 0.971338 161.039C0.625225 154.516 2.94923 149.384 7.2574 144.583C7.49015 144.317 7.72291 144.05 7.96272 143.775C13.3594 137.716 19.4901 132.977 26.8467 129.536C27.1555 129.391 27.1555 129.391 27.4706 129.243C37.2107 124.723 47.6395 122.127 58.0438 119.662C58.242 119.615 58.4402 119.568 58.6445 119.52C60.6472 119.045 62.6502 118.571 64.6551 118.106C69.8821 116.909 69.8821 116.909 74.991 115.296C75.6779 115.057 75.6779 115.057 76.2457 115.057C73.7142 109.852 59.5756 106.658 54.1797 104.783C48.4628 102.819 42.687 101.021 36.9288 99.1818C15.9999 92.4972 15.9999 92.4972 11.5159 87.8028C11.319 87.6081 11.1222 87.4134 10.9193 87.2128C6.33894 82.4379 4.62914 75.8 4.41837 69.3491C4.41064 69.1152 4.40291 68.8812 4.39494 68.6402C4.37247 67.8592 4.35859 67.0784 4.34739 66.2971C4.34129 66.0521 4.33518 65.807 4.32889 65.5545C4.31077 61.9747 5.63585 59.3778 8.05587 56.7975C8.44924 56.4005 8.84562 56.0065 9.24471 55.6153C9.45656 55.4061 9.66841 55.197 9.88668 54.9815C11.7407 53.177 13.6737 51.5509 15.7745 50.0437C15.9434 49.9205 16.1123 49.7973 16.2863 49.6704C22.5605 45.1314 30.075 42.7467 37.8401 43.6348C44.7394 44.926 50.3928 49.5331 55.8047 53.7345C55.9792 53.8695 56.1537 54.0045 56.3335 54.1437C59.3533 56.4856 62.3107 58.8997 65.2208 61.3767C66.181 62.1925 67.1537 62.9893 68.1368 63.7775C69.5603 64.9347 70.9028 66.1661 72.2366 67.4243C73.0803 68.2196 73.9334 68.9988 74.8085 69.7594C75.9559 70.7574 77.0717 71.7856 78.1798 72.8269C78.3755 73.0103 78.5712 73.1937 78.7728 73.3827C80.2204 74.7455 81.6319 76.1385 83.0206 77.5612C83.6324 78.1908 83.6324 78.1908 84.4789 78.7179C84.4789 78.9053 84.4789 79.0926 84.4789 79.2857C84.7299 79.3982 84.7299 79.3982 84.9859 79.5129C85.6385 79.8665 86.0657 80.2355 86.5871 80.7607C86.7666 80.9407 86.9461 81.1208 87.1311 81.3063C87.3157 81.4944 87.5003 81.6825 87.6906 81.8763C87.8719 82.0578 88.0532 82.2393 88.2401 82.4264C89.1288 83.3232 89.9875 84.2334 90.809 85.1922C92.1168 86.7057 93.5456 88.0991 94.9656 89.5062C95.2438 89.783 95.522 90.0599 95.8001 90.3368C96.4735 91.0069 97.1476 91.6764 97.8223 92.3452C97.941 88.3014 96.8873 84.4633 95.8406 80.581C95.7559 80.2669 95.6712 79.9528 95.584 79.6292C94.5448 75.821 93.3995 72.0444 92.2609 68.265C79.4193 25.6323 79.4193 25.6323 85.0467 14.8398C89.0309 7.80946 98.1499 4.16932 105.566 2.08706C106.519 1.83251 107.475 1.58969 108.433 1.35443C108.728 1.28185 109.024 1.20927 109.328 1.1345C115.553 -0.307285 122.305 2.76756 127.431 6.25701ZM101.159 107.263C98.821 110.534 98.1861 114.468 98.796 118.399C99.6033 121.563 101.921 124.245 104.676 125.934C105.222 126.218 105.769 126.466 106.339 126.697C106.726 126.864 106.726 126.864 107.12 127.035C110.785 127.951 114.165 127.556 117.481 125.757C120.2 124.091 122.348 121.506 123.25 118.4C123.886 114.335 123.424 110.723 121.106 107.281C119.135 104.725 116.349 102.878 113.153 102.282C108.281 101.85 104.3 103.533 101.159 107.263Z" fill="#7B2CBF"/>
</svg>
