<svg width="698" height="235" viewBox="0 0 698 235" fill="none" xmlns="http://www.w3.org/2000/svg">
<path d="M127.345 5.48651C131.293 8.33263 133.697 12.0306 134.529 16.8511C134.747 18.5751 134.742 20.3012 134.732 22.0363C134.732 22.2374 134.732 22.4385 134.731 22.6457C134.698 31.6457 133.489 40.5999 131.785 49.424C131.743 49.6422 131.7 49.8604 131.657 50.0852C130.685 55.085 129.482 60.0218 128.246 64.9617C127.743 66.9746 127.242 68.9881 126.745 71.0029C126.693 71.2173 126.64 71.4317 126.585 71.6526C124.585 79.1854 124.585 79.1854 123.828 86.8903C123.829 87.206 123.829 87.206 123.83 87.528C123.833 87.7392 123.835 87.9503 123.838 88.1679C123.84 88.4978 123.84 88.4978 123.842 88.8344C123.845 89.3693 123.85 89.9042 123.855 90.4391C126.903 89.9921 129.221 87.5012 131.359 85.4588C131.851 85.0023 132.356 84.5656 132.864 84.1283C134.004 83.1329 135.085 82.09 136.153 81.0182C136.34 80.831 136.528 80.6439 136.721 80.4511C137.114 80.0585 137.506 79.6656 137.898 79.2723C138.493 78.6764 139.089 78.082 139.685 77.4877C140.069 77.1032 140.453 76.7185 140.837 76.3338C141.1 76.072 141.1 76.072 141.368 75.8048C142.226 74.9423 143.053 74.0657 143.847 73.1443C144.936 71.8857 146.098 70.7104 147.276 69.5357C147.501 69.3104 147.726 69.0852 147.958 68.8531C148.431 68.3802 148.904 67.9076 149.377 67.4353C150.097 66.7175 150.814 65.9982 151.532 65.2788C151.994 64.8168 152.456 64.3549 152.919 63.8931C153.131 63.6807 153.342 63.4683 153.561 63.2495C154.715 62.1003 155.893 60.998 157.132 59.9407C157.655 59.4801 158.146 58.9977 158.633 58.5C159.47 57.6505 160.345 56.8667 161.249 56.0891C161.88 55.5352 162.498 54.968 163.113 54.3966C164.56 53.0556 166.032 51.7671 167.571 50.5319C168.205 50.0211 168.831 49.5051 169.454 48.9815C175.203 44.178 182.646 38.453 190.573 39.0527C194.153 39.6107 196.934 40.9446 199.657 43.3113C199.963 43.5764 199.963 43.5764 200.275 43.8469C202.139 45.5846 203.485 47.6194 204.883 49.7296C205.728 50.998 206.588 52.2553 207.447 53.514C207.627 53.7789 207.808 54.0438 207.993 54.3168C209.133 55.9884 210.287 57.6482 211.457 59.2985C211.597 59.4963 211.736 59.6941 211.88 59.8979C212.438 60.6883 212.997 61.4762 213.57 62.2562C215.399 64.8165 215.579 67.5684 215.14 70.6369C214.073 76.1933 211.623 81.3557 207.891 85.6128C207.709 85.8382 207.528 86.0636 207.341 86.2959C196.27 99.5469 173.37 104.201 157.729 109.307C157.036 109.534 156.343 109.76 155.65 109.987C153.612 110.653 151.573 111.318 149.533 111.977C148.69 112.25 147.848 112.524 147.005 112.799C146.61 112.927 146.215 113.055 145.82 113.182C145.278 113.355 144.738 113.532 144.197 113.709C143.893 113.807 143.588 113.906 143.275 114.007C142.55 114.217 142.55 114.217 142.309 114.855C142.659 114.967 143.008 115.079 143.368 115.194C145.059 115.758 146.705 116.428 148.36 117.09C161.458 122.269 174.842 126.604 188.436 130.275C211.844 136.612 211.844 136.612 217.653 146.565C221.191 152.753 223.44 159.156 221.518 166.241C218.465 176.159 211.349 185.871 202.213 190.941C197.35 193.396 192.436 194.337 187.166 192.644C181.273 190.525 175.41 187.546 170.32 183.897C169.839 183.553 169.354 183.217 168.867 182.883C165.434 180.501 162.185 177.863 159.107 175.038C158.515 174.495 157.911 173.969 157.303 173.445C156.404 172.663 155.565 171.838 154.731 170.988C154.246 170.513 153.743 170.082 153.222 169.648C151.863 168.48 150.67 167.16 149.46 165.842C148.482 164.777 147.485 163.739 146.454 162.725C145.594 161.856 144.807 160.924 144.013 159.995C143.762 159.702 143.511 159.41 143.26 159.117C142.832 158.618 142.404 158.118 141.976 157.619C140.904 156.366 139.824 155.119 138.743 153.874C136.637 151.448 134.546 149.012 132.532 146.51C128.946 141.707 128.946 141.707 124.139 138.703C124.483 141.513 125.021 144.213 125.736 146.953C125.789 147.159 125.842 147.364 125.897 147.576C126.973 151.731 128.212 155.836 129.463 159.942C143.348 205.519 143.348 205.519 136.152 219.792C131.284 228.26 119.517 231.169 110.777 233.592C103.439 235.513 95.597 234.054 89.0607 230.274C82.7655 226.286 79.282 220.259 77.5904 213.113C73.3712 193.553 82.5983 172.633 89.3776 154.662C90.6263 151.35 91.8545 148.031 93.0387 144.695C93.1987 144.244 93.3595 143.794 93.5211 143.345C94.3719 140.975 95.1375 138.658 95.4652 136.147C94.2462 136.798 93.343 137.643 92.3955 138.632C91.5116 139.547 90.6225 140.43 89.6518 141.254C87.9476 142.727 86.3771 144.342 84.7878 145.936C84.2346 146.491 83.6798 147.044 83.1248 147.597C80.7803 149.94 80.7803 149.94 78.5672 152.407C77.8065 153.296 76.9975 154.14 76.1953 154.991C75.114 156.14 74.0466 157.297 73.0003 158.477C71.5209 160.125 69.9642 161.691 68.3956 163.254C67.9076 163.741 67.421 164.229 66.9346 164.717C65.3256 166.327 63.702 167.891 61.9647 169.364C61.6361 169.654 61.3082 169.944 60.981 170.236C58.5852 172.35 56.1077 174.322 53.5503 176.237C53.0536 176.614 52.561 176.996 52.0706 177.381C49.6635 179.27 47.1643 180.987 44.6111 182.672C44.1952 182.947 43.7793 183.223 43.3634 183.498C42.3611 184.161 41.3573 184.821 40.3528 185.48C39.8725 185.796 39.393 186.113 38.9137 186.43C34.3753 189.425 30.4416 191.361 24.8799 190.373C20.9277 189.45 17.592 187.325 14.5529 184.695C14.3805 184.546 14.2081 184.397 14.0304 184.244C7.1299 178.219 1.53616 169.626 0.8854 160.269C0.539287 153.745 2.86329 148.613 7.17146 143.813C7.40421 143.546 7.63697 143.279 7.87678 143.004C13.2734 136.945 19.4041 132.207 26.7607 128.766C27.0696 128.621 27.0696 128.621 27.3847 128.472C37.1248 123.953 47.5536 121.357 57.9579 118.891C58.1561 118.844 58.3543 118.797 58.5585 118.749C60.5612 118.274 62.5642 117.801 64.5692 117.335C69.7962 116.138 69.7962 116.138 74.905 114.526C75.592 114.287 75.592 114.287 76.1598 114.287C73.6282 109.081 59.4897 105.887 54.0938 104.012C48.3769 102.048 42.601 100.25 36.8429 98.4112C15.914 91.7267 15.914 91.7267 11.43 87.0323C11.2331 86.8376 11.0362 86.6429 10.8334 86.4423C6.253 81.6674 4.5432 75.0294 4.33243 68.5786C4.3247 68.3446 4.31697 68.1107 4.309 67.8697C4.28653 67.0886 4.27266 66.3079 4.26146 65.5266C4.25535 65.2816 4.24924 65.0365 4.24295 64.784C4.22483 61.2042 5.54991 58.6073 7.96993 56.027C8.3633 55.63 8.75968 55.236 9.15878 54.8448C9.37063 54.6356 9.58248 54.4265 9.80075 54.2109C11.6548 52.4065 13.5877 50.7804 15.6885 49.2732C15.8574 49.15 16.0263 49.0268 16.2003 48.8999C22.4746 44.3609 29.9891 41.9762 37.7542 42.8643C44.6535 44.1555 50.3069 48.7626 55.7188 52.9639C55.8933 53.099 56.0678 53.234 56.2475 53.3732C59.2674 55.7151 62.2248 58.1292 65.1349 60.6062C66.095 61.422 67.0677 62.2188 68.0508 63.007C69.4744 64.1642 70.8169 65.3956 72.1507 66.6538C72.9944 67.4491 73.8474 68.2283 74.7225 68.9889C75.8699 69.9869 76.9858 71.0151 78.0939 72.0564C78.2896 72.2398 78.4852 72.4232 78.6868 72.6122C80.1345 73.975 81.546 75.368 82.9346 76.7907C83.5464 77.4202 83.5464 77.4202 84.393 77.9474C84.393 78.1348 84.393 78.3221 84.393 78.5152C84.6439 78.6277 84.6439 78.6277 84.9 78.7424C85.5526 79.096 85.9798 79.465 86.5012 79.9902C86.6807 80.1702 86.8602 80.3503 87.0451 80.5358C87.2298 80.7239 87.4144 80.912 87.6046 81.1058C87.786 81.2873 87.9673 81.4688 88.1541 81.6559C89.0428 82.5527 89.9016 83.4629 90.7231 84.4217C92.0309 85.9352 93.4597 87.3285 94.8796 88.7357C95.1579 89.0125 95.436 89.2894 95.7141 89.5663C96.3876 90.2364 97.0617 90.9059 97.7364 91.5747C97.8551 87.5309 96.8013 83.6928 95.7546 79.8105C95.6699 79.4964 95.5853 79.1823 95.498 78.8587C94.4588 75.0505 93.3136 71.2739 92.175 67.4944C79.3334 24.8617 79.3334 24.8617 84.9608 14.0693C88.945 7.03896 98.064 3.39881 105.48 1.31655C106.433 1.06201 107.389 0.819185 108.347 0.583918C108.642 0.511342 108.938 0.438766 109.242 0.36399C115.468 -1.07779 122.219 1.99706 127.345 5.48651ZM101.073 106.493C98.7351 109.763 98.1002 113.697 98.7101 117.628C99.5174 120.793 101.835 123.475 104.59 125.164C105.136 125.448 105.683 125.695 106.253 125.927C106.64 126.094 106.64 126.094 107.034 126.264C110.699 127.18 114.079 126.785 117.396 124.986C120.114 123.321 122.262 120.735 123.165 117.629C123.8 113.564 123.339 109.952 121.02 106.511C119.049 103.954 116.264 102.107 113.067 101.511C108.195 101.079 104.214 102.762 101.073 106.493Z" fill="#531D94"/>
<path d="M697.592 111.819L697.992 184.419C697.992 185.485 697.459 186.019 696.392 186.019H675.392C674.326 186.019 673.792 185.452 673.792 184.319L674.292 171.319C670.692 176.652 666.226 180.785 660.892 183.719C655.559 186.585 649.459 188.019 642.592 188.019C633.392 188.019 625.492 185.719 618.892 181.119C612.359 176.452 607.392 170.085 603.992 162.019C600.659 153.952 598.992 144.852 598.992 134.719C598.992 124.719 600.759 115.652 604.292 107.519C607.892 99.3186 613.026 92.8519 619.692 88.1186C626.359 83.3186 634.159 80.9186 643.092 80.9186C649.825 80.9186 655.759 82.2519 660.892 84.9186C666.092 87.5186 670.426 91.3519 673.892 96.4186L673.792 47.6186C673.792 46.5519 674.326 46.0186 675.392 46.0186H696.392C697.459 46.0186 697.992 46.5519 697.992 47.6186L697.592 111.819ZM648.892 171.919C657.226 171.919 663.626 168.785 668.092 162.519C672.559 156.252 674.792 146.985 674.792 134.719C674.792 122.585 672.559 113.285 668.092 106.819C663.626 100.285 657.292 97.0186 649.092 97.0186C640.692 97.0186 634.326 100.252 629.992 106.719C625.659 113.119 623.492 122.052 623.492 133.519C623.492 145.652 625.659 155.085 629.992 161.819C634.326 168.552 640.626 171.919 648.892 171.919Z" fill="#09090B"/>
<path d="M567.178 186.019C566.111 186.019 565.578 185.485 565.578 184.419L566.078 133.719L565.578 84.6187C565.578 83.5521 566.111 83.0187 567.178 83.0187H588.478C589.545 83.0187 590.078 83.5521 590.078 84.6187L589.578 133.719L590.078 184.419C590.078 185.485 589.545 186.019 588.478 186.019H567.178ZM567.278 72.2188C566.211 72.2188 565.678 71.6854 565.678 70.6188V50.8187C565.678 49.7521 566.211 49.2188 567.278 49.2188H588.478C589.545 49.2188 590.078 49.7521 590.078 50.8187V70.6188C590.078 71.6854 589.545 72.2188 588.478 72.2188H567.278Z" fill="#09090B"/>
<path d="M510.916 188.418C500.449 188.418 491.416 186.251 483.816 181.918C476.216 177.518 470.416 171.285 466.416 163.218C462.482 155.151 460.516 145.685 460.516 134.818C460.516 123.952 462.516 114.451 466.516 106.318C470.516 98.1182 476.349 91.7848 484.016 87.3182C491.682 82.8515 500.816 80.6182 511.416 80.6182C519.949 80.6182 527.449 82.1515 533.916 85.2182C540.382 88.2182 545.482 92.4848 549.216 98.0182C553.016 103.551 555.316 110.018 556.116 117.418V117.818C556.116 118.685 555.582 119.118 554.516 119.118H535.516C534.516 119.118 533.916 118.585 533.716 117.518C532.582 110.918 530.016 105.851 526.016 102.318C522.082 98.7848 517.216 97.0182 511.416 97.0182C493.949 97.0848 485.216 109.651 485.216 134.718C485.216 147.318 487.382 156.718 491.716 162.918C496.116 169.118 502.749 172.218 511.616 172.218C518.149 172.218 523.449 170.151 527.516 166.018C531.649 161.885 534.049 156.051 534.716 148.518C534.916 147.451 535.482 146.918 536.416 146.918H555.916C556.449 146.918 556.849 147.052 557.116 147.318C557.449 147.585 557.582 147.951 557.516 148.418C556.782 156.151 554.416 163.052 550.416 169.118C546.416 175.185 541.016 179.918 534.216 183.318C527.416 186.718 519.649 188.418 510.916 188.418Z" fill="#09090B"/>
<path d="M395.477 188.419C388.277 188.419 382.044 186.852 376.777 183.719C371.511 180.585 367.444 175.985 364.577 169.919C361.711 163.852 360.277 156.519 360.277 147.919V126.919L359.777 84.6186C359.777 83.5519 360.344 83.0186 361.477 83.0186H382.577C383.644 83.0186 384.177 83.5519 384.177 84.6186L383.777 126.919V147.319C383.777 154.785 385.477 160.519 388.877 164.519C392.344 168.519 396.911 170.519 402.577 170.519C406.711 170.519 410.577 169.352 414.177 167.019C417.844 164.619 420.877 161.052 423.277 156.319C425.744 151.585 427.311 145.819 427.977 139.019V126.919L427.577 84.6186C427.577 83.5519 428.144 83.0186 429.277 83.0186H450.677C451.744 83.0186 452.277 83.5519 452.277 84.6186L451.777 131.119L451.977 184.419C451.977 185.485 451.444 186.019 450.377 186.019H430.277C429.211 186.019 428.711 185.452 428.777 184.319L429.177 170.519C425.644 175.785 420.944 180.085 415.077 183.419C409.277 186.752 402.744 188.419 395.477 188.419Z" fill="#09090B"/>
<path d="M273.823 186.019C272.756 186.019 272.223 185.485 272.223 184.419L273.023 114.219L272.223 47.6186C272.223 46.5519 272.756 46.0186 273.823 46.0186H295.423C296.489 46.0186 297.023 46.5519 297.023 47.6186L296.423 112.919L297.123 167.719H356.623C357.756 167.719 358.323 168.252 358.323 169.319V184.419C358.323 184.885 358.156 185.285 357.823 185.619C357.556 185.885 357.156 186.019 356.623 186.019H273.823Z" fill="#09090B"/>
</svg>
