<svg width="512" height="512" viewBox="0 0 512 512" fill="none" xmlns="http://www.w3.org/2000/svg">
<rect width="512" height="512" rx="80" fill="white"/>
<g clip-path="url(#clip0_175_108)">
<path d="M279.847 73.2403C286.291 77.871 290.215 83.8878 291.571 91.731C291.929 94.536 291.919 97.3445 291.904 100.168C291.904 100.495 291.904 100.822 291.903 101.159C291.849 115.802 289.875 130.371 287.094 144.729C287.026 145.084 286.955 145.439 286.885 145.804C285.299 153.939 283.335 161.972 281.318 170.009C280.497 173.284 279.679 176.56 278.868 179.838C278.783 180.187 278.696 180.536 278.607 180.896C275.342 193.152 275.342 193.152 274.107 205.688C274.108 206.202 274.108 206.202 274.11 206.726C274.115 207.069 274.118 207.413 274.123 207.767C274.126 208.303 274.126 208.303 274.128 208.851C274.134 209.721 274.143 210.592 274.151 211.462C279.126 210.735 282.909 206.682 286.399 203.359C287.2 202.616 288.026 201.906 288.855 201.194C290.716 199.575 292.48 197.878 294.224 196.134C294.529 195.829 294.836 195.525 295.151 195.211C295.792 194.572 296.432 193.933 297.072 193.293C298.043 192.324 299.016 191.357 299.989 190.39C300.615 189.764 301.242 189.138 301.869 188.512C302.298 188.086 302.298 188.086 302.736 187.651C304.136 186.248 305.486 184.822 306.782 183.323C308.559 181.275 310.456 179.363 312.379 177.451C312.746 177.085 313.113 176.718 313.492 176.341C314.264 175.571 315.036 174.802 315.808 174.034C316.983 172.866 318.154 171.696 319.325 170.525C320.08 169.773 320.834 169.022 321.589 168.271C321.935 167.925 322.28 167.579 322.637 167.223C324.521 165.354 326.444 163.56 328.466 161.84C329.32 161.09 330.121 160.305 330.916 159.496C332.282 158.114 333.71 156.838 335.184 155.573C336.216 154.672 337.224 153.749 338.228 152.819C340.59 150.637 342.993 148.541 345.505 146.531C346.539 145.7 347.561 144.861 348.578 144.009C357.962 136.193 370.109 126.878 383.047 127.854C388.892 128.762 393.431 130.932 397.876 134.783C398.375 135.214 398.375 135.214 398.884 135.654C401.927 138.482 404.124 141.792 406.406 145.226C407.785 147.29 409.189 149.335 410.591 151.383C410.885 151.814 411.178 152.245 411.482 152.689C413.343 155.409 415.226 158.11 417.136 160.795C417.364 161.117 417.591 161.439 417.826 161.77C418.737 163.056 419.65 164.338 420.585 165.607C423.568 169.773 423.864 174.25 423.147 179.243C421.406 188.284 417.407 196.683 411.315 203.609C411.018 203.976 410.721 204.343 410.416 204.721C392.347 226.28 354.97 233.854 329.44 242.162C328.309 242.53 327.178 242.899 326.047 243.267C322.72 244.35 319.392 245.432 316.063 246.506C314.687 246.949 313.311 247.396 311.936 247.842C311.292 248.052 310.647 248.258 310.001 248.465C309.118 248.748 308.236 249.034 307.353 249.322C306.857 249.484 306.359 249.643 305.848 249.809C304.665 250.151 304.665 250.151 304.272 251.187C304.843 251.369 305.412 251.552 306 251.74C308.76 252.658 311.447 253.746 314.148 254.825C335.527 263.25 357.371 270.305 379.561 276.278C417.766 286.588 417.766 286.588 427.249 302.782C433.024 312.849 436.695 323.267 433.558 334.796C428.573 350.933 416.96 366.733 402.046 374.983C394.11 378.977 386.09 380.51 377.488 377.755C367.869 374.306 358.299 369.459 349.99 363.522C349.206 362.964 348.415 362.417 347.62 361.872C342.017 357.998 336.713 353.704 331.689 349.108C330.723 348.226 329.737 347.37 328.745 346.517C327.276 345.245 325.908 343.903 324.547 342.518C323.755 341.745 322.934 341.044 322.084 340.338C319.866 338.439 317.919 336.29 315.944 334.145C314.347 332.412 312.72 330.724 311.037 329.075C309.633 327.662 308.349 326.143 307.051 324.634C306.642 324.157 306.232 323.68 305.822 323.203C305.124 322.391 304.427 321.58 303.728 320.766C301.978 318.727 300.215 316.698 298.451 314.673C295.014 310.727 291.601 306.764 288.313 302.691C282.46 294.878 282.46 294.878 274.614 289.989C275.176 294.563 276.054 298.956 277.221 303.414C277.307 303.747 277.394 304.082 277.484 304.426C279.24 311.188 281.262 317.867 283.303 324.547C305.967 398.703 305.967 398.703 294.222 421.926C286.276 435.702 267.07 440.437 252.805 444.378C240.827 447.505 228.027 445.131 217.359 438.981C207.084 432.49 201.398 422.684 198.637 411.057C191.75 379.232 206.811 345.196 217.876 315.957C219.914 310.566 221.919 305.166 223.852 299.738C224.113 299.006 224.375 298.274 224.639 297.542C226.028 293.686 227.277 289.916 227.812 285.832C225.823 286.891 224.348 288.266 222.802 289.873C221.359 291.364 219.908 292.8 218.324 294.141C215.542 296.538 212.979 299.164 210.385 301.759C209.482 302.66 208.576 303.562 207.67 304.461C203.843 308.274 203.843 308.274 200.231 312.286C198.99 313.732 197.669 315.107 196.36 316.492C194.595 318.36 192.853 320.242 191.145 322.164C188.73 324.845 186.189 327.393 183.629 329.934C182.832 330.727 182.038 331.521 181.244 332.315C178.618 334.934 175.968 337.481 173.132 339.877C172.596 340.348 172.061 340.821 171.527 341.295C167.616 344.734 163.572 347.944 159.398 351.058C158.588 351.672 157.783 352.293 156.983 352.92C153.054 355.993 148.975 358.789 144.807 361.528C144.129 361.978 143.45 362.425 142.771 362.874C141.135 363.951 139.497 365.027 137.857 366.099C137.073 366.613 136.291 367.127 135.508 367.643C128.1 372.516 121.68 375.668 112.602 374.058C106.151 372.558 100.706 369.099 95.7462 364.82C95.4646 364.579 95.1832 364.337 94.8934 364.088C83.6302 354.283 74.5 340.304 73.4378 325.078C72.8729 314.465 76.6661 306.115 83.698 298.303C84.0779 297.87 84.4578 297.436 84.8492 296.988C93.6578 287.13 103.664 279.42 115.672 273.821C116.176 273.585 116.176 273.585 116.69 273.344C132.588 265.99 149.61 261.766 166.592 257.755C166.916 257.679 167.239 257.603 167.573 257.524C170.842 256.752 174.111 255.98 177.383 255.224C185.915 253.276 185.915 253.276 194.254 250.652C195.375 250.263 195.375 250.263 196.302 250.263C192.17 241.794 169.093 236.597 160.285 233.547C150.954 230.351 141.527 227.426 132.128 224.433C97.9676 213.557 97.9676 213.557 90.6488 205.919C90.3274 205.602 90.0062 205.285 89.675 204.959C82.1989 197.19 79.4081 186.39 79.0641 175.894C79.0515 175.513 79.0389 175.133 79.0259 174.741C78.9892 173.47 78.9665 172.199 78.9482 170.928C78.9383 170.53 78.9283 170.131 78.918 169.72C78.8885 163.896 81.0513 159.67 85.0013 155.472C85.6433 154.826 86.2903 154.185 86.9417 153.549C87.2875 153.208 87.6333 152.868 87.9895 152.517C91.0157 149.581 94.1708 146.936 97.5997 144.483C97.8754 144.283 98.1511 144.082 98.4351 143.876C108.676 136.491 120.941 132.611 133.616 134.056C144.877 136.157 154.104 143.652 162.938 150.488C163.222 150.708 163.507 150.928 163.801 151.154C168.73 154.965 173.557 158.892 178.307 162.923C179.874 164.25 181.462 165.546 183.066 166.829C185.39 168.712 187.581 170.715 189.758 172.762C191.135 174.056 192.528 175.324 193.956 176.562C195.829 178.185 197.65 179.858 199.459 181.553C199.778 181.851 200.097 182.149 200.426 182.457C202.789 184.674 205.093 186.941 207.36 189.256C208.358 190.28 208.358 190.28 209.74 191.138C209.74 191.442 209.74 191.747 209.74 192.061C210.15 192.244 210.15 192.244 210.568 192.431C211.633 193.006 212.33 193.607 213.181 194.461C213.474 194.754 213.767 195.047 214.069 195.349C214.37 195.655 214.672 195.961 214.982 196.276C215.278 196.572 215.574 196.867 215.879 197.171C217.33 198.631 218.731 200.111 220.072 201.671C222.207 204.134 224.539 206.401 226.857 208.691C227.311 209.141 227.765 209.591 228.219 210.042C229.318 211.132 230.418 212.222 231.519 213.31C231.713 206.73 229.993 200.486 228.285 194.169C228.147 193.658 228.008 193.147 227.866 192.62C226.17 186.424 224.3 180.279 222.442 174.13C201.482 104.765 201.482 104.765 210.667 87.2049C217.17 75.7662 232.054 69.8435 244.159 66.4556C245.714 66.0414 247.275 65.6463 248.838 65.2635C249.32 65.1455 249.803 65.0274 250.299 64.9057C260.46 62.5599 271.48 67.5628 279.847 73.2403ZM236.966 237.582C233.149 242.904 232.113 249.305 233.109 255.701C234.426 260.848 238.209 265.212 242.706 267.96C243.597 268.422 244.49 268.826 245.42 269.202C246.052 269.473 246.052 269.473 246.695 269.752C252.677 271.242 258.194 270.599 263.607 267.672C268.045 264.962 271.551 260.756 273.023 255.702C274.061 249.088 273.307 243.211 269.523 237.611C266.306 233.452 261.759 230.447 256.542 229.477C248.59 228.775 242.092 231.513 236.966 237.582Z" fill="#7B2CBF"/>
</g>
<defs>
<clipPath id="clip0_175_108">
<rect width="363" height="384" fill="white" transform="translate(74 64)"/>
</clipPath>
</defs>
</svg>
