<svg width="222" height="235" viewBox="0 0 222 235" fill="none" xmlns="http://www.w3.org/2000/svg">
<path d="M126.728 6.05487C130.676 8.90099 133.08 12.599 133.911 17.4195C134.13 19.1434 134.124 20.8695 134.115 22.6047C134.115 22.8058 134.114 23.0069 134.114 23.2141C134.08 32.2141 132.872 41.1683 131.168 49.9924C131.125 50.2106 131.083 50.4288 131.04 50.6536C130.068 55.6533 128.865 60.5901 127.629 65.53C127.126 67.543 126.625 69.5565 126.128 71.5712C126.075 71.7856 126.023 72.0001 125.968 72.221C123.968 79.7537 123.968 79.7537 123.211 87.4587C123.212 87.7743 123.212 87.7743 123.213 88.0963C123.216 88.3075 123.218 88.5187 123.22 88.7362C123.222 89.0662 123.222 89.0662 123.224 89.4027C123.228 89.9377 123.233 90.4726 123.238 91.0075C126.286 90.5604 128.604 88.0696 130.742 86.0271C131.233 85.5707 131.739 85.1339 132.247 84.6967C133.387 83.7012 134.468 82.6584 135.536 81.5865C135.723 81.3994 135.911 81.2123 136.104 81.0194C136.497 80.6269 136.889 80.2339 137.281 79.8406C137.875 79.2447 138.471 78.6503 139.067 78.0561C139.452 77.6715 139.836 77.2869 140.22 76.9022C140.483 76.6403 140.483 76.6403 140.751 76.3732C141.609 75.5106 142.435 74.6341 143.23 73.7127C144.319 72.4541 145.481 71.2787 146.659 70.104C146.884 69.8788 147.109 69.6536 147.341 69.4215C147.814 68.9485 148.287 68.4759 148.76 68.0036C149.479 67.2859 150.197 66.5666 150.915 65.8471C151.377 65.3852 151.839 64.9233 152.302 64.4614C152.513 64.2491 152.725 64.0367 152.944 63.8178C154.098 62.6686 155.276 61.5664 156.515 60.509C157.038 60.0484 157.528 59.566 158.016 59.0684C158.853 58.2189 159.728 57.435 160.631 56.6575C161.263 56.1035 161.88 55.5364 162.496 54.965C163.942 53.624 165.415 52.3354 166.954 51.1003C167.587 50.5895 168.214 50.0734 168.837 49.5499C174.586 44.7464 182.028 39.0214 189.955 39.6211C193.536 40.179 196.317 41.513 199.04 43.8796C199.346 44.1448 199.346 44.1448 199.658 44.4153C201.521 46.153 202.868 48.1877 204.266 50.2979C205.11 51.5664 205.971 52.8236 206.83 54.0824C207.01 54.3473 207.19 54.6122 207.376 54.8851C208.515 56.5568 209.67 58.2165 210.84 59.8669C210.979 60.0647 211.119 60.2625 211.263 60.4662C211.821 61.2567 212.38 62.0446 212.953 62.8246C214.781 65.3849 214.962 68.1367 214.523 71.2052C213.456 76.7616 211.006 81.9241 207.273 86.1811C207.092 86.4065 206.91 86.632 206.723 86.8643C195.653 100.115 172.753 104.769 157.112 109.876C156.419 110.102 155.726 110.328 155.033 110.555C152.995 111.221 150.956 111.886 148.916 112.545C148.073 112.818 147.23 113.093 146.388 113.367C145.993 113.496 145.598 113.623 145.202 113.75C144.661 113.924 144.12 114.1 143.58 114.277C143.276 114.375 142.971 114.474 142.657 114.575C141.933 114.786 141.933 114.786 141.692 115.423C142.041 115.535 142.391 115.647 142.751 115.762C144.442 116.327 146.088 116.996 147.743 117.659C160.841 122.837 174.224 127.173 187.819 130.844C211.226 137.18 211.226 137.18 217.036 147.134C220.574 153.321 222.823 159.724 220.901 166.809C217.847 176.728 210.732 186.439 201.595 191.509C196.733 193.964 191.819 194.906 186.549 193.212C180.656 191.093 174.793 188.114 169.702 184.465C169.222 184.121 168.737 183.786 168.25 183.451C164.817 181.07 161.568 178.431 158.49 175.606C157.897 175.064 157.294 174.537 156.686 174.013C155.786 173.231 154.948 172.407 154.114 171.556C153.629 171.081 153.126 170.65 152.604 170.216C151.246 169.048 150.053 167.728 148.843 166.41C147.864 165.345 146.868 164.307 145.836 163.293C144.977 162.424 144.19 161.492 143.395 160.564C143.144 160.271 142.893 159.978 142.642 159.685C142.214 159.186 141.787 158.687 141.359 158.187C140.287 156.934 139.207 155.687 138.125 154.442C136.02 152.016 133.929 149.58 131.915 147.078C128.329 142.276 128.329 142.276 123.522 139.271C123.866 142.082 124.404 144.782 125.119 147.522C125.172 147.727 125.225 147.933 125.28 148.144C126.356 152.3 127.594 156.405 128.845 160.51C142.731 206.088 142.731 206.088 135.535 220.361C130.666 228.828 118.9 231.738 110.16 234.16C102.822 236.082 94.9798 234.622 88.4435 230.843C82.1483 226.854 78.6649 220.827 76.9732 213.681C72.7541 194.121 81.9811 173.201 88.7604 155.231C90.0091 151.918 91.2373 148.599 92.4215 145.263C92.5815 144.813 92.7423 144.363 92.9039 143.913C93.7547 141.543 94.5203 139.226 94.848 136.716C93.629 137.367 92.7258 138.212 91.7783 139.2C90.8944 140.116 90.0053 140.998 89.0346 141.823C87.3304 143.296 85.7599 144.91 84.1706 146.504C83.6174 147.059 83.0626 147.612 82.5076 148.166C80.1631 150.509 80.1631 150.509 77.95 152.975C77.1894 153.864 76.3803 154.708 75.5781 155.56C74.4969 156.708 73.4294 157.865 72.3831 159.045C70.9037 160.694 69.347 162.26 67.7785 163.822C67.2904 164.309 66.8038 164.797 66.3174 165.285C64.7084 166.895 63.0848 168.46 61.3475 169.932C61.0189 170.222 60.691 170.513 60.3638 170.804C57.968 172.918 55.4905 174.891 52.9331 176.805C52.4365 177.182 51.9438 177.564 51.4534 177.949C49.0463 179.838 46.5471 181.556 43.9939 183.24C43.578 183.516 43.1621 183.791 42.7462 184.066C41.7439 184.729 40.7401 185.389 39.7356 186.049C39.2553 186.364 38.7758 186.681 38.2965 186.998C33.7581 189.993 29.8245 191.929 24.2627 190.941C20.3105 190.019 16.9748 187.893 13.9357 185.263C13.7633 185.114 13.5909 184.966 13.4133 184.813C6.51271 178.787 0.918977 170.195 0.268213 160.837C-0.0779002 154.313 2.2461 149.181 6.55427 144.381C6.78703 144.114 7.01978 143.848 7.25959 143.573C12.6563 137.513 18.7869 132.775 26.1435 129.334C26.4524 129.189 26.4524 129.189 26.7675 129.041C36.5076 124.521 46.9364 121.925 57.3407 119.46C57.5389 119.413 57.7371 119.366 57.9413 119.317C59.944 118.842 61.947 118.369 63.952 117.904C69.179 116.706 69.179 116.706 74.2878 115.094C74.9748 114.855 74.9748 114.855 75.5426 114.855C73.011 109.65 58.8725 106.455 53.4766 104.58C47.7597 102.616 41.9838 100.818 36.2257 98.9796C15.2968 92.295 15.2968 92.295 10.8128 87.6006C10.6159 87.4059 10.419 87.2112 10.2162 87.0106C5.63581 82.2357 3.92602 75.5978 3.71524 69.147C3.70751 68.913 3.69978 68.6791 3.69182 68.438C3.66934 67.657 3.65547 66.8763 3.64427 66.095C3.63816 65.8499 3.63205 65.6049 3.62576 65.3524C3.60764 61.7725 4.93272 59.1757 7.35275 56.5954C7.74611 56.1984 8.1425 55.8044 8.54159 55.4132C8.75344 55.204 8.96529 54.9948 9.18356 54.7793C11.0376 52.9748 12.9706 51.3488 15.0713 49.8416C15.2402 49.7184 15.4091 49.5952 15.5831 49.4683C21.8574 44.9293 29.3719 42.5446 37.137 43.4327C44.0363 44.7238 49.6897 49.331 55.1016 53.5323C55.2761 53.6674 55.4506 53.8024 55.6303 53.9415C58.6502 56.2834 61.6076 58.6976 64.5177 61.1745C65.4778 61.9903 66.4505 62.7872 67.4336 63.5754C68.8572 64.7325 70.1997 65.964 71.5335 67.2222C72.3772 68.0174 73.2302 68.7966 74.1053 69.5573C75.2528 70.5553 76.3686 71.5834 77.4767 72.6248C77.6724 72.8082 77.868 72.9916 78.0697 73.1806C79.5173 74.5433 80.9288 75.9364 82.3175 77.3591C82.9292 77.9886 82.9292 77.9886 83.7758 78.5157C83.7758 78.7031 83.7758 78.8905 83.7758 79.0835C84.0268 79.196 84.0268 79.196 84.2828 79.3108C84.9354 79.6643 85.3626 80.0334 85.884 80.5585C86.0635 80.7386 86.243 80.9186 86.4279 81.1041C86.6126 81.2922 86.7972 81.4804 86.9874 81.6742C87.1688 81.8557 87.3501 82.0372 87.5369 82.2242C88.4256 83.121 89.2844 84.0312 90.1059 84.9901C91.4137 86.5035 92.8425 87.8969 94.2624 89.304C94.5407 89.5809 94.8188 89.8577 95.0969 90.1347C95.7704 90.8048 96.4445 91.4742 97.1192 92.1431C97.2379 88.0992 96.1841 84.2612 95.1374 80.3789C95.0528 80.0648 94.9681 79.7507 94.8808 79.4271C93.8416 75.6188 92.6964 71.8422 91.5578 68.0628C78.7162 25.4301 78.7162 25.4301 84.3436 14.6377C88.3278 7.60732 97.4468 3.96717 104.862 1.88491C105.816 1.63037 106.772 1.38754 107.73 1.15228C108.025 1.0797 108.321 1.00713 108.625 0.93235C114.85 -0.509433 121.602 2.56542 126.728 6.05487ZM100.456 107.061C98.1179 110.332 97.483 114.265 98.0929 118.197C98.9002 121.361 101.218 124.043 103.973 125.732C104.519 126.016 105.066 126.264 105.636 126.495C106.023 126.662 106.023 126.662 106.417 126.832C110.082 127.749 113.462 127.354 116.778 125.555C119.497 123.889 121.645 121.303 122.547 118.198C123.183 114.133 122.721 110.521 120.403 107.079C118.432 104.523 115.646 102.676 112.45 102.08C107.578 101.648 103.597 103.331 100.456 107.061Z" fill="black"/>
</svg>
