<svg width="223" height="235" viewBox="0 0 223 235" fill="none" xmlns="http://www.w3.org/2000/svg">
<path d="M127.244 5.75408C131.191 8.60021 133.595 12.2982 134.427 17.1187C134.645 18.8426 134.64 20.5687 134.631 22.3039C134.63 22.505 134.63 22.7061 134.63 22.9133C134.596 31.9133 133.388 40.8675 131.683 49.6916C131.641 49.9098 131.599 50.128 131.556 50.3528C130.584 55.3525 129.381 60.2893 128.145 65.2293C127.641 67.2422 127.14 69.2557 126.644 71.2704C126.591 71.4849 126.538 71.6993 126.484 71.9202C124.484 79.4529 124.484 79.4529 123.726 87.1579C123.728 87.4735 123.728 87.4735 123.729 87.7956C123.731 88.0067 123.734 88.2179 123.736 88.4355C123.738 88.7654 123.738 88.7654 123.74 89.102C123.743 89.6369 123.748 90.1718 123.754 90.7067C126.801 90.2597 129.12 87.7688 131.258 85.7264C131.749 85.2699 132.254 84.8332 132.763 84.3959C133.903 83.4005 134.983 82.3576 136.052 81.2858C136.239 81.0986 136.426 80.9115 136.619 80.7187C137.012 80.3261 137.405 79.9331 137.797 79.5399C138.391 78.9439 138.987 78.3495 139.583 77.7553C139.967 77.3707 140.352 76.9861 140.736 76.6014C140.999 76.3395 140.999 76.3395 141.267 76.0724C142.125 75.2099 142.951 74.3333 143.746 73.4119C144.834 72.1533 145.997 70.978 147.175 69.8032C147.4 69.578 147.625 69.3528 147.856 69.1207C148.329 68.6478 148.802 68.1751 149.276 67.7029C149.995 66.9851 150.713 66.2658 151.43 65.5464C151.893 65.0844 152.355 64.6225 152.817 64.1607C153.029 63.9483 153.241 63.7359 153.459 63.5171C154.613 62.3678 155.791 61.2656 157.031 60.2083C157.554 59.7477 158.044 59.2653 158.532 58.7676C159.368 57.9181 160.244 57.1343 161.147 56.3567C161.778 55.8028 162.396 55.2356 163.012 54.6642C164.458 53.3232 165.93 52.0346 167.469 50.7995C168.103 50.2887 168.729 49.7727 169.352 49.2491C175.102 44.4456 182.544 38.7206 190.471 39.3203C194.052 39.8783 196.833 41.2122 199.556 43.5788C199.862 43.844 199.862 43.844 200.174 44.1145C202.037 45.8522 203.383 47.887 204.782 49.9971C205.626 51.2656 206.487 52.5228 207.345 53.7816C207.526 54.0465 207.706 54.3114 207.892 54.5844C209.031 56.256 210.186 57.9157 211.356 59.5661C211.495 59.7639 211.635 59.9617 211.778 60.1654C212.336 60.9559 212.896 61.7438 213.468 62.5238C215.297 65.0841 215.477 67.8359 215.039 70.9045C213.971 76.4609 211.521 81.6233 207.789 85.8803C207.608 86.1058 207.426 86.3312 207.239 86.5635C196.168 99.8145 173.269 104.469 157.628 109.575C156.935 109.801 156.242 110.028 155.548 110.254C153.51 110.92 151.472 111.585 149.431 112.245C148.588 112.517 147.746 112.792 146.904 113.067C146.509 113.195 146.113 113.323 145.718 113.449C145.177 113.623 144.636 113.8 144.096 113.976C143.791 114.075 143.487 114.173 143.173 114.275C142.448 114.485 142.448 114.485 142.208 115.122C142.557 115.234 142.907 115.346 143.267 115.462C144.958 116.026 146.604 116.695 148.258 117.358C161.356 122.536 174.74 126.872 188.335 130.543C211.742 136.88 211.742 136.88 217.552 146.833C221.089 153.02 223.339 159.423 221.416 166.509C218.363 176.427 211.248 186.138 202.111 191.208C197.249 193.663 192.334 194.605 187.064 192.912C181.172 190.792 175.308 187.813 170.218 184.164C169.738 183.821 169.252 183.485 168.766 183.15C165.332 180.769 162.083 178.13 159.005 175.305C158.413 174.763 157.81 174.237 157.201 173.713C156.302 172.931 155.463 172.106 154.629 171.255C154.145 170.78 153.641 170.349 153.12 169.916C151.761 168.748 150.568 167.427 149.358 166.109C148.38 165.045 147.384 164.006 146.352 162.993C145.492 162.124 144.705 161.191 143.911 160.263C143.66 159.97 143.409 159.677 143.158 159.384C142.73 158.885 142.302 158.386 141.875 157.886C140.802 156.633 139.723 155.386 138.641 154.141C136.536 151.716 134.445 149.28 132.431 146.777C128.845 141.975 128.845 141.975 124.038 138.97C124.382 141.781 124.919 144.481 125.635 147.221C125.688 147.426 125.741 147.632 125.795 147.844C126.871 151.999 128.11 156.104 129.361 160.21C143.246 205.787 143.246 205.787 136.05 220.06C131.182 228.527 119.415 231.437 110.676 233.859C103.337 235.781 95.4954 234.322 88.9592 230.542C82.6639 226.553 79.1805 220.526 77.4888 213.38C73.2697 193.821 82.4967 172.901 89.276 154.93C90.5248 151.617 91.7529 148.298 92.9371 144.962C93.0971 144.512 93.2579 144.062 93.4196 143.612C94.2703 141.242 95.0359 138.925 95.3636 136.415C94.1446 137.066 93.2414 137.911 92.2939 138.899C91.41 139.815 90.5209 140.698 89.5503 141.522C87.846 142.995 86.2755 144.609 84.6863 146.204C84.133 146.758 83.5782 147.312 83.0233 147.865C80.6787 150.208 80.6787 150.208 78.4656 152.674C77.705 153.563 76.8959 154.408 76.0937 155.259C75.0125 156.407 73.945 157.564 72.8987 158.745C71.4193 160.393 69.8626 161.959 68.2941 163.522C67.806 164.008 67.3195 164.496 66.8331 164.984C65.2241 166.594 63.6005 168.159 61.8631 169.632C61.5346 169.921 61.2067 170.212 60.8794 170.503C58.4836 172.617 56.0061 174.59 53.4487 176.504C52.9521 176.881 52.4594 177.263 51.9691 177.648C49.5619 179.537 47.0628 181.255 44.5095 182.94C44.0936 183.215 43.6777 183.49 43.2618 183.766C42.2595 184.428 41.2557 185.089 40.2512 185.748C39.771 186.064 39.2915 186.38 38.8121 186.697C34.2737 189.692 30.3401 191.629 24.7783 190.64C20.8261 189.718 17.4904 187.592 14.4514 184.962C14.2789 184.814 14.1065 184.665 13.9289 184.512C7.02834 178.486 1.4346 169.894 0.783838 160.536C0.437725 154.013 2.76173 148.881 7.0699 144.08C7.30265 143.814 7.53541 143.547 7.77522 143.272C13.1719 137.213 19.3026 132.474 26.6592 129.034C26.968 128.888 26.968 128.888 27.2831 128.74C37.0232 124.221 47.452 121.624 57.8563 119.159C58.0545 119.112 58.2527 119.065 58.457 119.017C60.4597 118.542 62.4627 118.068 64.4676 117.603C69.6946 116.406 69.6946 116.406 74.8035 114.793C75.4904 114.554 75.4904 114.554 76.0582 114.554C73.5267 109.349 59.3881 106.155 53.9922 104.28C48.2753 102.316 42.4995 100.518 36.7413 98.6788C15.8124 91.9943 15.8124 91.9943 11.3284 87.2998C11.1315 87.1051 10.9347 86.9105 10.7318 86.7099C6.15144 81.935 4.44164 75.297 4.23087 68.8462C4.22314 68.6122 4.21541 68.3783 4.20744 68.1372C4.18497 67.3562 4.17109 66.5755 4.15989 65.7942C4.15379 65.5492 4.14768 65.3041 4.14139 65.0516C4.12327 61.4717 5.44835 58.8749 7.86837 56.2946C8.26174 55.8976 8.65812 55.5036 9.05721 55.1124C9.26906 54.9032 9.48091 54.694 9.69918 54.4785C11.5532 52.674 13.4862 51.048 15.587 49.5408C15.7559 49.4176 15.9248 49.2944 16.0988 49.1675C22.373 44.6285 29.8875 42.2438 37.6526 43.1319C44.5519 44.423 50.2053 49.0302 55.6172 53.2315C55.7917 53.3666 55.9662 53.5016 56.146 53.6407C59.1658 55.9826 62.1232 58.3968 65.0333 60.8737C65.9935 61.6896 66.9662 62.4864 67.9493 63.2746C69.3728 64.4317 70.7153 65.6632 72.0491 66.9214C72.8928 67.7166 73.7459 68.4958 74.621 69.2565C75.7684 70.2545 76.8842 71.2827 77.9923 72.324C78.188 72.5074 78.3837 72.6908 78.5853 72.8798C80.0329 74.2426 81.4444 75.6356 82.8331 77.0583C83.4449 77.6878 83.4449 77.6878 84.2914 78.215C84.2914 78.4023 84.2914 78.5897 84.2914 78.7828C84.5424 78.8952 84.5424 78.8952 84.7984 79.01C85.451 79.3636 85.8782 79.7326 86.3996 80.2577C86.5791 80.4378 86.7586 80.6178 86.9436 80.8034C87.1282 80.9915 87.3128 81.1796 87.5031 81.3734C87.6844 81.5549 87.8657 81.7364 88.0526 81.9234C88.9413 82.8203 89.8 83.7305 90.6215 84.6893C91.9293 86.2028 93.3581 87.5961 94.7781 89.0033C95.0563 89.2801 95.3345 89.557 95.6126 89.8339C96.286 90.504 96.9601 91.1735 97.6348 91.8423C97.7535 87.7984 96.6998 83.9604 95.6531 80.0781C95.5684 79.764 95.4837 79.4499 95.3965 79.1263C94.3573 75.318 93.212 71.5415 92.0734 67.762C79.2318 25.1293 79.2318 25.1293 84.8592 14.3369C88.8434 7.30653 97.9624 3.66639 105.378 1.58413C106.332 1.32958 107.287 1.08676 108.246 0.851496C108.541 0.77892 108.836 0.706344 109.14 0.631569C115.366 -0.810215 122.117 2.26463 127.244 5.75408ZM100.972 106.76C98.6335 110.031 97.9986 113.965 98.6085 117.896C99.4158 121.06 101.734 123.743 104.488 125.432C105.035 125.715 105.582 125.963 106.152 126.195C106.538 126.361 106.538 126.361 106.933 126.532C110.598 127.448 113.977 127.053 117.294 125.254C120.013 123.588 122.16 121.003 123.063 117.897C123.699 113.832 123.237 110.22 120.918 106.778C118.947 104.222 116.162 102.375 112.966 101.779C108.094 101.347 104.112 103.03 100.972 106.76Z" fill="#5A189A"/>
</svg>
