<svg width="222" height="235" viewBox="0 0 222 235" fill="none" xmlns="http://www.w3.org/2000/svg">
<path d="M126.869 5.74822C130.816 8.59435 133.22 12.2923 134.052 17.1129C134.27 18.8368 134.265 20.5629 134.256 22.298C134.255 22.4991 134.255 22.7002 134.255 22.9074C134.221 31.9074 133.013 40.8616 131.308 49.6858C131.266 49.9039 131.224 50.1221 131.181 50.3469C130.209 55.3467 129.006 60.2835 127.77 65.2234C127.266 67.2363 126.765 69.2498 126.269 71.2646C126.216 71.479 126.163 71.6934 126.109 71.9143C124.109 79.4471 124.109 79.4471 123.351 87.152C123.353 87.4677 123.353 87.4677 123.354 87.7897C123.356 88.0009 123.359 88.212 123.361 88.4296C123.363 88.7595 123.363 88.7595 123.365 89.0961C123.368 89.631 123.373 90.1659 123.379 90.7008C126.426 90.2538 128.745 87.7629 130.883 85.7205C131.374 85.264 131.879 84.8273 132.388 84.39C133.528 83.3946 134.608 82.3517 135.677 81.2799C135.864 81.0928 136.051 80.9056 136.244 80.7128C136.637 80.3202 137.03 79.9273 137.422 79.534C138.016 78.9381 138.612 78.3437 139.208 77.7494C139.592 77.3649 139.977 76.9802 140.361 76.5955C140.624 76.3337 140.624 76.3337 140.892 76.0666C141.75 75.204 142.576 74.3275 143.371 73.406C144.459 72.1474 145.622 70.9721 146.8 69.7974C147.025 69.5721 147.25 69.3469 147.481 69.1149C147.954 68.6419 148.427 68.1693 148.901 67.697C149.62 66.9792 150.338 66.2599 151.055 65.5405C151.518 65.0785 151.98 64.6166 152.442 64.1548C152.654 63.9424 152.866 63.73 153.084 63.5112C154.238 62.362 155.416 61.2597 156.656 60.2024C157.179 59.7418 157.669 59.2594 158.157 58.7618C158.993 57.9122 159.869 57.1284 160.772 56.3508C161.403 55.7969 162.021 55.2298 162.637 54.6583C164.083 53.3173 165.555 52.0288 167.094 50.7936C167.728 50.2828 168.354 49.7668 168.977 49.2433C174.727 44.4397 182.169 38.7147 190.096 39.3144C193.677 39.8724 196.458 41.2063 199.181 43.573C199.487 43.8381 199.487 43.8381 199.799 44.1086C201.662 45.8463 203.008 47.8811 204.407 49.9913C205.251 51.2598 206.112 52.517 206.97 53.7757C207.151 54.0406 207.331 54.3056 207.517 54.5785C208.656 56.2502 209.811 57.9099 210.981 59.5602C211.12 59.758 211.26 59.9558 211.403 60.1596C211.961 60.95 212.521 61.738 213.093 62.5179C214.922 65.0782 215.102 67.8301 214.664 70.8986C213.596 76.455 211.146 81.6174 207.414 85.8745C207.233 86.0999 207.051 86.3253 206.864 86.5576C195.793 99.8087 172.894 104.463 157.253 109.569C156.56 109.795 155.867 110.022 155.173 110.248C153.135 110.915 151.097 111.58 149.056 112.239C148.213 112.511 147.371 112.786 146.529 113.061C146.134 113.189 145.738 113.317 145.343 113.443C144.802 113.617 144.261 113.794 143.721 113.97C143.416 114.069 143.112 114.167 142.798 114.269C142.073 114.479 142.073 114.479 141.833 115.116C142.182 115.228 142.532 115.34 142.892 115.456C144.583 116.02 146.229 116.689 147.883 117.352C160.981 122.53 174.365 126.866 187.96 130.537C211.367 136.874 211.367 136.874 217.177 146.827C220.714 153.014 222.964 159.417 221.041 166.503C217.988 176.421 210.873 186.132 201.736 191.202C196.874 193.658 191.959 194.599 186.689 192.906C180.797 190.787 174.933 187.808 169.843 184.158C169.363 183.815 168.877 183.479 168.391 183.144C164.957 180.763 161.708 178.125 158.63 175.299C158.038 174.757 157.435 174.231 156.826 173.707C155.927 172.925 155.088 172.1 154.254 171.249C153.77 170.774 153.266 170.344 152.745 169.91C151.386 168.742 150.193 167.422 148.983 166.104C148.005 165.039 147.009 164.001 145.977 162.987C145.117 162.118 144.33 161.186 143.536 160.257C143.285 159.964 143.034 159.671 142.783 159.379C142.355 158.879 141.927 158.38 141.5 157.88C140.427 156.627 139.348 155.38 138.266 154.135C136.161 151.71 134.07 149.274 132.056 146.772C128.47 141.969 128.47 141.969 123.663 138.964C124.007 141.775 124.544 144.475 125.26 147.215C125.313 147.421 125.366 147.626 125.42 147.838C126.496 151.993 127.735 156.098 128.986 160.204C142.871 205.781 142.871 205.781 135.675 220.054C130.807 228.522 119.04 231.431 110.301 233.853C102.962 235.775 95.1204 234.316 88.5842 230.536C82.2889 226.547 78.8055 220.521 77.1138 213.374C72.8947 193.815 82.1217 172.895 88.901 154.924C90.1498 151.612 91.3779 148.292 92.5621 144.956C92.7221 144.506 92.8829 144.056 93.0446 143.606C93.8953 141.236 94.6609 138.919 94.9886 136.409C93.7696 137.06 92.8664 137.905 91.9189 138.893C91.035 139.809 90.1459 140.692 89.1753 141.516C87.471 142.989 85.9005 144.603 84.3113 146.198C83.758 146.753 83.2032 147.306 82.6483 147.859C80.3037 150.202 80.3037 150.202 78.0906 152.668C77.33 153.557 76.5209 154.402 75.7187 155.253C74.6375 156.402 73.57 157.558 72.5237 158.739C71.0443 160.387 69.4876 161.953 67.9191 163.516C67.431 164.002 66.9445 164.49 66.4581 164.979C64.8491 166.589 63.2255 168.153 61.4881 169.626C61.1596 169.916 60.8317 170.206 60.5044 170.497C58.1086 172.611 55.6311 174.584 53.0737 176.498C52.5771 176.875 52.0844 177.257 51.5941 177.642C49.1869 179.531 46.6878 181.249 44.1345 182.934C43.7186 183.209 43.3027 183.484 42.8868 183.76C41.8845 184.422 40.8807 185.083 39.8762 185.742C39.396 186.058 38.9165 186.375 38.4371 186.692C33.8987 189.686 29.9651 191.623 24.4033 190.635C20.4511 189.712 17.1154 187.587 14.0764 184.956C13.9039 184.808 13.7315 184.659 13.5539 184.506C6.65334 178.481 1.0596 169.888 0.408838 160.531C0.0627248 154.007 2.38673 148.875 6.6949 144.075C6.92765 143.808 7.16041 143.541 7.40022 143.266C12.7969 137.207 18.9276 132.469 26.2842 129.028C26.593 128.882 26.593 128.882 26.9081 128.734C36.6482 124.215 47.077 121.619 57.4813 119.153C57.6795 119.106 57.8777 119.059 58.082 119.011C60.0847 118.536 62.0877 118.062 64.0926 117.597C69.3196 116.4 69.3196 116.4 74.4285 114.787C75.1154 114.549 75.1154 114.549 75.6832 114.549C73.1517 109.343 59.0131 106.149 53.6172 104.274C47.9003 102.31 42.1245 100.512 36.3663 98.673C15.4374 91.9884 15.4374 91.9884 10.9534 87.294C10.7565 87.0993 10.5597 86.9046 10.3568 86.704C5.77644 81.9291 4.06664 75.2912 3.85587 68.8403C3.84814 68.6064 3.84041 68.3724 3.83244 68.1314C3.80997 67.3504 3.79609 66.5696 3.78489 65.7884C3.77879 65.5433 3.77268 65.2982 3.76639 65.0457C3.74827 61.4659 5.07335 58.869 7.49337 56.2887C7.88674 55.8917 8.28312 55.4977 8.68221 55.1065C8.89406 54.8973 9.10591 54.6882 9.32418 54.4727C11.1782 52.6682 13.1112 51.0421 15.212 49.5349C15.3809 49.4117 15.5498 49.2885 15.7238 49.1616C21.998 44.6226 29.5125 42.2379 37.2776 43.1261C44.1769 44.4172 49.8303 49.0244 55.2422 53.2257C55.4167 53.3607 55.5912 53.4958 55.771 53.6349C58.7908 55.9768 61.7482 58.391 64.6583 60.8679C65.6185 61.6837 66.5912 62.4805 67.5743 63.2687C68.9978 64.4259 70.3403 65.6573 71.6741 66.9155C72.5178 67.7108 73.3709 68.49 74.246 69.2506C75.3934 70.2486 76.5092 71.2768 77.6173 72.3181C77.813 72.5015 78.0087 72.685 78.2103 72.8739C79.6579 74.2367 81.0694 75.6298 82.4581 77.0524C83.0699 77.682 83.0699 77.682 83.9164 78.2091C83.9164 78.3965 83.9164 78.5839 83.9164 78.7769C84.1674 78.8894 84.1674 78.8894 84.4234 79.0041C85.076 79.3577 85.5032 79.7267 86.0246 80.2519C86.2041 80.4319 86.3836 80.612 86.5686 80.7975C86.7532 80.9856 86.9378 81.1737 87.1281 81.3675C87.3094 81.549 87.4907 81.7306 87.6776 81.9176C88.5663 82.8144 89.425 83.7246 90.2465 84.6834C91.5543 86.1969 92.9831 87.5903 94.4031 88.9974C94.6813 89.2742 94.9595 89.5511 95.2376 89.828C95.911 90.4982 96.5851 91.1676 97.2598 91.8364C97.3785 87.7926 96.3248 83.9545 95.2781 80.0722C95.1934 79.7581 95.1087 79.444 95.0215 79.1204C93.9823 75.3122 92.837 71.5356 91.6984 67.7562C78.8568 25.1235 78.8568 25.1235 84.4842 14.331C88.4684 7.30068 97.5874 3.66053 105.003 1.57827C105.957 1.32372 106.912 1.0809 107.871 0.845637C108.166 0.773061 108.461 0.700485 108.765 0.625709C114.991 -0.816074 121.742 2.25877 126.869 5.74822ZM100.597 106.755C98.2585 110.025 97.6236 113.959 98.2335 117.89C99.0408 121.054 101.359 123.737 104.113 125.426C104.66 125.709 105.207 125.957 105.777 126.189C106.163 126.356 106.163 126.356 106.558 126.526C110.223 127.442 113.602 127.047 116.919 125.248C119.638 123.582 121.785 120.997 122.688 117.891C123.324 113.826 122.862 110.214 120.543 106.772C118.572 104.216 115.787 102.369 112.591 101.773C107.719 101.341 103.737 103.024 100.597 106.755Z" fill="#240046"/>
</svg>
