<svg width="222" height="236" viewBox="0 0 222 236" fill="none" xmlns="http://www.w3.org/2000/svg">
<path d="M127.056 6.25115C131.004 9.09728 133.408 12.7953 134.239 17.6158C134.458 19.3397 134.452 21.0658 134.443 22.801C134.443 23.0021 134.443 23.2032 134.442 23.4104C134.409 32.4103 133.2 41.3646 131.496 50.1887C131.454 50.4069 131.411 50.6251 131.368 50.8499C130.396 55.8496 129.193 60.7864 127.957 65.7263C127.454 67.7392 126.953 69.7528 126.456 71.7675C126.404 71.9819 126.351 72.1963 126.296 72.4173C124.296 79.95 124.296 79.95 123.539 87.655C123.54 87.9706 123.54 87.9706 123.541 88.2926C123.544 88.5038 123.546 88.715 123.549 88.9325C123.551 89.2624 123.551 89.2624 123.552 89.599C123.556 90.1339 123.561 90.6688 123.566 91.2037C126.614 90.7567 128.932 88.2659 131.07 86.2234C131.561 85.767 132.067 85.3302 132.575 84.8929C133.715 83.8975 134.796 82.8546 135.864 81.7828C136.051 81.5957 136.239 81.4085 136.432 81.2157C136.825 80.8231 137.217 80.4302 137.609 80.0369C138.204 79.441 138.8 78.8466 139.396 78.2524C139.78 77.8678 140.164 77.4832 140.548 77.0984C140.811 76.8366 140.811 76.8366 141.079 76.5695C141.937 75.7069 142.764 74.8304 143.558 73.909C144.647 72.6504 145.809 71.475 146.987 70.3003C147.212 70.0751 147.437 69.8498 147.669 69.6178C148.142 69.1448 148.615 68.6722 149.088 68.1999C149.808 67.4822 150.525 66.7629 151.243 66.0434C151.705 65.5814 152.167 65.1195 152.63 64.6577C152.842 64.4453 153.053 64.233 153.272 64.0141C154.426 62.8649 155.604 61.7627 156.843 60.7053C157.366 60.2447 157.857 59.7623 158.344 59.2647C159.181 58.4152 160.056 57.6313 160.959 56.8537C161.591 56.2998 162.209 55.7327 162.824 55.1613C164.271 53.8203 165.743 52.5317 167.282 51.2966C167.916 50.7858 168.542 50.2697 169.165 49.7462C174.914 44.9427 182.356 39.2177 190.283 39.8174C193.864 40.3753 196.645 41.7093 199.368 44.0759C199.674 44.3411 199.674 44.3411 199.986 44.6116C201.85 46.3492 203.196 48.384 204.594 50.4942C205.439 51.7627 206.299 53.0199 207.158 54.2787C207.338 54.5436 207.518 54.8085 207.704 55.0814C208.844 56.7531 209.998 58.4128 211.168 60.0632C211.308 60.261 211.447 60.4587 211.591 60.6625C212.149 61.453 212.708 62.2409 213.281 63.0209C215.109 65.5812 215.29 68.333 214.851 71.4015C213.784 76.9579 211.334 82.1204 207.602 86.3774C207.42 86.6028 207.238 86.8283 207.051 87.0605C195.981 100.312 173.081 104.966 157.44 110.072C156.747 110.298 156.054 110.525 155.361 110.751C153.323 111.417 151.284 112.083 149.244 112.742C148.401 113.014 147.558 113.289 146.716 113.564C146.321 113.692 145.926 113.82 145.53 113.946C144.989 114.12 144.449 114.297 143.908 114.473C143.604 114.572 143.299 114.67 142.986 114.772C142.261 114.982 142.261 114.982 142.02 115.619C142.37 115.731 142.719 115.843 143.079 115.959C144.77 116.523 146.416 117.192 148.071 117.855C161.169 123.033 174.552 127.369 188.147 131.04C211.554 137.377 211.554 137.377 217.364 147.33C220.902 153.517 223.151 159.92 221.229 167.006C218.175 176.924 211.06 186.635 201.923 191.705C197.061 194.161 192.147 195.102 186.877 193.409C180.984 191.289 175.121 188.31 170.03 184.661C169.55 184.318 169.065 183.982 168.578 183.647C165.145 181.266 161.896 178.627 158.818 175.802C158.226 175.26 157.622 174.734 157.014 174.21C156.114 173.428 155.276 172.603 154.442 171.752C153.957 171.277 153.454 170.847 152.933 170.413C151.574 169.245 150.381 167.924 149.171 166.607C148.193 165.542 147.196 164.503 146.165 163.49C145.305 162.621 144.518 161.688 143.723 160.76C143.472 160.467 143.221 160.174 142.97 159.882C142.542 159.382 142.115 158.883 141.687 158.383C140.615 157.13 139.535 155.883 138.454 154.638C136.348 152.213 134.257 149.777 132.243 147.275C128.657 142.472 128.657 142.472 123.85 139.467C124.194 142.278 124.732 144.978 125.447 147.718C125.5 147.924 125.553 148.129 125.608 148.341C126.684 152.496 127.923 156.601 129.173 160.707C143.059 206.284 143.059 206.284 135.863 220.557C130.995 229.025 119.228 231.934 110.488 234.356C103.15 236.278 95.3079 234.819 88.7717 231.039C82.4764 227.05 78.993 221.023 77.3013 213.877C73.0822 194.318 82.3092 173.398 89.0885 155.427C90.3373 152.114 91.5654 148.795 92.7496 145.459C92.9096 145.009 93.0704 144.559 93.2321 144.109C94.0828 141.739 94.8484 139.422 95.1761 136.912C93.9571 137.563 93.0539 138.408 92.1064 139.396C91.2225 140.312 90.3334 141.195 89.3628 142.019C87.6585 143.492 86.088 145.106 84.4988 146.701C83.9455 147.255 83.3907 147.809 82.8358 148.362C80.4912 150.705 80.4912 150.705 78.2781 153.171C77.5175 154.06 76.7084 154.905 75.9062 155.756C74.825 156.904 73.7575 158.061 72.7112 159.242C71.2318 160.89 69.6751 162.456 68.1066 164.019C67.6185 164.505 67.132 164.993 66.6456 165.481C65.0366 167.091 63.413 168.656 61.6756 170.129C61.3471 170.419 61.0192 170.709 60.6919 171C58.2961 173.114 55.8186 175.087 53.2612 177.001C52.7646 177.378 52.2719 177.76 51.7816 178.145C49.3744 180.034 46.8753 181.752 44.322 183.437C43.9061 183.712 43.4902 183.987 43.0743 184.263C42.072 184.925 41.0682 185.586 40.0637 186.245C39.5835 186.561 39.104 186.877 38.6246 187.194C34.0862 190.189 30.1526 192.126 24.5908 191.137C20.6386 190.215 17.3029 188.09 14.2639 185.459C14.0914 185.311 13.919 185.162 13.7414 185.009C6.84084 178.983 1.2471 170.391 0.596338 161.034C0.250225 154.51 2.57423 149.378 6.8824 144.577C7.11515 144.311 7.34791 144.044 7.58772 143.769C12.9844 137.71 19.1151 132.972 26.4717 129.531C26.7805 129.385 26.7805 129.385 27.0956 129.237C36.8357 124.718 47.2645 122.122 57.6688 119.656C57.867 119.609 58.0652 119.562 58.2695 119.514C60.2722 119.039 62.2752 118.565 64.2801 118.1C69.5071 116.903 69.5071 116.903 74.616 115.29C75.3029 115.052 75.3029 115.052 75.8707 115.052C73.3392 109.846 59.2006 106.652 53.8047 104.777C48.0878 102.813 42.312 101.015 36.5538 99.1759C15.6249 92.4913 15.6249 92.4913 11.1409 87.7969C10.944 87.6022 10.7472 87.4075 10.5443 87.2069C5.96394 82.432 4.25414 75.7941 4.04337 69.3432C4.03564 69.1093 4.02791 68.8754 4.01994 68.6343C3.99747 67.8533 3.98359 67.0725 3.97239 66.2913C3.96629 66.0462 3.96018 65.8012 3.95389 65.5487C3.93577 61.9688 5.26085 59.372 7.68087 56.7916C8.07424 56.3947 8.47062 56.0007 8.86971 55.6095C9.08156 55.4003 9.29341 55.1911 9.51168 54.9756C11.3657 53.1711 13.2987 51.5451 15.3995 50.0379C15.5684 49.9147 15.7373 49.7915 15.9113 49.6645C22.1855 45.1255 29.7 42.7408 37.4651 43.629C44.3644 44.9201 50.0178 49.5273 55.4297 53.7286C55.6042 53.8636 55.7787 53.9987 55.9585 54.1378C58.9783 56.4797 61.9357 58.8939 64.8458 61.3708C65.806 62.1866 66.7787 62.9834 67.7618 63.7717C69.1853 64.9288 70.5278 66.1603 71.8616 67.4184C72.7053 68.2137 73.5584 68.9929 74.4335 69.7536C75.5809 70.7515 76.6967 71.7797 77.8048 72.821C78.0005 73.0045 78.1962 73.1879 78.3978 73.3769C79.8454 74.7396 81.2569 76.1327 82.6456 77.5554C83.2574 78.1849 83.2574 78.1849 84.1039 78.712C84.1039 78.8994 84.1039 79.0868 84.1039 79.2798C84.3549 79.3923 84.3549 79.3923 84.6109 79.507C85.2635 79.8606 85.6907 80.2296 86.2121 80.7548C86.3916 80.9349 86.5711 81.1149 86.7561 81.3004C86.9407 81.4885 87.1253 81.6766 87.3156 81.8704C87.4969 82.052 87.6782 82.2335 87.8651 82.4205C88.7538 83.3173 89.6125 84.2275 90.434 85.1863C91.7418 86.6998 93.1706 88.0932 94.5906 89.5003C94.8688 89.7771 95.147 90.054 95.4251 90.331C96.0985 91.0011 96.7726 91.6705 97.4473 92.3394C97.566 88.2955 96.5123 84.4574 95.4656 80.5751C95.3809 80.2611 95.2962 79.947 95.209 79.6233C94.1698 75.8151 93.0245 72.0385 91.8859 68.2591C79.0443 25.6264 79.0443 25.6264 84.6717 14.8339C88.6559 7.8036 97.7749 4.16346 105.191 2.0812C106.144 1.82665 107.1 1.58383 108.058 1.34857C108.353 1.27599 108.649 1.20341 108.953 1.12864C115.178 -0.313144 121.93 2.7617 127.056 6.25115ZM100.784 107.258C98.446 110.528 97.8111 114.462 98.421 118.393C99.2283 121.557 101.546 124.24 104.301 125.929C104.847 126.212 105.394 126.46 105.964 126.692C106.351 126.858 106.351 126.858 106.745 127.029C110.41 127.945 113.79 127.55 117.106 125.751C119.825 124.085 121.973 121.5 122.875 118.394C123.511 114.329 123.049 110.717 120.731 107.275C118.76 104.719 115.974 102.872 112.778 102.276C107.906 101.844 103.925 103.527 100.784 107.258Z" fill="#3C096C"/>
</svg>
