<svg width="222" height="235" viewBox="0 0 222 235" fill="none" xmlns="http://www.w3.org/2000/svg">
<path d="M126.994 5.7658C130.941 8.61192 133.345 12.3099 134.177 17.1304C134.395 18.8543 134.39 20.5804 134.381 22.3156C134.38 22.5167 134.38 22.7178 134.38 22.925C134.346 31.925 133.138 40.8792 131.433 49.7033C131.391 49.9215 131.349 50.1397 131.306 50.3645C130.334 55.3643 129.131 60.3011 127.895 65.241C127.391 67.2539 126.89 69.2674 126.394 71.2822C126.341 71.4966 126.288 71.711 126.234 71.9319C124.234 79.4647 124.234 79.4647 123.476 87.1696C123.478 87.4853 123.478 87.4853 123.479 87.8073C123.481 88.0184 123.484 88.2296 123.486 88.4472C123.488 88.7771 123.488 88.7771 123.49 89.1137C123.493 89.6486 123.498 90.1835 123.504 90.7184C126.551 90.2714 128.87 87.7805 131.008 85.7381C131.499 85.2816 132.004 84.8449 132.513 84.4076C133.653 83.4122 134.733 82.3693 135.802 81.2975C135.989 81.1103 136.176 80.9232 136.369 80.7304C136.762 80.3378 137.155 79.9449 137.547 79.5516C138.141 78.9557 138.737 78.3613 139.333 77.767C139.717 77.3825 140.102 76.9978 140.486 76.6131C140.749 76.3513 140.749 76.3513 141.017 76.0841C141.875 75.2216 142.701 74.345 143.496 73.4236C144.584 72.165 145.747 70.9897 146.925 69.815C147.15 69.5897 147.375 69.3645 147.606 69.1324C148.079 68.6595 148.552 68.1869 149.026 67.7146C149.745 66.9968 150.463 66.2775 151.18 65.5581C151.643 65.0961 152.105 64.6342 152.567 64.1724C152.779 63.96 152.991 63.7476 153.209 63.5288C154.363 62.3796 155.541 61.2773 156.781 60.22C157.304 59.7594 157.794 59.277 158.282 58.7793C159.118 57.9298 159.994 57.146 160.897 56.3684C161.528 55.8145 162.146 55.2473 162.762 54.6759C164.208 53.3349 165.68 52.0464 167.219 50.8112C167.853 50.3004 168.479 49.7844 169.102 49.2608C174.852 44.4573 182.294 38.7323 190.221 39.332C193.802 39.89 196.583 41.2239 199.306 43.5906C199.612 43.8557 199.612 43.8557 199.924 44.1262C201.787 45.8639 203.133 47.8987 204.532 50.0089C205.376 51.2773 206.237 52.5345 207.095 53.7933C207.276 54.0582 207.456 54.3231 207.642 54.5961C208.781 56.2677 209.936 57.9275 211.106 59.5778C211.245 59.7756 211.385 59.9734 211.528 60.1772C212.086 60.9676 212.646 61.7555 213.218 62.5355C215.047 65.0958 215.227 67.8476 214.789 70.9162C213.721 76.4726 211.271 81.635 207.539 85.8921C207.358 86.1175 207.176 86.3429 206.989 86.5752C195.918 99.8262 173.019 104.48 157.378 109.587C156.685 109.813 155.992 110.039 155.298 110.266C153.26 110.932 151.222 111.597 149.181 112.256C148.338 112.529 147.496 112.803 146.654 113.078C146.259 113.207 145.863 113.334 145.468 113.461C144.927 113.635 144.386 113.811 143.846 113.988C143.541 114.086 143.237 114.185 142.923 114.286C142.198 114.497 142.198 114.497 141.958 115.134C142.307 115.246 142.657 115.358 143.017 115.473C144.708 116.037 146.354 116.707 148.008 117.37C161.106 122.548 174.49 126.884 188.085 130.555C211.492 136.891 211.492 136.891 217.302 146.845C220.839 153.032 223.089 159.435 221.166 166.52C218.113 176.439 210.998 186.15 201.861 191.22C196.999 193.675 192.084 194.617 186.814 192.923C180.922 190.804 175.058 187.825 169.968 184.176C169.488 183.832 169.002 183.497 168.516 183.162C165.082 180.781 161.833 178.142 158.755 175.317C158.163 174.775 157.56 174.248 156.951 173.724C156.052 172.942 155.213 172.118 154.379 171.267C153.895 170.792 153.391 170.361 152.87 169.927C151.511 168.759 150.318 167.439 149.108 166.121C148.13 165.056 147.134 164.018 146.102 163.004C145.242 162.135 144.455 161.203 143.661 160.275C143.41 159.982 143.159 159.689 142.908 159.396C142.48 158.897 142.052 158.398 141.625 157.898C140.552 156.645 139.473 155.398 138.391 154.153C136.286 151.727 134.195 149.291 132.181 146.789C128.595 141.987 128.595 141.987 123.788 138.982C124.132 141.793 124.669 144.493 125.385 147.233C125.438 147.438 125.491 147.644 125.545 147.855C126.621 152.011 127.86 156.116 129.111 160.221C142.996 205.799 142.996 205.799 135.8 220.072C130.932 228.539 119.165 231.449 110.426 233.871C103.087 235.793 95.2454 234.333 88.7092 230.554C82.4139 226.565 78.9305 220.538 77.2388 213.392C73.0197 193.832 82.2467 172.912 89.026 154.942C90.2748 151.629 91.5029 148.31 92.6871 144.974C92.8471 144.524 93.0079 144.074 93.1696 143.624C94.0203 141.254 94.7859 138.937 95.1136 136.427C93.8946 137.077 92.9914 137.923 92.0439 138.911C91.16 139.827 90.2709 140.709 89.3003 141.534C87.596 143.007 86.0255 144.621 84.4363 146.215C83.883 146.77 83.3282 147.323 82.7733 147.877C80.4287 150.22 80.4287 150.22 78.2156 152.686C77.455 153.575 76.6459 154.419 75.8437 155.271C74.7625 156.419 73.695 157.576 72.6487 158.756C71.1693 160.405 69.6126 161.971 68.0441 163.533C67.556 164.02 67.0695 164.508 66.5831 164.996C64.9741 166.606 63.3505 168.171 61.6131 169.643C61.2846 169.933 60.9567 170.224 60.6294 170.515C58.2336 172.629 55.7561 174.602 53.1987 176.516C52.7021 176.893 52.2094 177.275 51.7191 177.66C49.3119 179.549 46.8128 181.267 44.2595 182.951C43.8436 183.227 43.4277 183.502 43.0118 183.777C42.0095 184.44 41.0057 185.1 40.0012 185.76C39.521 186.075 39.0415 186.392 38.5621 186.709C34.0237 189.704 30.0901 191.64 24.5283 190.652C20.5761 189.73 17.2404 187.604 14.2014 184.974C14.0289 184.825 13.8565 184.677 13.6789 184.524C6.77834 178.498 1.1846 169.906 0.533838 160.548C0.187725 154.024 2.51173 148.892 6.8199 144.092C7.05265 143.825 7.28541 143.559 7.52522 143.284C12.9219 137.224 19.0526 132.486 26.4092 129.045C26.718 128.9 26.718 128.9 27.0331 128.752C36.7732 124.232 47.202 121.636 57.6063 119.171C57.8045 119.124 58.0027 119.077 58.207 119.028C60.2097 118.553 62.2127 118.08 64.2176 117.615C69.4446 116.417 69.4446 116.417 74.5535 114.805C75.2404 114.566 75.2404 114.566 75.8082 114.566C73.2767 109.36 59.1381 106.166 53.7422 104.291C48.0253 102.327 42.2495 100.529 36.4913 98.6905C15.5624 92.006 15.5624 92.006 11.0784 87.3116C10.8815 87.1169 10.6847 86.9222 10.4818 86.7216C5.90144 81.9467 4.19164 75.3087 3.98087 68.8579C3.97314 68.6239 3.96541 68.39 3.95744 68.149C3.93497 67.3679 3.92109 66.5872 3.90989 65.8059C3.90379 65.5609 3.89768 65.3158 3.89139 65.0633C3.87327 61.4835 5.19835 58.8866 7.61837 56.3063C8.01174 55.9093 8.40812 55.5153 8.80721 55.1241C9.01906 54.9149 9.23091 54.7058 9.44918 54.4902C11.3032 52.6858 13.2362 51.0597 15.337 49.5525C15.5059 49.4293 15.6748 49.3061 15.8488 49.1792C22.123 44.6402 29.6375 42.2555 37.4026 43.1436C44.3019 44.4348 49.9553 49.0419 55.3672 53.2432C55.5417 53.3783 55.7162 53.5133 55.896 53.6525C58.9158 55.9944 61.8732 58.4085 64.7833 60.8855C65.7435 61.7013 66.7162 62.4981 67.6993 63.2863C69.1228 64.4435 70.4653 65.6749 71.7991 66.9331C72.6428 67.7284 73.4959 68.5076 74.371 69.2682C75.5184 70.2662 76.6342 71.2944 77.7423 72.3357C77.938 72.5191 78.1337 72.7025 78.3353 72.8915C79.7829 74.2543 81.1944 75.6473 82.5831 77.07C83.1949 77.6995 83.1949 77.6995 84.0414 78.2267C84.0414 78.4141 84.0414 78.6014 84.0414 78.7945C84.2924 78.907 84.2924 78.907 84.5484 79.0217C85.201 79.3753 85.6282 79.7443 86.1496 80.2694C86.3291 80.4495 86.5086 80.6296 86.6936 80.8151C86.8782 81.0032 87.0628 81.1913 87.2531 81.3851C87.4344 81.5666 87.6157 81.7481 87.8026 81.9352C88.6913 82.832 89.55 83.7422 90.3715 84.701C91.6793 86.2145 93.1081 87.6078 94.5281 89.015C94.8063 89.2918 95.0845 89.5687 95.3626 89.8456C96.036 90.5157 96.7101 91.1852 97.3848 91.854C97.5035 87.8102 96.4498 83.9721 95.4031 80.0898C95.3184 79.7757 95.2337 79.4616 95.1465 79.138C94.1073 75.3297 92.962 71.5532 91.8234 67.7737C78.9818 25.141 78.9818 25.141 84.6092 14.3486C88.5934 7.31825 97.7124 3.67811 105.128 1.59584C106.082 1.3413 107.037 1.09848 107.996 0.863215C108.291 0.790639 108.586 0.718063 108.89 0.643287C115.116 -0.798496 121.867 2.27635 126.994 5.7658ZM100.722 106.772C98.3835 110.043 97.7486 113.976 98.3585 117.908C99.1658 121.072 101.484 123.754 104.238 125.443C104.785 125.727 105.332 125.974 105.902 126.206C106.288 126.373 106.288 126.373 106.683 126.543C110.348 127.46 113.727 127.065 117.044 125.266C119.763 123.6 121.91 121.014 122.813 117.909C123.449 113.844 122.987 110.232 120.668 106.79C118.697 104.234 115.912 102.387 112.716 101.791C107.844 101.359 103.862 103.042 100.722 106.772Z" fill="#E0AAFF"/>
</svg>
