<svg width="222" height="236" viewBox="0 0 222 236" fill="none" xmlns="http://www.w3.org/2000/svg">
<path d="M126.681 6.2453C130.629 9.09142 133.033 12.7894 133.864 17.6099C134.083 19.3338 134.077 21.0599 134.068 22.7951C134.068 22.9962 134.068 23.1973 134.067 23.4045C134.034 32.4045 132.825 41.3587 131.121 50.1828C131.079 50.401 131.036 50.6192 130.993 50.844C130.021 55.8437 128.818 60.7806 127.582 65.7205C127.079 67.7334 126.578 69.7469 126.081 71.7616C126.029 71.9761 125.976 72.1905 125.921 72.4114C123.921 79.9441 123.921 79.9442 123.164 87.6491C123.165 87.9648 123.165 87.9648 123.166 88.2868C123.169 88.4979 123.171 88.7091 123.174 88.9267C123.176 89.2566 123.176 89.2566 123.177 89.5932C123.181 90.1281 123.186 90.663 123.191 91.1979C126.239 90.7509 128.557 88.26 130.695 86.2176C131.186 85.7611 131.692 85.3244 132.2 84.8871C133.34 83.8917 134.421 82.8488 135.489 81.777C135.676 81.5898 135.864 81.4027 136.057 81.2099C136.45 80.8173 136.842 80.4243 137.234 80.0311C137.829 79.4351 138.425 78.8408 139.021 78.2465C139.405 77.8619 139.789 77.4773 140.173 77.0926C140.436 76.8308 140.436 76.8307 140.704 76.5636C141.562 75.7011 142.389 74.8245 143.183 73.9031C144.272 72.6445 145.434 71.4692 146.612 70.2944C146.837 70.0692 147.062 69.844 147.294 69.6119C147.767 69.139 148.24 68.6664 148.713 68.1941C149.433 67.4763 150.15 66.757 150.868 66.0376C151.33 65.5756 151.792 65.1137 152.255 64.6519C152.467 64.4395 152.678 64.2271 152.897 64.0083C154.051 62.859 155.229 61.7568 156.468 60.6995C156.991 60.2389 157.482 59.7565 157.969 59.2588C158.806 58.4093 159.681 57.6255 160.584 56.8479C161.216 56.294 161.834 55.7268 162.449 55.1554C163.896 53.8144 165.368 52.5259 166.907 51.2907C167.541 50.7799 168.167 50.2639 168.79 49.7403C174.539 44.9368 181.981 39.2118 189.908 39.8115C193.489 40.3695 196.27 41.7034 198.993 44.07C199.299 44.3352 199.299 44.3352 199.611 44.6057C201.475 46.3434 202.821 48.3782 204.219 50.4884C205.064 51.7568 205.924 53.014 206.783 54.2728C206.963 54.5377 207.143 54.8026 207.329 55.0756C208.469 56.7472 209.623 58.407 210.793 60.0573C210.933 60.2551 211.072 60.4529 211.216 60.6567C211.774 61.4471 212.333 62.235 212.906 63.015C214.734 65.5753 214.915 68.3271 214.476 71.3957C213.409 76.9521 210.959 82.1145 207.227 86.3715C207.045 86.597 206.863 86.8224 206.676 87.0547C195.606 100.306 172.706 104.96 157.065 110.066C156.372 110.292 155.679 110.519 154.986 110.745C152.948 111.412 150.909 112.077 148.869 112.736C148.026 113.009 147.183 113.283 146.341 113.558C145.946 113.686 145.551 113.814 145.155 113.941C144.614 114.114 144.074 114.291 143.533 114.467C143.229 114.566 142.924 114.664 142.611 114.766C141.886 114.976 141.886 114.976 141.645 115.614C141.995 115.725 142.344 115.837 142.704 115.953C144.395 116.517 146.041 117.187 147.696 117.849C160.794 123.027 174.177 127.363 187.772 131.034C211.179 137.371 211.179 137.371 216.989 147.324C220.527 153.511 222.776 159.914 220.854 167C217.8 176.918 210.685 186.629 201.548 191.699C196.686 194.155 191.772 195.096 186.502 193.403C180.609 191.284 174.746 188.305 169.655 184.655C169.175 184.312 168.69 183.976 168.203 183.641C164.77 181.26 161.521 178.622 158.443 175.796C157.851 175.254 157.247 174.728 156.639 174.204C155.739 173.422 154.901 172.597 154.067 171.746C153.582 171.271 153.079 170.841 152.558 170.407C151.199 169.239 150.006 167.919 148.796 166.601C147.818 165.536 146.821 164.498 145.79 163.484C144.93 162.615 144.143 161.683 143.348 160.754C143.097 160.461 142.846 160.168 142.595 159.876C142.167 159.376 141.74 158.877 141.312 158.377C140.24 157.124 139.16 155.877 138.079 154.632C135.973 152.207 133.882 149.771 131.868 147.269C128.282 142.466 128.282 142.466 123.475 139.461C123.819 142.272 124.357 144.972 125.072 147.712C125.125 147.918 125.178 148.123 125.233 148.335C126.309 152.49 127.548 156.595 128.798 160.701C142.684 206.278 142.684 206.278 135.488 220.551C130.62 229.019 118.853 231.928 110.113 234.351C102.775 236.272 94.9329 234.813 88.3967 231.033C82.1014 227.045 78.618 221.018 76.9263 213.872C72.7072 194.312 81.9342 173.392 88.7135 155.421C89.9623 152.109 91.1904 148.79 92.3746 145.453C92.5346 145.003 92.6954 144.553 92.8571 144.104C93.7078 141.733 94.4734 139.416 94.8011 136.906C93.5821 137.557 92.6789 138.402 91.7314 139.39C90.8475 140.306 89.9584 141.189 88.9878 142.013C87.2835 143.486 85.713 145.1 84.1238 146.695C83.5705 147.25 83.0157 147.803 82.4608 148.356C80.1162 150.699 80.1162 150.699 77.9031 153.166C77.1425 154.054 76.3334 154.899 75.5312 155.75C74.45 156.899 73.3825 158.055 72.3362 159.236C70.8568 160.884 69.3001 162.45 67.7316 164.013C67.2435 164.499 66.757 164.987 66.2706 165.476C64.6616 167.086 63.038 168.65 61.3006 170.123C60.9721 170.413 60.6442 170.703 60.3169 170.994C57.9211 173.108 55.4436 175.081 52.8862 176.996C52.3896 177.372 51.8969 177.755 51.4066 178.139C48.9994 180.028 46.5003 181.746 43.947 183.431C43.5311 183.706 43.1152 183.981 42.6993 184.257C41.697 184.92 40.6932 185.58 39.6887 186.239C39.2085 186.555 38.729 186.872 38.2496 187.189C33.7112 190.183 29.7776 192.12 24.2158 191.132C20.2636 190.209 16.9279 188.084 13.8889 185.454C13.7164 185.305 13.544 185.156 13.3664 185.003C6.46584 178.978 0.872102 170.385 0.221338 161.028C-0.124775 154.504 2.19923 149.372 6.5074 144.572C6.74015 144.305 6.97291 144.038 7.21272 143.763C12.6094 137.704 18.7401 132.966 26.0967 129.525C26.4055 129.379 26.4055 129.379 26.7206 129.231C36.4607 124.712 46.8895 122.116 57.2938 119.65C57.492 119.603 57.6902 119.556 57.8945 119.508C59.8972 119.033 61.9002 118.56 63.9051 118.094C69.1321 116.897 69.1321 116.897 74.241 115.284C74.9279 115.046 74.9279 115.046 75.4957 115.046C72.9642 109.84 58.8256 106.646 53.4297 104.771C47.7128 102.807 41.937 101.009 36.1788 99.17C15.2499 92.4855 15.2499 92.4855 10.7659 87.7911C10.569 87.5964 10.3722 87.4017 10.1693 87.2011C5.58894 82.4262 3.87914 75.7882 3.66837 69.3374C3.66064 69.1034 3.65291 68.8695 3.64494 68.6285C3.62247 67.8474 3.60859 67.0667 3.59739 66.2854C3.59129 66.0404 3.58518 65.7953 3.57889 65.5428C3.56077 61.9629 4.88585 59.3661 7.30587 56.7858C7.69924 56.3888 8.09562 55.9948 8.49471 55.6036C8.70656 55.3944 8.91841 55.1852 9.13668 54.9697C10.9907 53.1652 12.9237 51.5392 15.0245 50.032C15.1934 49.9088 15.3623 49.7856 15.5363 49.6587C21.8105 45.1197 29.325 42.735 37.0901 43.6231C43.9894 44.9143 49.6428 49.5214 55.0547 53.7227C55.2292 53.8578 55.4037 53.9928 55.5835 54.132C58.6033 56.4739 61.5607 58.888 64.4708 61.365C65.431 62.1808 66.4037 62.9776 67.3868 63.7658C68.8103 64.923 70.1528 66.1544 71.4866 67.4126C72.3303 68.2078 73.1834 68.9871 74.0585 69.7477C75.2059 70.7457 76.3217 71.7739 77.4298 72.8152C77.6255 72.9986 77.8212 73.182 78.0228 73.371C79.4704 74.7338 80.8819 76.1268 82.2706 77.5495C82.8824 78.179 82.8824 78.179 83.7289 78.7062C83.7289 78.8935 83.7289 79.0809 83.7289 79.274C83.9799 79.3864 83.9799 79.3864 84.2359 79.5012C84.8885 79.8548 85.3157 80.2238 85.8371 80.7489C86.0166 80.929 86.1961 81.1091 86.3811 81.2946C86.5657 81.4827 86.7503 81.6708 86.9406 81.8646C87.1219 82.0461 87.3032 82.2276 87.4901 82.4146C88.3788 83.3115 89.2375 84.2217 90.059 85.1805C91.3668 86.694 92.7956 88.0873 94.2156 89.4945C94.4938 89.7713 94.772 90.0482 95.0501 90.3251C95.7235 90.9952 96.3976 91.6647 97.0723 92.3335C97.191 88.2897 96.1373 84.4516 95.0906 80.5693C95.0059 80.2552 94.9212 79.9411 94.834 79.6175C93.7948 75.8092 92.6495 72.0327 91.5109 68.2532C78.6693 25.6205 78.6693 25.6205 84.2967 14.8281C88.2809 7.79775 97.3999 4.1576 104.816 2.07534C105.769 1.82079 106.725 1.57797 107.683 1.34271C107.978 1.27013 108.274 1.19755 108.578 1.12278C114.803 -0.319004 121.555 2.75584 126.681 6.2453ZM100.409 107.252C98.071 110.522 97.4361 114.456 98.046 118.387C98.8533 121.552 101.171 124.234 103.926 125.923C104.472 126.206 105.019 126.454 105.589 126.686C105.976 126.853 105.976 126.853 106.37 127.023C110.035 127.939 113.415 127.544 116.731 125.745C119.45 124.079 121.598 121.494 122.5 118.388C123.136 114.323 122.674 110.711 120.356 107.269C118.385 104.713 115.599 102.866 112.403 102.27C107.531 101.838 103.55 103.521 100.409 107.252Z" fill="#10002B"/>
</svg>
