<svg width="222" height="236" viewBox="0 0 222 236" fill="none" xmlns="http://www.w3.org/2000/svg">
<path d="M126.806 6.26287C130.754 9.10899 133.158 12.807 133.989 17.6275C134.208 19.3514 134.202 21.0775 134.193 22.8127C134.193 23.0138 134.193 23.2149 134.192 23.4221C134.159 32.4221 132.95 41.3763 131.246 50.2004C131.204 50.4186 131.161 50.6368 131.118 50.8616C130.146 55.8613 128.943 60.7981 127.707 65.738C127.204 67.751 126.703 69.7645 126.206 71.7792C126.154 71.9936 126.101 72.2081 126.046 72.429C124.046 79.9617 124.046 79.9617 123.289 87.6667C123.29 87.9823 123.29 87.9823 123.291 88.3044C123.294 88.5155 123.296 88.7267 123.299 88.9442C123.301 89.2742 123.301 89.2742 123.302 89.6108C123.306 90.1457 123.311 90.6806 123.316 91.2155C126.364 90.7685 128.682 88.2776 130.82 86.2351C131.311 85.7787 131.817 85.3419 132.325 84.9047C133.465 83.9092 134.546 82.8664 135.614 81.7946C135.801 81.6074 135.989 81.4203 136.182 81.2274C136.575 80.8349 136.967 80.4419 137.359 80.0487C137.954 79.4527 138.55 78.8583 139.146 78.2641C139.53 77.8795 139.914 77.4949 140.298 77.1102C140.561 76.8483 140.561 76.8483 140.829 76.5812C141.687 75.7187 142.514 74.8421 143.308 73.9207C144.397 72.6621 145.559 71.4868 146.737 70.312C146.962 70.0868 147.187 69.8616 147.419 69.6295C147.892 69.1565 148.365 68.6839 148.838 68.2117C149.558 67.4939 150.275 66.7746 150.993 66.0551C151.455 65.5932 151.917 65.1313 152.38 64.6695C152.592 64.4571 152.803 64.2447 153.022 64.0259C154.176 62.8766 155.354 61.7744 156.593 60.717C157.116 60.2565 157.607 59.774 158.094 59.2764C158.931 58.4269 159.806 57.6431 160.709 56.8655C161.341 56.3116 161.959 55.7444 162.574 55.173C164.021 53.832 165.493 52.5434 167.032 51.3083C167.666 50.7975 168.292 50.2815 168.915 49.7579C174.664 44.9544 182.106 39.2294 190.033 39.8291C193.614 40.3871 196.395 41.721 199.118 44.0876C199.424 44.3528 199.424 44.3528 199.736 44.6233C201.6 46.361 202.946 48.3958 204.344 50.5059C205.189 51.7744 206.049 53.0316 206.908 54.2904C207.088 54.5553 207.268 54.8202 207.454 55.0932C208.594 56.7648 209.748 58.4245 210.918 60.0749C211.058 60.2727 211.197 60.4705 211.341 60.6742C211.899 61.4647 212.458 62.2526 213.031 63.0326C214.859 65.5929 215.04 68.3447 214.601 71.4133C213.534 76.9697 211.084 82.1321 207.352 86.3891C207.17 86.6146 206.988 86.84 206.801 87.0723C195.731 100.323 172.831 104.977 157.19 110.084C156.497 110.31 155.804 110.536 155.111 110.763C153.073 111.429 151.034 112.094 148.994 112.753C148.151 113.026 147.308 113.301 146.466 113.575C146.071 113.704 145.676 113.831 145.28 113.958C144.739 114.132 144.199 114.308 143.658 114.485C143.354 114.583 143.049 114.682 142.736 114.783C142.011 114.994 142.011 114.994 141.77 115.631C142.12 115.743 142.469 115.855 142.829 115.97C144.52 116.535 146.166 117.204 147.821 117.867C160.919 123.045 174.302 127.381 187.897 131.052C211.304 137.388 211.304 137.388 217.114 147.342C220.652 153.529 222.901 159.932 220.979 167.017C217.925 176.936 210.81 186.647 201.673 191.717C196.811 194.172 191.897 195.114 186.627 193.42C180.734 191.301 174.871 188.322 169.78 184.673C169.3 184.329 168.815 183.994 168.328 183.659C164.895 181.278 161.646 178.639 158.568 175.814C157.976 175.272 157.372 174.745 156.764 174.221C155.864 173.439 155.026 172.615 154.192 171.764C153.707 171.289 153.204 170.858 152.683 170.424C151.324 169.257 150.131 167.936 148.921 166.618C147.943 165.553 146.946 164.515 145.915 163.501C145.055 162.632 144.268 161.7 143.473 160.772C143.222 160.479 142.971 160.186 142.72 159.893C142.292 159.394 141.865 158.895 141.437 158.395C140.365 157.142 139.285 155.895 138.204 154.65C136.098 152.224 134.007 149.788 131.993 147.286C128.407 142.484 128.407 142.484 123.6 139.479C123.944 142.29 124.482 144.99 125.197 147.73C125.25 147.935 125.303 148.141 125.358 148.352C126.434 152.508 127.673 156.613 128.923 160.718C142.809 206.296 142.809 206.296 135.613 220.569C130.745 229.036 118.978 231.946 110.238 234.368C102.9 236.29 95.0579 234.83 88.5217 231.051C82.2264 227.062 78.743 221.035 77.0513 213.889C72.8322 194.329 82.0592 173.409 88.8385 155.439C90.0873 152.126 91.3154 148.807 92.4996 145.471C92.6596 145.021 92.8204 144.571 92.9821 144.121C93.8328 141.751 94.5984 139.434 94.9261 136.924C93.7071 137.575 92.8039 138.42 91.8564 139.408C90.9725 140.324 90.0834 141.206 89.1128 142.031C87.4085 143.504 85.838 145.118 84.2488 146.712C83.6955 147.267 83.1407 147.82 82.5858 148.374C80.2412 150.717 80.2412 150.717 78.0281 153.183C77.2675 154.072 76.4584 154.917 75.6562 155.768C74.575 156.916 73.5075 158.073 72.4612 159.253C70.9818 160.902 69.4251 162.468 67.8566 164.03C67.3685 164.517 66.882 165.005 66.3956 165.493C64.7866 167.103 63.163 168.668 61.4256 170.14C61.0971 170.43 60.7692 170.721 60.4419 171.012C58.0461 173.126 55.5686 175.099 53.0112 177.013C52.5146 177.39 52.0219 177.772 51.5316 178.157C49.1244 180.046 46.6253 181.764 44.072 183.448C43.6561 183.724 43.2402 183.999 42.8243 184.274C41.822 184.937 40.8182 185.597 39.8137 186.257C39.3335 186.572 38.854 186.889 38.3746 187.206C33.8362 190.201 29.9026 192.137 24.3408 191.149C20.3886 190.227 17.0529 188.101 14.0139 185.471C13.8414 185.322 13.669 185.174 13.4914 185.021C6.59084 178.995 0.997102 170.403 0.346338 161.045C0.000224803 154.521 2.32423 149.389 6.6324 144.589C6.86515 144.322 7.09791 144.056 7.33772 143.781C12.7344 137.721 18.8651 132.983 26.2217 129.542C26.5305 129.397 26.5305 129.397 26.8456 129.249C36.5857 124.729 47.0145 122.133 57.4188 119.668C57.617 119.621 57.8152 119.574 58.0195 119.525C60.0222 119.051 62.0252 118.577 64.0301 118.112C69.2571 116.914 69.2571 116.914 74.366 115.302C75.0529 115.063 75.0529 115.063 75.6207 115.063C73.0892 109.858 58.9506 106.663 53.5547 104.788C47.8378 102.824 42.062 101.026 36.3038 99.1876C15.3749 92.503 15.3749 92.503 10.8909 87.8086C10.694 87.6139 10.4972 87.4192 10.2943 87.2186C5.71394 82.4438 4.00414 75.8058 3.79337 69.355C3.78564 69.121 3.77791 68.8871 3.76994 68.646C3.74747 67.865 3.73359 67.0843 3.72239 66.303C3.71629 66.0579 3.71018 65.8129 3.70389 65.5604C3.68577 61.9805 5.01085 59.3837 7.43087 56.8034C7.82424 56.4064 8.22062 56.0124 8.61971 55.6212C8.83156 55.412 9.04341 55.2028 9.26168 54.9873C11.1157 53.1828 13.0487 51.5568 15.1495 50.0496C15.3184 49.9264 15.4873 49.8032 15.6613 49.6763C21.9355 45.1373 29.45 42.7526 37.2151 43.6407C44.1144 44.9318 49.7678 49.539 55.1797 53.7403C55.3542 53.8754 55.5287 54.0104 55.7085 54.1495C58.7283 56.4914 61.6857 58.9056 64.5958 61.3825C65.556 62.1983 66.5287 62.9952 67.5118 63.7834C68.9353 64.9405 70.2778 66.172 71.6116 67.4302C72.4553 68.2254 73.3084 69.0046 74.1835 69.7653C75.3309 70.7633 76.4467 71.7914 77.5548 72.8328C77.7505 73.0162 77.9462 73.1996 78.1478 73.3886C79.5954 74.7513 81.0069 76.1444 82.3956 77.5671C83.0074 78.1966 83.0074 78.1966 83.8539 78.7238C83.8539 78.9111 83.8539 79.0985 83.8539 79.2916C84.1049 79.404 84.1049 79.404 84.3609 79.5188C85.0135 79.8724 85.4407 80.2414 85.9621 80.7665C86.1416 80.9466 86.3211 81.1266 86.5061 81.3121C86.6907 81.5003 86.8753 81.6884 87.0656 81.8822C87.2469 82.0637 87.4282 82.2452 87.6151 82.4322C88.5038 83.329 89.3625 84.2392 90.184 85.1981C91.4918 86.7115 92.9206 88.1049 94.3406 89.512C94.6188 89.7889 94.897 90.0657 95.1751 90.3427C95.8485 91.0128 96.5226 91.6822 97.1973 92.3511C97.316 88.3072 96.2623 84.4692 95.2156 80.5869C95.1309 80.2728 95.0462 79.9587 94.959 79.6351C93.9198 75.8268 92.7745 72.0502 91.6359 68.2708C78.7943 25.6381 78.7943 25.6381 84.4217 14.8457C88.4059 7.81532 97.5249 4.17518 104.941 2.09291C105.894 1.83837 106.85 1.59555 107.808 1.36029C108.103 1.28771 108.399 1.21513 108.703 1.14036C114.928 -0.301425 121.68 2.77342 126.806 6.26287ZM100.534 107.269C98.196 110.54 97.5611 114.473 98.171 118.405C98.9783 121.569 101.296 124.251 104.051 125.94C104.597 126.224 105.144 126.472 105.714 126.703C106.101 126.87 106.101 126.87 106.495 127.04C110.16 127.957 113.54 127.562 116.856 125.763C119.575 124.097 121.723 121.512 122.625 118.406C123.261 114.341 122.799 110.729 120.481 107.287C118.51 104.731 115.724 102.884 112.528 102.288C107.656 101.856 103.675 103.539 100.534 107.269Z" fill="#C87DFF"/>
</svg>
