<svg width="708" height="236" viewBox="0 0 708 236" fill="none" xmlns="http://www.w3.org/2000/svg">
<path d="M272.316 45.9062H290.815V175.81H367.895V192.871H272.316V45.9062Z" fill="#10002B"/>
<path d="M444.165 192.871V178.277H443.753C439.848 183.621 435.532 187.732 430.599 190.815C425.665 193.898 419.499 195.337 411.688 195.337C400.589 195.337 391.956 192.254 385.584 186.088C379.007 179.921 375.924 171.288 375.924 160.189V86.6041H392.573V159.778C392.573 166.766 394.628 172.316 398.739 176.016C402.85 179.716 408.811 181.566 416.416 181.566C420.527 181.566 424.432 180.949 427.926 179.305C431.215 177.866 434.093 175.81 436.559 173.138C439.026 170.466 440.876 167.383 442.109 163.683C443.342 160.189 444.165 156.284 444.165 151.967V86.6041H460.814V192.871H444.165Z" fill="#10002B"/>
<path d="M524.642 195.748C516.625 195.748 509.431 194.309 503.265 191.432C496.893 188.554 491.549 184.443 487.027 179.305C482.505 174.372 479.216 168.411 476.75 161.628C474.283 154.845 473.255 147.651 473.255 139.84C473.255 132.235 474.283 125.041 476.75 118.258C479.216 111.475 482.505 105.514 487.027 100.376C491.549 95.4425 496.893 91.3316 503.265 88.454C509.431 85.5764 516.625 83.932 524.642 83.932C537.18 83.932 547.457 87.4263 555.268 94.0037C563.078 100.581 568.012 109.625 570.067 120.93H553.212C551.979 113.736 548.896 107.981 543.963 103.87C539.03 99.7589 532.658 97.7035 524.642 97.7035C518.886 97.7035 513.953 98.9368 509.637 100.992C505.32 103.253 501.826 106.336 498.949 110.036C496.071 113.942 493.81 118.463 492.371 123.397C490.932 128.535 490.316 134.085 490.316 139.84C490.316 145.801 490.932 151.351 492.371 156.284C493.81 161.422 496.071 165.944 498.949 169.644C501.826 173.344 505.32 176.427 509.637 178.483C513.953 180.744 518.886 181.771 524.642 181.771C533.275 181.771 540.057 179.51 544.991 174.783C549.924 170.261 552.801 163.683 553.623 155.462H570.067C568.834 168.411 564.312 178.277 556.501 185.265C548.485 192.254 537.797 195.748 524.642 195.748Z" fill="#10002B"/>
<path d="M581.692 86.6041H598.341V192.871H581.692V86.6041ZM581.692 45.9062H598.341V66.4607H581.692V45.9062Z" fill="#10002B"/>
<path d="M658.032 195.954C650.632 195.954 644.055 194.721 638.3 192.048C632.544 189.582 627.611 185.882 623.501 180.949C619.39 176.016 616.306 170.261 614.251 163.272C611.99 156.284 610.962 148.679 610.962 140.046C610.962 131.413 611.99 123.397 614.457 116.408C616.923 109.42 620.212 103.664 624.323 98.9368C628.434 94.2092 633.367 90.5094 639.122 88.0429C644.877 85.5764 651.044 84.1375 657.621 84.1375C665.021 84.1375 671.598 85.7819 677.353 89.0706C682.903 92.3593 687.425 96.6758 690.919 101.609H691.33V45.9062H707.979V192.871H691.33V179.921H690.919C686.808 185.265 682.286 189.171 677.148 191.843C671.804 194.721 665.432 195.954 658.032 195.954ZM658.649 181.977C664.404 181.977 669.543 180.949 673.859 178.894C677.97 176.838 681.464 173.755 684.342 170.055C687.014 166.355 689.069 162.039 690.303 156.9C691.536 151.967 692.358 146.418 692.358 140.251C692.358 134.085 691.536 128.535 690.097 123.397C688.658 118.258 686.603 113.736 683.725 110.036C680.847 106.336 677.148 103.459 673.037 101.403C668.72 99.3478 663.787 98.3201 658.443 98.3201C653.305 98.3201 648.783 99.5534 645.083 101.609C641.383 103.664 638.094 106.747 635.628 110.447C633.161 114.147 631.106 118.669 629.872 123.808C628.639 128.946 628.023 134.496 628.023 140.251C628.023 146.418 628.639 151.967 629.872 156.9C631.106 162.039 633.161 166.355 635.628 170.055C638.094 173.755 641.383 176.838 645.288 178.894C648.988 180.949 653.51 181.977 658.649 181.977Z" fill="#10002B"/>
<path d="M127.251 6.2453C131.199 9.09142 133.603 12.7894 134.435 17.6099C134.653 19.3338 134.648 21.0599 134.639 22.7951C134.638 22.9962 134.638 23.1973 134.637 23.4045C134.604 32.4045 133.396 41.3587 131.691 50.1828C131.649 50.401 131.607 50.6192 131.563 50.844C130.591 55.8437 129.389 60.7806 128.153 65.7205C127.649 67.7334 127.148 69.7469 126.652 71.7616C126.599 71.9761 126.546 72.1905 126.492 72.4114C124.491 79.9441 124.491 79.9441 123.734 87.6491C123.735 87.9647 123.735 87.9647 123.737 88.2868C123.739 88.4979 123.741 88.7091 123.744 88.9267C123.746 89.2566 123.746 89.2566 123.748 89.5932C123.751 90.1281 123.756 90.663 123.762 91.1979C126.809 90.7509 129.127 88.26 131.266 86.2176C131.757 85.7611 132.262 85.3244 132.77 84.8871C133.911 83.8917 134.991 82.8488 136.059 81.777C136.247 81.5898 136.434 81.4027 136.627 81.2099C137.02 80.8173 137.412 80.4243 137.805 80.0311C138.399 79.4351 138.995 78.8408 139.591 78.2465C139.975 77.8619 140.36 77.4773 140.744 77.0926C141.006 76.8308 141.006 76.8307 141.274 76.5636C142.132 75.7011 142.959 74.8245 143.754 73.9031C144.842 72.6445 146.005 71.4692 147.183 70.2944C147.407 70.0692 147.632 69.844 147.864 69.6119C148.337 69.139 148.81 68.6664 149.284 68.1941C150.003 67.4763 150.721 66.757 151.438 66.0376C151.9 65.5756 152.363 65.1137 152.825 64.6519C153.037 64.4395 153.249 64.2271 153.467 64.0083C154.621 62.859 155.799 61.7568 157.038 60.6995C157.562 60.2389 158.052 59.7565 158.54 59.2588C159.376 58.4093 160.252 57.6255 161.155 56.8479C161.786 56.294 162.404 55.7268 163.02 55.1554C164.466 53.8144 165.938 52.5259 167.477 51.2907C168.111 50.7799 168.737 50.2639 169.36 49.7403C175.11 44.9368 182.552 39.2118 190.479 39.8115C194.059 40.3695 196.84 41.7034 199.564 44.07C199.869 44.3352 199.869 44.3352 200.181 44.6057C202.045 46.3434 203.391 48.3782 204.79 50.4884C205.634 51.7568 206.495 53.014 207.353 54.2728C207.534 54.5377 207.714 54.8026 207.899 55.0756C209.039 56.7472 210.193 58.407 211.363 60.0573C211.503 60.2551 211.642 60.4529 211.786 60.6567C212.344 61.4471 212.904 62.235 213.476 63.015C215.305 65.5753 215.485 68.3271 215.046 71.3957C213.979 76.9521 211.529 82.1145 207.797 86.3715C207.615 86.597 207.434 86.8224 207.247 87.0547C196.176 100.306 173.276 104.96 157.636 110.066C156.942 110.292 156.249 110.519 155.556 110.745C153.518 111.412 151.48 112.077 149.439 112.736C148.596 113.009 147.754 113.283 146.911 113.558C146.516 113.686 146.121 113.814 145.726 113.941C145.184 114.114 144.644 114.291 144.103 114.467C143.799 114.566 143.495 114.664 143.181 114.766C142.456 114.976 142.456 114.976 142.215 115.614C142.565 115.725 142.914 115.837 143.274 115.953C144.966 116.517 146.612 117.187 148.266 117.849C161.364 123.027 174.748 127.363 188.342 131.034C211.75 137.371 211.75 137.371 217.56 147.324C221.097 153.511 223.347 159.914 221.424 167C218.371 176.918 211.256 186.629 202.119 191.699C197.256 194.155 192.342 195.096 187.072 193.403C181.18 191.284 175.316 188.305 170.226 184.655C169.745 184.312 169.26 183.976 168.774 183.641C165.34 181.26 162.091 178.622 159.013 175.796C158.421 175.254 157.818 174.728 157.209 174.204C156.31 173.422 155.471 172.597 154.637 171.746C154.153 171.271 153.649 170.841 153.128 170.407C151.769 169.239 150.576 167.919 149.366 166.601C148.388 165.536 147.391 164.498 146.36 163.484C145.5 162.615 144.713 161.683 143.919 160.754C143.668 160.461 143.417 160.168 143.166 159.876C142.738 159.376 142.31 158.877 141.883 158.377C140.81 157.124 139.731 155.877 138.649 154.632C136.543 152.207 134.453 149.771 132.438 147.269C128.853 142.466 128.853 142.466 124.046 139.461C124.39 142.272 124.927 144.972 125.643 147.712C125.696 147.918 125.749 148.123 125.803 148.335C126.879 152.49 128.118 156.595 129.369 160.701C143.254 206.278 143.254 206.278 136.058 220.551C131.19 229.019 119.423 231.928 110.684 234.351C103.345 236.272 95.5033 234.813 88.967 231.033C82.6717 227.045 79.1883 221.018 77.4966 213.872C73.2775 194.312 82.5045 173.392 89.2838 155.421C90.5326 152.109 91.7608 148.79 92.9449 145.453C93.1049 145.003 93.2657 144.553 93.4274 144.104C94.2781 141.733 95.0437 139.416 95.3714 136.906C94.1524 137.557 93.2492 138.402 92.3017 139.39C91.4178 140.306 90.5287 141.189 89.5581 142.013C87.8539 143.486 86.2833 145.1 84.6941 146.695C84.1408 147.25 83.586 147.803 83.0311 148.356C80.6866 150.699 80.6866 150.699 78.4735 153.166C77.7128 154.054 76.9037 154.899 76.1015 155.75C75.0203 156.899 73.9528 158.055 72.9065 159.236C71.4271 160.884 69.8705 162.45 68.3019 164.013C67.8138 164.499 67.3273 164.987 66.8409 165.476C65.2319 167.086 63.6083 168.65 61.8709 170.123C61.5424 170.413 61.2145 170.703 60.8872 170.994C58.4914 173.108 56.0139 175.081 53.4566 176.996C52.9599 177.372 52.4673 177.755 51.9769 178.139C49.5697 180.028 47.0706 181.746 44.5174 183.431C44.1014 183.706 43.6855 183.981 43.2696 184.257C42.2673 184.919 41.2635 185.58 40.259 186.239C39.7788 186.555 39.2993 186.872 38.8199 187.189C34.2815 190.183 30.3479 192.12 24.7861 191.132C20.8339 190.209 17.4982 188.084 14.4592 185.454C14.2868 185.305 14.1143 185.156 13.9367 185.003C7.03615 178.978 1.44241 170.385 0.79165 161.028C0.445537 154.504 2.76954 149.372 7.07771 144.572C7.31046 144.305 7.54322 144.038 7.78303 143.763C13.1797 137.704 19.3104 132.966 26.667 129.525C26.9758 129.379 26.9758 129.379 27.2909 129.231C37.031 124.712 47.4598 122.116 57.8641 119.65C58.0623 119.603 58.2605 119.556 58.4648 119.508C60.4675 119.033 62.4705 118.56 64.4754 118.094C69.7024 116.897 69.7024 116.897 74.8113 115.284C75.4982 115.046 75.4982 115.046 76.066 115.046C73.5345 109.84 59.3959 106.646 54 104.771C48.2831 102.807 42.5073 101.009 36.7491 99.17C15.8202 92.4855 15.8202 92.4855 11.3362 87.7911C11.1394 87.5964 10.9425 87.4017 10.7396 87.2011C6.15925 82.4262 4.44945 75.7882 4.23868 69.3374C4.23095 69.1034 4.22322 68.8695 4.21525 68.6285C4.19278 67.8474 4.17891 67.0667 4.16771 66.2854C4.1616 66.0404 4.15549 65.7953 4.1492 65.5428C4.13108 61.9629 5.45616 59.3661 7.87618 56.7858C8.26955 56.3888 8.66593 55.9948 9.06503 55.6036C9.27688 55.3944 9.48873 55.1852 9.707 54.9697C11.561 53.1653 13.494 51.5392 15.5948 50.032C15.7637 49.9088 15.9326 49.7856 16.1066 49.6587C22.3808 45.1197 29.8953 42.735 37.6604 43.6231C44.5597 44.9143 50.2131 49.5214 55.625 53.7227C55.7995 53.8578 55.974 53.9928 56.1538 54.132C59.1737 56.4739 62.131 58.888 65.0411 61.365C66.0013 62.1808 66.974 62.9776 67.9571 63.7658C69.3806 64.923 70.7231 66.1544 72.057 67.4126C72.9006 68.2078 73.7537 68.9871 74.6288 69.7477C75.7762 70.7457 76.892 71.7739 78.0001 72.8152C78.1958 72.9986 78.3915 73.182 78.5931 73.371C80.0407 74.7338 81.4522 76.1268 82.8409 77.5495C83.4527 78.179 83.4527 78.179 84.2992 78.7062C84.2992 78.8935 84.2992 79.0809 84.2992 79.274C84.5502 79.3864 84.5502 79.3864 84.8062 79.5012C85.4588 79.8548 85.8861 80.2238 86.4074 80.7489C86.5869 80.929 86.7664 81.1091 86.9514 81.2946C87.136 81.4827 87.3206 81.6708 87.5109 81.8646C87.6922 82.0461 87.8735 82.2276 88.0604 82.4146C88.9491 83.3115 89.8078 84.2217 90.6294 85.1805C91.9372 86.694 93.3659 88.0873 94.7859 89.4945C95.0641 89.7713 95.3423 90.0482 95.6204 90.3251C96.2938 90.9952 96.9679 91.6647 97.6426 92.3335C97.7614 88.2897 96.7076 84.4516 95.6609 80.5693C95.5762 80.2552 95.4915 79.9411 95.4043 79.6175C94.3651 75.8092 93.2198 72.0327 92.0812 68.2532C79.2396 25.6205 79.2396 25.6205 84.867 14.8281C88.8512 7.79775 97.9703 4.1576 105.386 2.07534C106.34 1.82079 107.295 1.57797 108.253 1.34271C108.549 1.27013 108.844 1.19755 109.148 1.12278C115.374 -0.319004 122.125 2.75584 127.251 6.2453ZM100.98 107.252C98.6413 110.522 98.0064 114.456 98.6163 118.387C99.4236 121.552 101.742 124.234 104.496 125.923C105.043 126.206 105.59 126.454 106.16 126.686C106.546 126.853 106.546 126.853 106.94 127.023C110.606 127.939 113.985 127.544 117.302 125.745C120.02 124.079 122.168 121.494 123.071 118.388C123.706 114.323 123.245 110.711 120.926 107.269C118.955 104.713 116.17 102.866 112.973 102.27C108.101 101.838 104.12 103.521 100.98 107.252Z" fill="#10002B"/>
</svg>
