<svg width="708" height="236" viewBox="0 0 708 236" fill="none" xmlns="http://www.w3.org/2000/svg">
<path d="M272.316 46.0049H290.815V175.909H367.895V192.969H272.316V46.0049Z" fill="#9D4EDD"/>
<path d="M444.165 192.969V178.376H443.753C439.848 183.72 435.532 187.831 430.599 190.914C425.665 193.997 419.499 195.436 411.688 195.436C400.589 195.436 391.956 192.353 385.584 186.186C379.007 180.02 375.924 171.387 375.924 160.288V86.7027H392.573V159.877C392.573 166.865 394.628 172.415 398.739 176.115C402.85 179.814 408.811 181.664 416.416 181.664C420.527 181.664 424.432 181.048 427.926 179.403C431.215 177.965 434.093 175.909 436.559 173.237C439.026 170.565 440.876 167.482 442.109 163.782C443.342 160.288 444.165 156.382 444.165 152.066V86.7027H460.814V192.969H444.165Z" fill="#9D4EDD"/>
<path d="M524.642 195.847C516.625 195.847 509.431 194.408 503.265 191.53C496.893 188.653 491.549 184.542 487.027 179.403C482.505 174.47 479.216 168.509 476.75 161.726C474.283 154.944 473.255 147.749 473.255 139.939C473.255 132.334 474.283 125.14 476.75 118.357C479.216 111.574 482.505 105.613 487.027 100.474C491.549 95.5411 496.893 91.4302 503.265 88.5526C509.431 85.675 516.625 84.0306 524.642 84.0306C537.18 84.0306 547.457 87.5249 555.268 94.1023C563.078 100.68 568.012 109.724 570.067 121.029H553.212C551.979 113.835 548.896 108.079 543.963 103.968C539.03 99.8576 532.658 97.8021 524.642 97.8021C518.886 97.8021 513.953 99.0354 509.637 101.091C505.32 103.352 501.826 106.435 498.949 110.135C496.071 114.04 493.81 118.562 492.371 123.495C490.932 128.634 490.316 134.184 490.316 139.939C490.316 145.9 490.932 151.449 492.371 156.382C493.81 161.521 496.071 166.043 498.949 169.743C501.826 173.443 505.32 176.526 509.637 178.581C513.953 180.842 518.886 181.87 524.642 181.87C533.275 181.87 540.057 179.609 544.991 174.881C549.924 170.359 552.801 163.782 553.623 155.56H570.067C568.834 168.509 564.312 178.376 556.501 185.364C548.485 192.353 537.797 195.847 524.642 195.847Z" fill="#9D4EDD"/>
<path d="M581.692 86.7027H598.341V192.969H581.692V86.7027ZM581.692 46.0049H598.341V66.5593H581.692V46.0049Z" fill="#9D4EDD"/>
<path d="M658.032 196.052C650.632 196.052 644.055 194.819 638.3 192.147C632.544 189.681 627.611 185.981 623.501 181.048C619.39 176.115 616.306 170.359 614.251 163.371C611.99 156.382 610.962 148.777 610.962 140.144C610.962 131.511 611.99 123.495 614.457 116.507C616.923 109.518 620.212 103.763 624.323 99.0354C628.434 94.3079 633.367 90.6081 639.122 88.1415C644.877 85.675 651.044 84.2362 657.621 84.2362C665.021 84.2362 671.598 85.8805 677.353 89.1693C682.903 92.458 687.425 96.7744 690.919 101.707H691.33V46.0049H707.979V192.969H691.33V180.02H690.919C686.808 185.364 682.286 189.269 677.148 191.942C671.804 194.819 665.432 196.052 658.032 196.052ZM658.649 182.075C664.404 182.075 669.543 181.048 673.859 178.992C677.97 176.937 681.464 173.854 684.342 170.154C687.014 166.454 689.069 162.138 690.303 156.999C691.536 152.066 692.358 146.516 692.358 140.35C692.358 134.184 691.536 128.634 690.097 123.495C688.658 118.357 686.603 113.835 683.725 110.135C680.847 106.435 677.148 103.557 673.037 101.502C668.72 99.4465 663.787 98.4188 658.443 98.4188C653.305 98.4188 648.783 99.652 645.083 101.707C641.383 103.763 638.094 106.846 635.628 110.546C633.161 114.246 631.106 118.768 629.872 123.906C628.639 129.045 628.023 134.595 628.023 140.35C628.023 146.516 628.639 152.066 629.872 156.999C631.106 162.138 633.161 166.454 635.628 170.154C638.094 173.854 641.383 176.937 645.288 178.992C648.988 181.048 653.51 182.075 658.649 182.075Z" fill="#9D4EDD"/>
<path d="M127.251 6.34393C131.199 9.19005 133.603 12.888 134.435 17.7086C134.653 19.4325 134.648 21.1586 134.639 22.8937C134.638 23.0948 134.638 23.2959 134.637 23.5031C134.604 32.5031 133.396 41.4573 131.691 50.2815C131.649 50.4996 131.607 50.7178 131.563 50.9426C130.591 55.9424 129.389 60.8792 128.153 65.8191C127.649 67.832 127.148 69.8455 126.652 71.8603C126.599 72.0747 126.546 72.2891 126.492 72.51C124.491 80.0428 124.491 80.0428 123.734 87.7477C123.735 88.0634 123.735 88.0634 123.737 88.3854C123.739 88.5966 123.741 88.8077 123.744 89.0253C123.746 89.3552 123.746 89.3552 123.748 89.6918C123.751 90.2267 123.756 90.7616 123.762 91.2965C126.809 90.8495 129.127 88.3586 131.266 86.3162C131.757 85.8598 132.262 85.423 132.77 84.9857C133.911 83.9903 134.991 82.9474 136.059 81.8756C136.247 81.6885 136.434 81.5013 136.627 81.3085C137.02 80.9159 137.412 80.523 137.805 80.1297C138.399 79.5338 138.995 78.9394 139.591 78.3451C139.975 77.9606 140.36 77.5759 140.744 77.1912C141.006 76.9294 141.006 76.9294 141.274 76.6623C142.132 75.7997 142.959 74.9232 143.754 74.0017C144.842 72.7432 146.005 71.5678 147.183 70.3931C147.407 70.1678 147.632 69.9426 147.864 69.7106C148.337 69.2376 148.81 68.765 149.284 68.2927C150.003 67.5749 150.721 66.8556 151.438 66.1362C151.9 65.6742 152.363 65.2123 152.825 64.7505C153.037 64.5381 153.249 64.3257 153.467 64.1069C154.621 62.9577 155.799 61.8554 157.038 60.7981C157.562 60.3375 158.052 59.8551 158.54 59.3575C159.376 58.5079 160.252 57.7241 161.155 56.9465C161.786 56.3926 162.404 55.8255 163.02 55.2541C164.466 53.913 165.938 52.6245 167.477 51.3893C168.111 50.8786 168.737 50.3625 169.36 49.839C175.11 45.0354 182.552 39.3104 190.479 39.9101C194.059 40.4681 196.84 41.8021 199.564 44.1687C199.869 44.4338 199.869 44.4338 200.181 44.7043C202.045 46.442 203.391 48.4768 204.79 50.587C205.634 51.8555 206.495 53.1127 207.353 54.3714C207.534 54.6363 207.714 54.9013 207.899 55.1742C209.039 56.8459 210.193 58.5056 211.363 60.1559C211.503 60.3537 211.642 60.5515 211.786 60.7553C212.344 61.5458 212.904 62.3337 213.476 63.1136C215.305 65.6739 215.485 68.4258 215.046 71.4943C213.979 77.0507 211.529 82.2131 207.797 86.4702C207.615 86.6956 207.434 86.921 207.247 87.1533C196.176 100.404 173.276 105.058 157.636 110.165C156.942 110.391 156.249 110.618 155.556 110.844C153.518 111.51 151.48 112.175 149.439 112.834C148.596 113.107 147.754 113.382 146.911 113.656C146.516 113.785 146.121 113.912 145.726 114.039C145.184 114.213 144.644 114.389 144.103 114.566C143.799 114.665 143.495 114.763 143.181 114.864C142.456 115.075 142.456 115.075 142.215 115.712C142.565 115.824 142.914 115.936 143.274 116.051C144.966 116.616 146.612 117.285 148.266 117.948C161.364 123.126 174.748 127.462 188.342 131.133C211.75 137.469 211.75 137.469 217.56 147.423C221.097 153.61 223.347 160.013 221.424 167.099C218.371 177.017 211.256 186.728 202.119 191.798C197.256 194.253 192.342 195.195 187.072 193.501C181.18 191.382 175.316 188.403 170.226 184.754C169.745 184.41 169.26 184.075 168.774 183.74C165.34 181.359 162.091 178.72 159.013 175.895C158.421 175.353 157.818 174.827 157.209 174.303C156.31 173.521 155.471 172.696 154.637 171.845C154.153 171.37 153.649 170.939 153.128 170.505C151.769 169.338 150.576 168.017 149.366 166.699C148.388 165.634 147.391 164.596 146.36 163.583C145.5 162.714 144.713 161.781 143.919 160.853C143.668 160.56 143.417 160.267 143.166 159.974C142.738 159.475 142.31 158.976 141.883 158.476C140.81 157.223 139.731 155.976 138.649 154.731C136.543 152.305 134.453 149.87 132.438 147.367C128.853 142.565 128.853 142.565 124.046 139.56C124.39 142.371 124.927 145.071 125.643 147.811C125.696 148.016 125.749 148.222 125.803 148.433C126.879 152.589 128.118 156.694 129.369 160.799C143.254 206.377 143.254 206.377 136.058 220.65C131.19 229.117 119.423 232.027 110.684 234.449C103.345 236.371 95.5033 234.911 88.967 231.132C82.6717 227.143 79.1883 221.116 77.4966 213.97C73.2775 194.41 82.5045 173.49 89.2838 155.52C90.5326 152.207 91.7608 148.888 92.9449 145.552C93.1049 145.102 93.2657 144.652 93.4274 144.202C94.2781 141.832 95.0437 139.515 95.3714 137.005C94.1524 137.656 93.2492 138.501 92.3017 139.489C91.4178 140.405 90.5287 141.288 89.5581 142.112C87.8539 143.585 86.2833 145.199 84.6941 146.793C84.1408 147.348 83.586 147.902 83.0311 148.455C80.6866 150.798 80.6866 150.798 78.4735 153.264C77.7128 154.153 76.9037 154.998 76.1015 155.849C75.0203 156.997 73.9528 158.154 72.9065 159.334C71.4271 160.983 69.8705 162.549 68.3019 164.111C67.8138 164.598 67.3273 165.086 66.8409 165.574C65.2319 167.184 63.6083 168.749 61.8709 170.221C61.5424 170.511 61.2145 170.802 60.8872 171.093C58.4914 173.207 56.0139 175.18 53.4566 177.094C52.9599 177.471 52.4673 177.853 51.9769 178.238C49.5697 180.127 47.0706 181.845 44.5174 183.529C44.1014 183.805 43.6855 184.08 43.2696 184.355C42.2673 185.018 41.2635 185.678 40.259 186.338C39.7788 186.653 39.2993 186.97 38.8199 187.287C34.2815 190.282 30.3479 192.218 24.7861 191.23C20.8339 190.308 17.4982 188.182 14.4592 185.552C14.2868 185.404 14.1143 185.255 13.9367 185.102C7.03615 179.076 1.44241 170.484 0.79165 161.126C0.445537 154.603 2.76954 149.471 7.07771 144.67C7.31046 144.403 7.54322 144.137 7.78303 143.862C13.1797 137.802 19.3104 133.064 26.667 129.623C26.9758 129.478 26.9758 129.478 27.2909 129.33C37.031 124.81 47.4598 122.214 57.8641 119.749C58.0623 119.702 58.2605 119.655 58.4648 119.606C60.4675 119.132 62.4705 118.658 64.4754 118.193C69.7024 116.995 69.7024 116.995 74.8113 115.383C75.4982 115.144 75.4982 115.144 76.066 115.144C73.5345 109.939 59.3959 106.745 54 104.87C48.2831 102.905 42.5073 101.108 36.7491 99.2687C15.8202 92.5841 15.8202 92.5841 11.3362 87.8897C11.1394 87.695 10.9425 87.5003 10.7396 87.2997C6.15925 82.5248 4.44945 75.8869 4.23868 69.436C4.23095 69.2021 4.22322 68.9681 4.21525 68.7271C4.19278 67.9461 4.17891 67.1653 4.16771 66.3841C4.1616 66.139 4.15549 65.8939 4.1492 65.6414C4.13108 62.0616 5.45616 59.4647 7.87618 56.8844C8.26955 56.4874 8.66593 56.0934 9.06503 55.7022C9.27688 55.4931 9.48873 55.2839 9.707 55.0684C11.561 53.2639 13.494 51.6379 15.5948 50.1306C15.7637 50.0074 15.9326 49.8842 16.1066 49.7573C22.3808 45.2183 29.8953 42.8336 37.6604 43.7218C44.5597 45.0129 50.2131 49.6201 55.625 53.8214C55.7995 53.9564 55.974 54.0915 56.1538 54.2306C59.1737 56.5725 62.131 58.9867 65.0411 61.4636C66.0013 62.2794 66.974 63.0762 67.9571 63.8644C69.3806 65.0216 70.7231 66.253 72.057 67.5112C72.9006 68.3065 73.7537 69.0857 74.6288 69.8463C75.7762 70.8443 76.892 71.8725 78.0001 72.9138C78.1958 73.0972 78.3915 73.2807 78.5931 73.4696C80.0407 74.8324 81.4522 76.2255 82.8409 77.6481C83.4527 78.2777 83.4527 78.2777 84.2992 78.8048C84.2992 78.9922 84.2992 79.1796 84.2992 79.3726C84.5502 79.4851 84.5502 79.4851 84.8062 79.5998C85.4588 79.9534 85.8861 80.3224 86.4074 80.8476C86.5869 81.0276 86.7664 81.2077 86.9514 81.3932C87.136 81.5813 87.3206 81.7694 87.5109 81.9632C87.6922 82.1447 87.8735 82.3263 88.0604 82.5133C88.9491 83.4101 89.8078 84.3203 90.6294 85.2791C91.9372 86.7926 93.3659 88.186 94.7859 89.5931C95.0641 89.8699 95.3423 90.1468 95.6204 90.4237C96.2938 91.0939 96.9679 91.7633 97.6426 92.4321C97.7614 88.3883 96.7076 84.5502 95.6609 80.6679C95.5762 80.3538 95.4915 80.0397 95.4043 79.7161C94.3651 75.9079 93.2198 72.1313 92.0812 68.3519C79.2396 25.7192 79.2396 25.7192 84.867 14.9267C88.8512 7.89638 97.9703 4.25624 105.386 2.17397C106.34 1.91943 107.295 1.67661 108.253 1.44134C108.549 1.36876 108.844 1.29619 109.148 1.22141C115.374 -0.220371 122.125 2.85448 127.251 6.34393ZM100.98 107.35C98.6413 110.621 98.0064 114.554 98.6163 118.486C99.4236 121.65 101.742 124.332 104.496 126.021C105.043 126.305 105.59 126.553 106.16 126.784C106.546 126.951 106.546 126.951 106.94 127.121C110.606 128.038 113.985 127.643 117.302 125.844C120.02 124.178 122.168 121.593 123.071 118.487C123.706 114.422 123.245 110.81 120.926 107.368C118.955 104.812 116.17 102.965 112.973 102.369C108.101 101.937 104.12 103.62 100.98 107.35Z" fill="#9D4EDD"/>
</svg>
