<svg width="708" height="235" viewBox="0 0 708 235" fill="none" xmlns="http://www.w3.org/2000/svg">
<path d="M272.316 45.2998H290.815V175.204H367.895V192.264H272.316V45.2998Z" fill="#C87DFF"/>
<path d="M444.165 192.264V177.671H443.753C439.848 183.015 435.532 187.126 430.599 190.209C425.665 193.292 419.499 194.731 411.688 194.731C400.589 194.731 391.956 191.648 385.584 185.481C379.007 179.315 375.924 170.682 375.924 159.583V85.9976H392.573V159.172C392.573 166.16 394.628 171.71 398.739 175.41C402.85 179.109 408.811 180.959 416.416 180.959C420.527 180.959 424.432 180.343 427.926 178.698C431.215 177.259 434.093 175.204 436.559 172.532C439.026 169.86 440.876 166.777 442.109 163.077C443.342 159.583 444.165 155.677 444.165 151.361V85.9976H460.814V192.264H444.165Z" fill="#C87DFF"/>
<path d="M524.642 195.142C516.625 195.142 509.431 193.703 503.265 190.825C496.893 187.948 491.549 183.837 487.027 178.698C482.505 173.765 479.216 167.804 476.75 161.021C474.283 154.238 473.255 147.044 473.255 139.234C473.255 131.629 474.283 124.434 476.75 117.652C479.216 110.869 482.505 104.908 487.027 99.7691C491.549 94.836 496.893 90.7252 503.265 87.8475C509.431 84.9699 516.625 83.3256 524.642 83.3256C537.18 83.3256 547.457 86.8198 555.268 93.3972C563.078 99.9747 568.012 109.019 570.067 120.324H553.212C551.979 113.13 548.896 107.374 543.963 103.263C539.03 99.1525 532.658 97.097 524.642 97.097C518.886 97.097 513.953 98.3303 509.637 100.386C505.32 102.647 501.826 105.73 498.949 109.43C496.071 113.335 493.81 117.857 492.371 122.79C490.932 127.929 490.316 133.478 490.316 139.234C490.316 145.194 490.932 150.744 492.371 155.677C493.81 160.816 496.071 165.338 498.949 169.038C501.826 172.737 505.32 175.821 509.637 177.876C513.953 180.137 518.886 181.165 524.642 181.165C533.275 181.165 540.057 178.904 544.991 174.176C549.924 169.654 552.801 163.077 553.623 154.855H570.067C568.834 167.804 564.312 177.671 556.501 184.659C548.485 191.648 537.797 195.142 524.642 195.142Z" fill="#C87DFF"/>
<path d="M581.692 85.9976H598.341V192.264H581.692V85.9976ZM581.692 45.2998H598.341V65.8543H581.692V45.2998Z" fill="#C87DFF"/>
<path d="M658.032 195.347C650.632 195.347 644.055 194.114 638.3 191.442C632.544 188.975 627.611 185.276 623.501 180.343C619.39 175.41 616.306 169.654 614.251 162.666C611.99 155.677 610.962 148.072 610.962 139.439C610.962 130.806 611.99 122.79 614.457 115.802C616.923 108.813 620.212 103.058 624.323 98.3303C628.434 93.6028 633.367 89.903 639.122 87.4364C644.877 84.9699 651.044 83.5311 657.621 83.5311C665.021 83.5311 671.598 85.1755 677.353 88.4642C682.903 91.7529 687.425 96.0693 690.919 101.002H691.33V45.2998H707.979V192.264H691.33V179.315H690.919C686.808 184.659 682.286 188.564 677.148 191.236C671.804 194.114 665.432 195.347 658.032 195.347ZM658.649 181.37C664.404 181.37 669.543 180.343 673.859 178.287C677.97 176.232 681.464 173.149 684.342 169.449C687.014 165.749 689.069 161.433 690.303 156.294C691.536 151.361 692.358 145.811 692.358 139.645C692.358 133.478 691.536 127.929 690.097 122.79C688.658 117.652 686.603 113.13 683.725 109.43C680.847 105.73 677.148 102.852 673.037 100.797C668.72 98.7414 663.787 97.7137 658.443 97.7137C653.305 97.7137 648.783 98.9469 645.083 101.002C641.383 103.058 638.094 106.141 635.628 109.841C633.161 113.541 631.106 118.063 629.872 123.201C628.639 128.34 628.023 133.89 628.023 139.645C628.023 145.811 628.639 151.361 629.872 156.294C631.106 161.433 633.161 165.749 635.628 169.449C638.094 173.149 641.383 176.232 645.288 178.287C648.988 180.343 653.51 181.37 658.649 181.37Z" fill="#C87DFF"/>
<path d="M127.251 5.63885C131.199 8.48497 133.603 12.183 134.435 17.0035C134.653 18.7274 134.648 20.4535 134.639 22.1887C134.638 22.3898 134.638 22.5909 134.637 22.7981C134.604 31.798 133.396 40.7523 131.691 49.5764C131.649 49.7946 131.607 50.0128 131.563 50.2376C130.591 55.2373 129.389 60.1741 128.153 65.114C127.649 67.1269 127.148 69.1405 126.652 71.1552C126.599 71.3696 126.546 71.584 126.492 71.805C124.491 79.3377 124.491 79.3377 123.734 87.0427C123.735 87.3583 123.735 87.3583 123.737 87.6803C123.739 87.8915 123.741 88.1027 123.744 88.3202C123.746 88.6501 123.746 88.6501 123.748 88.9867C123.751 89.5216 123.756 90.0565 123.762 90.5914C126.809 90.1444 129.127 87.6536 131.266 85.6111C131.757 85.1547 132.262 84.7179 132.77 84.2806C133.911 83.2852 134.991 82.2423 136.059 81.1705C136.247 80.9834 136.434 80.7962 136.627 80.6034C137.02 80.2108 137.412 79.8179 137.805 79.4246C138.399 78.8287 138.995 78.2343 139.591 77.64C139.975 77.2555 140.36 76.8709 140.744 76.4861C141.006 76.2243 141.006 76.2243 141.274 75.9572C142.132 75.0946 142.959 74.2181 143.754 73.2967C144.842 72.0381 146.005 70.8627 147.183 69.688C147.407 69.4628 147.632 69.2375 147.864 69.0055C148.337 68.5325 148.81 68.0599 149.284 67.5876C150.003 66.8699 150.721 66.1506 151.438 65.4311C151.9 64.9691 152.363 64.5072 152.825 64.0454C153.037 63.833 153.249 63.6207 153.467 63.4018C154.621 62.2526 155.799 61.1504 157.038 60.093C157.562 59.6324 158.052 59.15 158.54 58.6524C159.376 57.8029 160.252 57.019 161.155 56.2414C161.786 55.6875 162.404 55.1204 163.02 54.549C164.466 53.208 165.938 51.9194 167.477 50.6843C168.111 50.1735 168.737 49.6574 169.36 49.1339C175.11 44.3304 182.552 38.6054 190.479 39.2051C194.059 39.763 196.84 41.097 199.564 43.4636C199.869 43.7287 199.869 43.7287 200.181 43.9992C202.045 45.7369 203.391 47.7717 204.79 49.8819C205.634 51.1504 206.495 52.4076 207.353 53.6664C207.534 53.9313 207.714 54.1962 207.899 54.4691C209.039 56.1408 210.193 57.8005 211.363 59.4509C211.503 59.6487 211.642 59.8464 211.786 60.0502C212.344 60.8407 212.904 61.6286 213.476 62.4086C215.305 64.9689 215.485 67.7207 215.046 70.7892C213.979 76.3456 211.529 81.5081 207.797 85.7651C207.615 85.9905 207.434 86.216 207.247 86.4482C196.176 99.6993 173.276 104.353 157.636 109.46C156.942 109.686 156.249 109.912 155.556 110.139C153.518 110.805 151.48 111.47 149.439 112.129C148.596 112.402 147.754 112.677 146.911 112.951C146.516 113.08 146.121 113.207 145.726 113.334C145.184 113.508 144.644 113.684 144.103 113.861C143.799 113.959 143.495 114.058 143.181 114.159C142.456 114.37 142.456 114.37 142.215 115.007C142.565 115.119 142.914 115.231 143.274 115.346C144.966 115.911 146.612 116.58 148.266 117.243C161.364 122.421 174.748 126.757 188.342 130.428C211.75 136.764 211.75 136.764 217.56 146.718C221.097 152.905 223.347 159.308 221.424 166.393C218.371 176.312 211.256 186.023 202.119 191.093C197.256 193.548 192.342 194.49 187.072 192.796C181.18 190.677 175.316 187.698 170.226 184.049C169.745 183.705 169.26 183.37 168.774 183.035C165.34 180.654 162.091 178.015 159.013 175.19C158.421 174.648 157.818 174.121 157.209 173.597C156.31 172.815 155.471 171.991 154.637 171.14C154.153 170.665 153.649 170.234 153.128 169.8C151.769 168.632 150.576 167.312 149.366 165.994C148.388 164.929 147.391 163.891 146.36 162.877C145.5 162.008 144.713 161.076 143.919 160.148C143.668 159.855 143.417 159.562 143.166 159.269C142.738 158.77 142.31 158.271 141.883 157.771C140.81 156.518 139.731 155.271 138.649 154.026C136.543 151.6 134.453 149.164 132.438 146.662C128.853 141.86 128.853 141.86 124.046 138.855C124.39 141.666 124.927 144.366 125.643 147.106C125.696 147.311 125.749 147.517 125.803 147.728C126.879 151.884 128.118 155.989 129.369 160.094C143.254 205.672 143.254 205.672 136.058 219.945C131.19 228.412 119.423 231.322 110.684 233.744C103.345 235.666 95.5033 234.206 88.967 230.427C82.6717 226.438 79.1883 220.411 77.4966 213.265C73.2775 193.705 82.5045 172.785 89.2838 154.815C90.5326 151.502 91.7608 148.183 92.9449 144.847C93.1049 144.397 93.2657 143.947 93.4274 143.497C94.2781 141.127 95.0437 138.81 95.3714 136.3C94.1524 136.95 93.2492 137.796 92.3017 138.784C91.4178 139.7 90.5287 140.582 89.5581 141.407C87.8539 142.88 86.2833 144.494 84.6941 146.088C84.1408 146.643 83.586 147.196 83.0311 147.75C80.6866 150.093 80.6866 150.093 78.4735 152.559C77.7128 153.448 76.9037 154.292 76.1015 155.144C75.0203 156.292 73.9528 157.449 72.9065 158.629C71.4271 160.278 69.8705 161.844 68.3019 163.406C67.8138 163.893 67.3273 164.381 66.8409 164.869C65.2319 166.479 63.6083 168.044 61.8709 169.516C61.5424 169.806 61.2145 170.097 60.8872 170.388C58.4914 172.502 56.0139 174.475 53.4566 176.389C52.9599 176.766 52.4673 177.148 51.9769 177.533C49.5697 179.422 47.0706 181.14 44.5174 182.824C44.1014 183.1 43.6855 183.375 43.2696 183.65C42.2673 184.313 41.2635 184.973 40.259 185.633C39.7788 185.948 39.2993 186.265 38.8199 186.582C34.2815 189.577 30.3479 191.513 24.7861 190.525C20.8339 189.603 17.4982 187.477 14.4592 184.847C14.2868 184.698 14.1143 184.55 13.9367 184.397C7.03615 178.371 1.44241 169.779 0.79165 160.421C0.445537 153.897 2.76954 148.765 7.07771 143.965C7.31046 143.698 7.54322 143.432 7.78303 143.157C13.1797 137.097 19.3104 132.359 26.667 128.918C26.9758 128.773 26.9758 128.773 27.2909 128.625C37.031 124.105 47.4598 121.509 57.8641 119.044C58.0623 118.997 58.2605 118.95 58.4648 118.901C60.4675 118.426 62.4705 117.953 64.4754 117.488C69.7024 116.29 69.7024 116.29 74.8113 114.678C75.4982 114.439 75.4982 114.439 76.066 114.439C73.5345 109.233 59.3959 106.039 54 104.164C48.2831 102.2 42.5073 100.402 36.7491 98.5636C15.8202 91.879 15.8202 91.879 11.3362 87.1846C11.1394 86.9899 10.9425 86.7952 10.7396 86.5946C6.15925 81.8197 4.44945 75.1818 4.23868 68.7309C4.23095 68.497 4.22322 68.263 4.21525 68.022C4.19278 67.241 4.17891 66.4602 4.16771 65.679C4.1616 65.4339 4.15549 65.1889 4.1492 64.9364C4.13108 61.3565 5.45616 58.7597 7.87618 56.1793C8.26955 55.7824 8.66593 55.3884 9.06503 54.9971C9.27688 54.788 9.48873 54.5788 9.707 54.3633C11.561 52.5588 13.494 50.9328 15.5948 49.4256C15.7637 49.3024 15.9326 49.1792 16.1066 49.0522C22.3808 44.5132 29.8953 42.1285 37.6604 43.0167C44.5597 44.3078 50.2131 48.915 55.625 53.1163C55.7995 53.2513 55.974 53.3864 56.1538 53.5255C59.1737 55.8674 62.131 58.2816 65.0411 60.7585C66.0013 61.5743 66.974 62.3711 67.9571 63.1593C69.3806 64.3165 70.7231 65.548 72.057 66.8061C72.9006 67.6014 73.7537 68.3806 74.6288 69.1413C75.7762 70.1392 76.892 71.1674 78.0001 72.2087C78.1958 72.3922 78.3915 72.5756 78.5931 72.7646C80.0407 74.1273 81.4522 75.5204 82.8409 76.943C83.4527 77.5726 83.4527 77.5726 84.2992 78.0997C84.2992 78.2871 84.2992 78.4745 84.2992 78.6675C84.5502 78.78 84.5502 78.78 84.8062 78.8947C85.4588 79.2483 85.8861 79.6173 86.4074 80.1425C86.5869 80.3226 86.7664 80.5026 86.9514 80.6881C87.136 80.8762 87.3206 81.0643 87.5109 81.2581C87.6922 81.4397 87.8735 81.6212 88.0604 81.8082C88.9491 82.705 89.8078 83.6152 90.6294 84.574C91.9372 86.0875 93.3659 87.4809 94.7859 88.888C95.0641 89.1648 95.3423 89.4417 95.6204 89.7187C96.2938 90.3888 96.9679 91.0582 97.6426 91.7271C97.7614 87.6832 96.7076 83.8451 95.6609 79.9628C95.5762 79.6487 95.4915 79.3346 95.4043 79.011C94.3651 75.2028 93.2198 71.4262 92.0812 67.6468C79.2396 25.0141 79.2396 25.0141 84.867 14.2216C88.8512 7.1913 97.9703 3.55116 105.386 1.46889C106.34 1.21435 107.295 0.971529 108.253 0.736262C108.549 0.663686 108.844 0.59111 109.148 0.516334C115.374 -0.925449 122.125 2.1494 127.251 5.63885ZM100.98 106.645C98.6413 109.916 98.0064 113.849 98.6163 117.781C99.4236 120.945 101.742 123.627 104.496 125.316C105.043 125.6 105.59 125.848 106.16 126.079C106.546 126.246 106.546 126.246 106.94 126.416C110.606 127.333 113.985 126.938 117.302 125.139C120.02 123.473 122.168 120.887 123.071 117.782C123.706 113.717 123.245 110.105 120.926 106.663C118.955 104.107 116.17 102.26 112.973 101.664C108.101 101.232 104.12 102.915 100.98 106.645Z" fill="#C87DFF"/>
</svg>
