<svg width="698" height="235" viewBox="0 0 698 235" fill="none" xmlns="http://www.w3.org/2000/svg">
<path d="M126.494 5.48651C130.441 8.33263 132.845 12.0306 133.677 16.8511C133.895 18.5751 133.89 20.3012 133.881 22.0363C133.88 22.2374 133.88 22.4385 133.88 22.6457C133.846 31.6457 132.638 40.5999 130.933 49.424C130.891 49.6422 130.849 49.8604 130.806 50.0852C129.834 55.085 128.631 60.0218 127.395 64.9617C126.891 66.9746 126.39 68.9881 125.894 71.0029C125.841 71.2173 125.788 71.4317 125.734 71.6526C123.734 79.1854 123.734 79.1854 122.976 86.8903C122.978 87.206 122.978 87.206 122.979 87.528C122.981 87.7392 122.984 87.9503 122.986 88.1679C122.988 88.4978 122.988 88.4978 122.99 88.8344C122.993 89.3693 122.998 89.9042 123.004 90.4391C126.051 89.9921 128.37 87.5012 130.508 85.4588C130.999 85.0023 131.504 84.5656 132.013 84.1283C133.153 83.1329 134.233 82.09 135.302 81.0182C135.489 80.831 135.676 80.6439 135.869 80.4511C136.262 80.0585 136.655 79.6656 137.047 79.2723C137.641 78.6764 138.237 78.082 138.833 77.4877C139.217 77.1032 139.602 76.7185 139.986 76.3338C140.249 76.072 140.249 76.072 140.517 75.8048C141.375 74.9423 142.201 74.0657 142.996 73.1443C144.084 71.8857 145.247 70.7104 146.425 69.5357C146.65 69.3104 146.875 69.0852 147.106 68.8531C147.579 68.3802 148.052 67.9076 148.526 67.4353C149.245 66.7175 149.963 65.9982 150.68 65.2788C151.143 64.8168 151.605 64.3549 152.067 63.8931C152.279 63.6807 152.491 63.4683 152.709 63.2495C153.863 62.1003 155.041 60.998 156.281 59.9407C156.804 59.4801 157.294 58.9977 157.782 58.5C158.618 57.6505 159.494 56.8667 160.397 56.0891C161.028 55.5352 161.646 54.968 162.262 54.3966C163.708 53.0556 165.18 51.7671 166.719 50.5319C167.353 50.0211 167.979 49.5051 168.602 48.9815C174.352 44.178 181.794 38.453 189.721 39.0527C193.302 39.6107 196.083 40.9446 198.806 43.3113C199.112 43.5764 199.112 43.5764 199.424 43.8469C201.287 45.5846 202.633 47.6194 204.032 49.7296C204.876 50.998 205.737 52.2553 206.595 53.514C206.776 53.7789 206.956 54.0438 207.142 54.3168C208.281 55.9884 209.436 57.6482 210.606 59.2985C210.745 59.4963 210.885 59.6941 211.028 59.8979C211.586 60.6883 212.146 61.4762 212.718 62.2562C214.547 64.8165 214.727 67.5684 214.289 70.6369C213.221 76.1933 210.771 81.3557 207.039 85.6128C206.858 85.8382 206.676 86.0636 206.489 86.2959C195.418 99.5469 172.519 104.201 156.878 109.307C156.185 109.534 155.492 109.76 154.798 109.987C152.76 110.653 150.722 111.318 148.681 111.977C147.838 112.25 146.996 112.524 146.154 112.799C145.759 112.927 145.363 113.055 144.968 113.182C144.427 113.355 143.886 113.532 143.346 113.709C143.041 113.807 142.737 113.906 142.423 114.007C141.698 114.217 141.698 114.217 141.458 114.855C141.807 114.967 142.157 115.079 142.517 115.194C144.208 115.758 145.854 116.428 147.508 117.09C160.606 122.269 173.99 126.604 187.585 130.275C210.992 136.612 210.992 136.612 216.802 146.565C220.339 152.753 222.589 159.156 220.666 166.241C217.613 176.159 210.498 185.871 201.361 190.941C196.499 193.396 191.584 194.337 186.314 192.644C180.422 190.525 174.558 187.546 169.468 183.897C168.988 183.553 168.502 183.217 168.016 182.883C164.582 180.501 161.333 177.863 158.255 175.038C157.663 174.495 157.06 173.969 156.451 173.445C155.552 172.663 154.713 171.838 153.879 170.988C153.395 170.513 152.891 170.082 152.37 169.648C151.011 168.48 149.818 167.16 148.608 165.842C147.63 164.777 146.634 163.739 145.602 162.725C144.742 161.856 143.955 160.924 143.161 159.995C142.91 159.702 142.659 159.41 142.408 159.117C141.98 158.618 141.552 158.118 141.125 157.619C140.052 156.366 138.973 155.119 137.891 153.874C135.786 151.448 133.695 149.012 131.681 146.51C128.095 141.707 128.095 141.707 123.288 138.703C123.632 141.513 124.169 144.213 124.885 146.953C124.938 147.159 124.991 147.364 125.045 147.576C126.121 151.731 127.36 155.836 128.611 159.942C142.496 205.519 142.496 205.519 135.3 219.792C130.432 228.26 118.665 231.169 109.926 233.592C102.587 235.513 94.7454 234.054 88.2092 230.274C81.9139 226.286 78.4305 220.259 76.7388 213.113C72.5197 193.553 81.7467 172.633 88.526 154.662C89.7748 151.35 91.0029 148.031 92.1871 144.695C92.3471 144.244 92.5079 143.794 92.6696 143.345C93.5203 140.975 94.2859 138.658 94.6136 136.147C93.3946 136.798 92.4914 137.643 91.5439 138.632C90.66 139.547 89.7709 140.43 88.8003 141.254C87.096 142.727 85.5255 144.342 83.9363 145.936C83.383 146.491 82.8282 147.044 82.2733 147.597C79.9287 149.94 79.9287 149.94 77.7156 152.407C76.955 153.296 76.1459 154.14 75.3437 154.991C74.2625 156.14 73.195 157.297 72.1487 158.477C70.6693 160.125 69.1126 161.691 67.5441 163.254C67.056 163.741 66.5695 164.229 66.0831 164.717C64.4741 166.327 62.8505 167.891 61.1131 169.364C60.7846 169.654 60.4567 169.944 60.1294 170.236C57.7336 172.35 55.2561 174.322 52.6987 176.237C52.2021 176.614 51.7094 176.996 51.2191 177.381C48.8119 179.27 46.3128 180.987 43.7595 182.672C43.3436 182.947 42.9277 183.223 42.5118 183.498C41.5095 184.161 40.5057 184.821 39.5012 185.48C39.021 185.796 38.5415 186.113 38.0621 186.43C33.5237 189.425 29.5901 191.361 24.0283 190.373C20.0761 189.45 16.7404 187.325 13.7014 184.695C13.5289 184.546 13.3565 184.397 13.1789 184.244C6.27834 178.219 0.684602 169.626 0.0338377 160.269C-0.312275 153.745 2.01173 148.613 6.3199 143.813C6.55265 143.546 6.78541 143.279 7.02522 143.004C12.4219 136.945 18.5526 132.207 25.9092 128.766C26.218 128.621 26.218 128.621 26.5331 128.472C36.2732 123.953 46.702 121.357 57.1063 118.891C57.3045 118.844 57.5027 118.797 57.707 118.749C59.7097 118.274 61.7127 117.801 63.7176 117.335C68.9446 116.138 68.9446 116.138 74.0535 114.526C74.7404 114.287 74.7404 114.287 75.3082 114.287C72.7767 109.081 58.6381 105.887 53.2422 104.012C47.5253 102.048 41.7495 100.25 35.9913 98.4112C15.0624 91.7267 15.0624 91.7267 10.5784 87.0323C10.3815 86.8376 10.1847 86.6429 9.9818 86.4423C5.40144 81.6674 3.69164 75.0294 3.48087 68.5786C3.47314 68.3446 3.46541 68.1107 3.45744 67.8697C3.43497 67.0886 3.42109 66.3079 3.40989 65.5266C3.40379 65.2816 3.39768 65.0365 3.39139 64.784C3.37327 61.2042 4.69835 58.6073 7.11837 56.027C7.51174 55.63 7.90812 55.236 8.30721 54.8448C8.51906 54.6356 8.73091 54.4265 8.94918 54.2109C10.8032 52.4065 12.7362 50.7804 14.837 49.2732C15.0059 49.15 15.1748 49.0268 15.3488 48.8999C21.623 44.3609 29.1375 41.9762 36.9026 42.8643C43.8019 44.1555 49.4553 48.7626 54.8672 52.9639C55.0417 53.099 55.2162 53.234 55.396 53.3732C58.4158 55.7151 61.3732 58.1292 64.2833 60.6062C65.2435 61.422 66.2162 62.2188 67.1993 63.007C68.6228 64.1642 69.9653 65.3956 71.2991 66.6538C72.1428 67.4491 72.9959 68.2283 73.871 68.9889C75.0184 69.9869 76.1342 71.0151 77.2423 72.0564C77.438 72.2398 77.6337 72.4232 77.8353 72.6122C79.2829 73.975 80.6944 75.368 82.0831 76.7907C82.6949 77.4202 82.6949 77.4202 83.5414 77.9474C83.5414 78.1348 83.5414 78.3221 83.5414 78.5152C83.7924 78.6277 83.7924 78.6277 84.0484 78.7424C84.701 79.096 85.1282 79.465 85.6496 79.9902C85.8291 80.1702 86.0086 80.3503 86.1936 80.5358C86.3782 80.7239 86.5628 80.912 86.7531 81.1058C86.9344 81.2873 87.1157 81.4688 87.3026 81.6559C88.1913 82.5527 89.05 83.4629 89.8715 84.4217C91.1793 85.9352 92.6081 87.3285 94.0281 88.7357C94.3063 89.0125 94.5845 89.2894 94.8626 89.5663C95.536 90.2364 96.2101 90.9059 96.8848 91.5747C97.0035 87.5309 95.9498 83.6928 94.9031 79.8105C94.8184 79.4964 94.7337 79.1823 94.6465 78.8587C93.6073 75.0505 92.462 71.2739 91.3234 67.4944C78.4818 24.8617 78.4818 24.8617 84.1092 14.0693C88.0934 7.03896 97.2124 3.39881 104.628 1.31655C105.582 1.06201 106.537 0.819185 107.496 0.583918C107.791 0.511342 108.086 0.438766 108.39 0.36399C114.616 -1.07779 121.367 1.99706 126.494 5.48651ZM100.222 106.493C97.8835 109.763 97.2486 113.697 97.8585 117.628C98.6658 120.793 100.984 123.475 103.738 125.164C104.285 125.448 104.832 125.695 105.402 125.927C105.788 126.094 105.788 126.094 106.183 126.264C109.848 127.18 113.227 126.785 116.544 124.986C119.263 123.321 121.41 120.735 122.313 117.629C122.949 113.564 122.487 109.952 120.168 106.511C118.197 103.954 115.412 102.107 112.216 101.511C107.344 101.079 103.362 102.762 100.222 106.493Z" fill="#531D94"/>
<path d="M696.741 111.82L697.141 184.42C697.141 185.486 696.607 186.02 695.541 186.02H674.541C673.474 186.02 672.941 185.453 672.941 184.32L673.441 171.32C669.841 176.653 665.374 180.786 660.041 183.72C654.707 186.586 648.607 188.02 641.741 188.02C632.541 188.02 624.641 185.72 618.041 181.12C611.507 176.453 606.541 170.086 603.141 162.02C599.807 153.953 598.141 144.853 598.141 134.72C598.141 124.72 599.907 115.653 603.441 107.52C607.041 99.3195 612.174 92.8529 618.841 88.1195C625.507 83.3195 633.307 80.9195 642.241 80.9195C648.974 80.9195 654.907 82.2529 660.041 84.9195C665.241 87.5195 669.574 91.3529 673.041 96.4195L672.941 47.6195C672.941 46.5529 673.474 46.0195 674.541 46.0195H695.541C696.607 46.0195 697.141 46.5529 697.141 47.6195L696.741 111.82ZM648.041 171.92C656.374 171.92 662.774 168.786 667.241 162.52C671.707 156.253 673.941 146.986 673.941 134.72C673.941 122.586 671.707 113.286 667.241 106.82C662.774 100.286 656.441 97.0195 648.241 97.0195C639.841 97.0195 633.474 100.253 629.141 106.72C624.807 113.12 622.641 122.053 622.641 133.52C622.641 145.653 624.807 155.086 629.141 161.82C633.474 168.553 639.774 171.92 648.041 171.92Z" fill="#F5F7FB"/>
<path d="M566.327 186.019C565.26 186.019 564.727 185.485 564.727 184.419L565.227 133.719L564.727 84.6187C564.727 83.5521 565.26 83.0187 566.327 83.0187H587.627C588.693 83.0187 589.227 83.5521 589.227 84.6187L588.727 133.719L589.227 184.419C589.227 185.485 588.693 186.019 587.627 186.019H566.327ZM566.427 72.2188C565.36 72.2188 564.827 71.6854 564.827 70.6188V50.8187C564.827 49.7521 565.36 49.2188 566.427 49.2188H587.627C588.693 49.2188 589.227 49.7521 589.227 50.8187V70.6188C589.227 71.6854 588.693 72.2188 587.627 72.2188H566.427Z" fill="#F5F7FB"/>
<path d="M510.064 188.419C499.597 188.419 490.564 186.252 482.964 181.919C475.364 177.519 469.564 171.286 465.564 163.219C461.631 155.152 459.664 145.686 459.664 134.819C459.664 123.952 461.664 114.452 465.664 106.319C469.664 98.1191 475.497 91.7858 483.164 87.3191C490.831 82.8525 499.964 80.6191 510.564 80.6191C519.097 80.6191 526.597 82.1525 533.064 85.2191C539.531 88.2191 544.631 92.4858 548.364 98.0191C552.164 103.552 554.464 110.019 555.264 117.419V117.819C555.264 118.686 554.731 119.119 553.664 119.119H534.664C533.664 119.119 533.064 118.586 532.864 117.519C531.731 110.919 529.164 105.852 525.164 102.319C521.231 98.7858 516.364 97.0191 510.564 97.0191C493.097 97.0858 484.364 109.652 484.364 134.719C484.364 147.319 486.531 156.719 490.864 162.919C495.264 169.119 501.897 172.219 510.764 172.219C517.297 172.219 522.597 170.152 526.664 166.019C530.797 161.886 533.197 156.052 533.864 148.519C534.064 147.452 534.631 146.919 535.564 146.919H555.064C555.597 146.919 555.997 147.052 556.264 147.319C556.597 147.586 556.731 147.952 556.664 148.419C555.931 156.152 553.564 163.052 549.564 169.119C545.564 175.186 540.164 179.919 533.364 183.319C526.564 186.719 518.797 188.419 510.064 188.419Z" fill="#F5F7FB"/>
<path d="M394.626 188.42C387.426 188.42 381.192 186.853 375.926 183.72C370.659 180.586 366.592 175.986 363.726 169.92C360.859 163.853 359.426 156.52 359.426 147.92V126.92L358.926 84.6195C358.926 83.5529 359.492 83.0195 360.626 83.0195H381.726C382.792 83.0195 383.326 83.5529 383.326 84.6195L382.926 126.92V147.32C382.926 154.786 384.626 160.52 388.026 164.52C391.492 168.52 396.059 170.52 401.726 170.52C405.859 170.52 409.726 169.353 413.326 167.02C416.992 164.62 420.026 161.053 422.426 156.32C424.892 151.586 426.459 145.82 427.126 139.02V126.92L426.726 84.6195C426.726 83.5529 427.292 83.0195 428.426 83.0195H449.826C450.892 83.0195 451.426 83.5529 451.426 84.6195L450.926 131.12L451.126 184.42C451.126 185.486 450.592 186.02 449.526 186.02H429.426C428.359 186.02 427.859 185.453 427.926 184.32L428.326 170.52C424.792 175.786 420.092 180.086 414.226 183.42C408.426 186.753 401.892 188.42 394.626 188.42Z" fill="#F5F7FB"/>
<path d="M272.971 186.02C271.904 186.02 271.371 185.486 271.371 184.42L272.171 114.22L271.371 47.6195C271.371 46.5529 271.904 46.0195 272.971 46.0195H294.571C295.638 46.0195 296.171 46.5529 296.171 47.6195L295.571 112.92L296.271 167.72H355.771C356.904 167.72 357.471 168.253 357.471 169.32V184.42C357.471 184.886 357.304 185.286 356.971 185.62C356.704 185.886 356.304 186.02 355.771 186.02H272.971Z" fill="#F5F7FB"/>
</svg>
