<svg width="708" height="236" viewBox="0 0 708 236" fill="none" xmlns="http://www.w3.org/2000/svg">
<path d="M272.316 45.9121H290.815V175.816H367.895V192.876H272.316V45.9121Z" fill="#3C096C"/>
<path d="M444.165 192.876V178.283H443.753C439.848 183.627 435.532 187.738 430.599 190.821C425.665 193.904 419.499 195.343 411.688 195.343C400.589 195.343 391.956 192.26 385.584 186.094C379.007 179.927 375.924 171.294 375.924 160.195V86.6099H392.573V159.784C392.573 166.772 394.628 172.322 398.739 176.022C402.85 179.722 408.811 181.572 416.416 181.572C420.527 181.572 424.432 180.955 427.926 179.311C431.215 177.872 434.093 175.816 436.559 173.144C439.026 170.472 440.876 167.389 442.109 163.689C443.342 160.195 444.165 156.29 444.165 151.973V86.6099H460.814V192.876H444.165Z" fill="#3C096C"/>
<path d="M524.642 195.754C516.625 195.754 509.431 194.315 503.265 191.438C496.893 188.56 491.549 184.449 487.027 179.311C482.505 174.377 479.216 168.417 476.75 161.634C474.283 154.851 473.255 147.657 473.255 139.846C473.255 132.241 474.283 125.047 476.75 118.264C479.216 111.481 482.505 105.52 487.027 100.381C491.549 95.4483 496.893 91.3375 503.265 88.4598C509.431 85.5822 516.625 83.9379 524.642 83.9379C537.18 83.9379 547.457 87.4321 555.268 94.0095C563.078 100.587 568.012 109.631 570.067 120.936H553.212C551.979 113.742 548.896 107.987 543.963 103.876C539.03 99.7648 532.658 97.7093 524.642 97.7093C518.886 97.7093 513.953 98.9426 509.637 100.998C505.32 103.259 501.826 106.342 498.949 110.042C496.071 113.947 493.81 118.469 492.371 123.402C490.932 128.541 490.316 134.091 490.316 139.846C490.316 145.807 490.932 151.356 492.371 156.29C493.81 161.428 496.071 165.95 498.949 169.65C501.826 173.35 505.32 176.433 509.637 178.488C513.953 180.749 518.886 181.777 524.642 181.777C533.275 181.777 540.057 179.516 544.991 174.789C549.924 170.267 552.801 163.689 553.623 155.467H570.067C568.834 168.417 564.312 178.283 556.501 185.271C548.485 192.26 537.797 195.754 524.642 195.754Z" fill="#3C096C"/>
<path d="M581.692 86.6099H598.341V192.876H581.692V86.6099ZM581.692 45.9121H598.341V66.4666H581.692V45.9121Z" fill="#3C096C"/>
<path d="M658.032 195.96C650.632 195.96 644.055 194.726 638.3 192.054C632.544 189.588 627.611 185.888 623.501 180.955C619.39 176.022 616.306 170.267 614.251 163.278C611.99 156.29 610.962 148.684 610.962 140.052C610.962 131.419 611.99 123.402 614.457 116.414C616.923 109.425 620.212 103.67 624.323 98.9426C628.434 94.2151 633.367 90.5153 639.122 88.0487C644.877 85.5822 651.044 84.1434 657.621 84.1434C665.021 84.1434 671.598 85.7878 677.353 89.0765C682.903 92.3652 687.425 96.6816 690.919 101.615H691.33V45.9121H707.979V192.876H691.33V179.927H690.919C686.808 185.271 682.286 189.177 677.148 191.849C671.804 194.726 665.432 195.96 658.032 195.96ZM658.649 181.983C664.404 181.983 669.543 180.955 673.859 178.899C677.97 176.844 681.464 173.761 684.342 170.061C687.014 166.361 689.069 162.045 690.303 156.906C691.536 151.973 692.358 146.423 692.358 140.257C692.358 134.091 691.536 128.541 690.097 123.402C688.658 118.264 686.603 113.742 683.725 110.042C680.847 106.342 677.148 103.465 673.037 101.409C668.72 99.3537 663.787 98.326 658.443 98.326C653.305 98.326 648.783 99.5592 645.083 101.615C641.383 103.67 638.094 106.753 635.628 110.453C633.161 114.153 631.106 118.675 629.872 123.814C628.639 128.952 628.023 134.502 628.023 140.257C628.023 146.423 628.639 151.973 629.872 156.906C631.106 162.045 633.161 166.361 635.628 170.061C638.094 173.761 641.383 176.844 645.288 178.899C648.988 180.955 653.51 181.983 658.649 181.983Z" fill="#3C096C"/>
<path d="M127.251 6.25115C131.199 9.09728 133.603 12.7953 134.435 17.6158C134.653 19.3397 134.648 21.0658 134.639 22.801C134.638 23.0021 134.638 23.2032 134.637 23.4104C134.604 32.4103 133.396 41.3646 131.691 50.1887C131.649 50.4069 131.607 50.6251 131.563 50.8499C130.591 55.8496 129.389 60.7864 128.153 65.7263C127.649 67.7392 127.148 69.7528 126.652 71.7675C126.599 71.9819 126.546 72.1963 126.492 72.4173C124.491 79.95 124.491 79.95 123.734 87.655C123.735 87.9706 123.735 87.9706 123.737 88.2926C123.739 88.5038 123.741 88.715 123.744 88.9325C123.746 89.2624 123.746 89.2624 123.748 89.599C123.751 90.1339 123.756 90.6688 123.762 91.2037C126.809 90.7567 129.127 88.2659 131.266 86.2234C131.757 85.767 132.262 85.3302 132.77 84.8929C133.911 83.8975 134.991 82.8546 136.059 81.7828C136.247 81.5957 136.434 81.4085 136.627 81.2157C137.02 80.8231 137.412 80.4302 137.805 80.0369C138.399 79.441 138.995 78.8466 139.591 78.2523C139.975 77.8678 140.36 77.4832 140.744 77.0984C141.006 76.8366 141.006 76.8366 141.274 76.5695C142.132 75.7069 142.959 74.8304 143.754 73.909C144.842 72.6504 146.005 71.475 147.183 70.3003C147.407 70.0751 147.632 69.8498 147.864 69.6178C148.337 69.1448 148.81 68.6722 149.284 68.1999C150.003 67.4822 150.721 66.7629 151.438 66.0434C151.9 65.5814 152.363 65.1195 152.825 64.6577C153.037 64.4453 153.249 64.233 153.467 64.0141C154.621 62.8649 155.799 61.7627 157.038 60.7053C157.562 60.2447 158.052 59.7623 158.54 59.2647C159.376 58.4152 160.252 57.6313 161.155 56.8537C161.786 56.2998 162.404 55.7327 163.02 55.1613C164.466 53.8203 165.938 52.5317 167.477 51.2966C168.111 50.7858 168.737 50.2697 169.36 49.7462C175.11 44.9427 182.552 39.2177 190.479 39.8174C194.059 40.3753 196.84 41.7093 199.564 44.0759C199.869 44.3411 199.869 44.3411 200.181 44.6116C202.045 46.3492 203.391 48.384 204.79 50.4942C205.634 51.7627 206.495 53.0199 207.353 54.2787C207.534 54.5436 207.714 54.8085 207.899 55.0814C209.039 56.7531 210.193 58.4128 211.363 60.0632C211.503 60.261 211.642 60.4587 211.786 60.6625C212.344 61.453 212.904 62.2409 213.476 63.0209C215.305 65.5812 215.485 68.333 215.046 71.4015C213.979 76.9579 211.529 82.1204 207.797 86.3774C207.615 86.6028 207.434 86.8283 207.247 87.0605C196.176 100.312 173.276 104.966 157.636 110.072C156.942 110.298 156.249 110.525 155.556 110.751C153.518 111.417 151.48 112.083 149.439 112.742C148.596 113.014 147.754 113.289 146.911 113.564C146.516 113.692 146.121 113.82 145.726 113.946C145.184 114.12 144.644 114.297 144.103 114.473C143.799 114.572 143.495 114.67 143.181 114.772C142.456 114.982 142.456 114.982 142.215 115.619C142.565 115.731 142.914 115.843 143.274 115.959C144.966 116.523 146.612 117.192 148.266 117.855C161.364 123.033 174.748 127.369 188.342 131.04C211.75 137.377 211.75 137.377 217.56 147.33C221.097 153.517 223.347 159.92 221.424 167.006C218.371 176.924 211.256 186.635 202.119 191.705C197.256 194.161 192.342 195.102 187.072 193.409C181.18 191.289 175.316 188.31 170.226 184.661C169.745 184.318 169.26 183.982 168.774 183.647C165.34 181.266 162.091 178.627 159.013 175.802C158.421 175.26 157.818 174.734 157.209 174.21C156.31 173.428 155.471 172.603 154.637 171.752C154.153 171.277 153.649 170.847 153.128 170.413C151.769 169.245 150.576 167.924 149.366 166.607C148.388 165.542 147.391 164.503 146.36 163.49C145.5 162.621 144.713 161.688 143.919 160.76C143.668 160.467 143.417 160.174 143.166 159.882C142.738 159.382 142.31 158.883 141.883 158.383C140.81 157.13 139.731 155.883 138.649 154.638C136.543 152.213 134.453 149.777 132.438 147.275C128.853 142.472 128.853 142.472 124.046 139.467C124.39 142.278 124.927 144.978 125.643 147.718C125.696 147.924 125.749 148.129 125.803 148.341C126.879 152.496 128.118 156.601 129.369 160.707C143.254 206.284 143.254 206.284 136.058 220.557C131.19 229.025 119.423 231.934 110.684 234.356C103.345 236.278 95.5033 234.819 88.967 231.039C82.6717 227.05 79.1883 221.023 77.4966 213.877C73.2775 194.318 82.5045 173.398 89.2838 155.427C90.5326 152.114 91.7608 148.795 92.9449 145.459C93.1049 145.009 93.2657 144.559 93.4274 144.109C94.2781 141.739 95.0437 139.422 95.3714 136.912C94.1524 137.563 93.2492 138.408 92.3017 139.396C91.4178 140.312 90.5287 141.195 89.5581 142.019C87.8539 143.492 86.2833 145.106 84.6941 146.701C84.1408 147.255 83.586 147.809 83.0311 148.362C80.6866 150.705 80.6866 150.705 78.4735 153.171C77.7128 154.06 76.9037 154.905 76.1015 155.756C75.0203 156.904 73.9528 158.061 72.9065 159.242C71.4271 160.89 69.8705 162.456 68.3019 164.019C67.8138 164.505 67.3273 164.993 66.8409 165.481C65.2319 167.091 63.6083 168.656 61.8709 170.129C61.5424 170.419 61.2145 170.709 60.8872 171C58.4914 173.114 56.0139 175.087 53.4566 177.001C52.9599 177.378 52.4673 177.76 51.9769 178.145C49.5697 180.034 47.0706 181.752 44.5174 183.437C44.1014 183.712 43.6855 183.987 43.2696 184.263C42.2673 184.925 41.2635 185.586 40.259 186.245C39.7788 186.561 39.2993 186.877 38.8199 187.194C34.2815 190.189 30.3479 192.126 24.7861 191.137C20.8339 190.215 17.4982 188.09 14.4592 185.459C14.2868 185.311 14.1143 185.162 13.9367 185.009C7.03615 178.983 1.44241 170.391 0.79165 161.034C0.445537 154.51 2.76954 149.378 7.07771 144.577C7.31046 144.311 7.54322 144.044 7.78303 143.769C13.1797 137.71 19.3104 132.972 26.667 129.531C26.9758 129.385 26.9758 129.385 27.2909 129.237C37.031 124.718 47.4598 122.122 57.8641 119.656C58.0623 119.609 58.2605 119.562 58.4648 119.514C60.4675 119.039 62.4705 118.565 64.4754 118.1C69.7024 116.903 69.7024 116.903 74.8113 115.29C75.4982 115.052 75.4982 115.052 76.066 115.052C73.5345 109.846 59.3959 106.652 54 104.777C48.2831 102.813 42.5073 101.015 36.7491 99.1759C15.8202 92.4913 15.8202 92.4913 11.3362 87.7969C11.1394 87.6022 10.9425 87.4075 10.7396 87.2069C6.15925 82.432 4.44945 75.7941 4.23868 69.3432C4.23095 69.1093 4.22322 68.8753 4.21525 68.6343C4.19278 67.8533 4.17891 67.0726 4.16771 66.2913C4.1616 66.0462 4.15549 65.8012 4.1492 65.5487C4.13108 61.9688 5.45616 59.372 7.87618 56.7916C8.26955 56.3947 8.66593 56.0007 9.06503 55.6095C9.27688 55.4003 9.48873 55.1911 9.707 54.9756C11.561 53.1711 13.494 51.5451 15.5948 50.0379C15.7637 49.9147 15.9326 49.7915 16.1066 49.6645C22.3808 45.1255 29.8953 42.7408 37.6604 43.629C44.5597 44.9201 50.2131 49.5273 55.625 53.7286C55.7995 53.8636 55.974 53.9987 56.1538 54.1378C59.1737 56.4797 62.131 58.8939 65.0411 61.3708C66.0013 62.1866 66.974 62.9834 67.9571 63.7717C69.3806 64.9288 70.7231 66.1603 72.057 67.4184C72.9006 68.2137 73.7537 68.9929 74.6288 69.7536C75.7762 70.7515 76.892 71.7797 78.0001 72.821C78.1958 73.0045 78.3915 73.1879 78.5931 73.3769C80.0407 74.7396 81.4522 76.1327 82.8409 77.5554C83.4527 78.1849 83.4527 78.1849 84.2992 78.712C84.2992 78.8994 84.2992 79.0868 84.2992 79.2798C84.5502 79.3923 84.5502 79.3923 84.8062 79.507C85.4588 79.8606 85.8861 80.2296 86.4074 80.7548C86.5869 80.9349 86.7664 81.1149 86.9514 81.3004C87.136 81.4885 87.3206 81.6766 87.5109 81.8704C87.6922 82.052 87.8735 82.2335 88.0604 82.4205C88.9491 83.3173 89.8078 84.2275 90.6294 85.1863C91.9372 86.6998 93.3659 88.0932 94.7859 89.5003C95.0641 89.7771 95.3423 90.054 95.6204 90.331C96.2938 91.0011 96.9679 91.6705 97.6426 92.3394C97.7614 88.2955 96.7076 84.4574 95.6609 80.5751C95.5762 80.261 95.4915 79.947 95.4043 79.6233C94.3651 75.8151 93.2198 72.0385 92.0812 68.2591C79.2396 25.6264 79.2396 25.6264 84.867 14.8339C88.8512 7.8036 97.9703 4.16346 105.386 2.0812C106.34 1.82665 107.295 1.58383 108.253 1.34857C108.549 1.27599 108.844 1.20341 109.148 1.12864C115.374 -0.313144 122.125 2.7617 127.251 6.25115ZM100.98 107.258C98.6413 110.528 98.0064 114.462 98.6163 118.393C99.4236 121.557 101.742 124.24 104.496 125.929C105.043 126.212 105.59 126.46 106.16 126.692C106.546 126.858 106.546 126.858 106.94 127.029C110.606 127.945 113.985 127.55 117.302 125.751C120.02 124.085 122.168 121.5 123.071 118.394C123.706 114.329 123.245 110.717 120.926 107.275C118.955 104.719 116.17 102.872 112.973 102.276C108.101 101.844 104.12 103.527 100.98 107.258Z" fill="#3C096C"/>
</svg>
