<svg width="708" height="235" viewBox="0 0 708 235" fill="none" xmlns="http://www.w3.org/2000/svg">
<path d="M272.316 45.415H290.815V175.319H367.895V192.379H272.316V45.415Z" fill="#5A189A"/>
<path d="M444.165 192.379V177.786H443.753C439.848 183.13 435.532 187.241 430.599 190.324C425.665 193.407 419.499 194.846 411.688 194.846C400.589 194.846 391.956 191.763 385.584 185.596C379.007 179.43 375.924 170.797 375.924 159.698V86.1129H392.573V159.287C392.573 166.275 394.628 171.825 398.739 175.525C402.85 179.225 408.811 181.074 416.416 181.074C420.527 181.074 424.432 180.458 427.926 178.813C431.215 177.375 434.093 175.319 436.559 172.647C439.026 169.975 440.876 166.892 442.109 163.192C443.342 159.698 444.165 155.792 444.165 151.476V86.1129H460.814V192.379H444.165Z" fill="#5A189A"/>
<path d="M524.642 195.257C516.625 195.257 509.431 193.818 503.265 190.941C496.893 188.063 491.549 183.952 487.027 178.813C482.505 173.88 479.216 167.92 476.75 161.137C474.283 154.354 473.255 147.16 473.255 139.349C473.255 131.744 474.283 124.55 476.75 117.767C479.216 110.984 482.505 105.023 487.027 99.8844C491.549 94.9513 496.893 90.8404 503.265 87.9628C509.431 85.0851 516.625 83.4408 524.642 83.4408C537.18 83.4408 547.457 86.935 555.268 93.5125C563.078 100.09 568.012 109.134 570.067 120.439H553.212C551.979 113.245 548.896 107.49 543.963 103.379C539.03 99.2677 532.658 97.2123 524.642 97.2123C518.886 97.2123 513.953 98.4455 509.637 100.501C505.32 102.762 501.826 105.845 498.949 109.545C496.071 113.45 493.81 117.972 492.371 122.905C490.932 128.044 490.316 133.594 490.316 139.349C490.316 145.31 490.932 150.859 492.371 155.792C493.81 160.931 496.071 165.453 498.949 169.153C501.826 172.853 505.32 175.936 509.637 177.991C513.953 180.252 518.886 181.28 524.642 181.28C533.275 181.28 540.057 179.019 544.991 174.292C549.924 169.77 552.801 163.192 553.623 154.97H570.067C568.834 167.92 564.312 177.786 556.501 184.774C548.485 191.763 537.797 195.257 524.642 195.257Z" fill="#5A189A"/>
<path d="M581.692 86.1129H598.341V192.379H581.692V86.1129ZM581.692 45.415H598.341V65.9695H581.692V45.415Z" fill="#5A189A"/>
<path d="M658.032 195.463C650.632 195.463 644.055 194.229 638.3 191.557C632.544 189.091 627.611 185.391 623.501 180.458C619.39 175.525 616.306 169.77 614.251 162.781C611.99 155.792 610.962 148.187 610.962 139.554C610.962 130.922 611.99 122.905 614.457 115.917C616.923 108.928 620.212 103.173 624.323 98.4455C628.434 93.718 633.367 90.0182 639.122 87.5517C644.877 85.0851 651.044 83.6463 657.621 83.6463C665.021 83.6463 671.598 85.2907 677.353 88.5794C682.903 91.8681 687.425 96.1846 690.919 101.118H691.33V45.415H707.979V192.379H691.33V179.43H690.919C686.808 184.774 682.286 188.68 677.148 191.352C671.804 194.229 665.432 195.463 658.032 195.463ZM658.649 181.486C664.404 181.486 669.543 180.458 673.859 178.402C677.97 176.347 681.464 173.264 684.342 169.564C687.014 165.864 689.069 161.548 690.303 156.409C691.536 151.476 692.358 145.926 692.358 139.76C692.358 133.594 691.536 128.044 690.097 122.905C688.658 117.767 686.603 113.245 683.725 109.545C680.847 105.845 677.148 102.968 673.037 100.912C668.72 98.8566 663.787 97.8289 658.443 97.8289C653.305 97.8289 648.783 99.0622 645.083 101.118C641.383 103.173 638.094 106.256 635.628 109.956C633.161 113.656 631.106 118.178 629.872 123.316C628.639 128.455 628.023 134.005 628.023 139.76C628.023 145.926 628.639 151.476 629.872 156.409C631.106 161.548 633.161 165.864 635.628 169.564C638.094 173.264 641.383 176.347 645.288 178.402C648.988 180.458 653.51 181.486 658.649 181.486Z" fill="#5A189A"/>
<path d="M127.251 5.75408C131.199 8.6002 133.603 12.2982 134.435 17.1187C134.653 18.8426 134.648 20.5687 134.639 22.3039C134.638 22.505 134.638 22.7061 134.637 22.9133C134.604 31.9133 133.396 40.8675 131.691 49.6916C131.649 49.9098 131.607 50.128 131.563 50.3528C130.591 55.3525 129.389 60.2893 128.153 65.2293C127.649 67.2422 127.148 69.2557 126.652 71.2704C126.599 71.4849 126.546 71.6993 126.492 71.9202C124.491 79.4529 124.491 79.4529 123.734 87.1579C123.735 87.4735 123.735 87.4735 123.737 87.7956C123.739 88.0067 123.741 88.2179 123.744 88.4355C123.746 88.7654 123.746 88.7654 123.748 89.102C123.751 89.6369 123.756 90.1718 123.762 90.7067C126.809 90.2597 129.127 87.7688 131.266 85.7264C131.757 85.2699 132.262 84.8332 132.77 84.3959C133.911 83.4005 134.991 82.3576 136.059 81.2858C136.247 81.0986 136.434 80.9115 136.627 80.7187C137.02 80.3261 137.412 79.9331 137.805 79.5399C138.399 78.9439 138.995 78.3495 139.591 77.7553C139.975 77.3707 140.36 76.9861 140.744 76.6014C141.006 76.3395 141.006 76.3395 141.274 76.0724C142.132 75.2099 142.959 74.3333 143.754 73.4119C144.842 72.1533 146.005 70.978 147.183 69.8032C147.407 69.578 147.632 69.3528 147.864 69.1207C148.337 68.6478 148.81 68.1751 149.284 67.7029C150.003 66.9851 150.721 66.2658 151.438 65.5464C151.9 65.0844 152.363 64.6225 152.825 64.1607C153.037 63.9483 153.249 63.7359 153.467 63.5171C154.621 62.3678 155.799 61.2656 157.038 60.2083C157.562 59.7477 158.052 59.2653 158.54 58.7676C159.376 57.9181 160.252 57.1343 161.155 56.3567C161.786 55.8028 162.404 55.2356 163.02 54.6642C164.466 53.3232 165.938 52.0346 167.477 50.7995C168.111 50.2887 168.737 49.7727 169.36 49.2491C175.11 44.4456 182.552 38.7206 190.479 39.3203C194.059 39.8783 196.84 41.2122 199.564 43.5788C199.869 43.844 199.869 43.844 200.181 44.1145C202.045 45.8522 203.391 47.887 204.79 49.9971C205.634 51.2656 206.495 52.5228 207.353 53.7816C207.534 54.0465 207.714 54.3114 207.899 54.5844C209.039 56.256 210.193 57.9157 211.363 59.5661C211.503 59.7639 211.642 59.9617 211.786 60.1654C212.344 60.9559 212.904 61.7438 213.476 62.5238C215.305 65.0841 215.485 67.8359 215.046 70.9045C213.979 76.4609 211.529 81.6233 207.797 85.8803C207.615 86.1058 207.434 86.3312 207.247 86.5635C196.176 99.8145 173.276 104.469 157.636 109.575C156.942 109.801 156.249 110.028 155.556 110.254C153.518 110.92 151.48 111.585 149.439 112.245C148.596 112.517 147.754 112.792 146.911 113.067C146.516 113.195 146.121 113.323 145.726 113.449C145.184 113.623 144.644 113.8 144.103 113.976C143.799 114.075 143.495 114.173 143.181 114.275C142.456 114.485 142.456 114.485 142.215 115.122C142.565 115.234 142.914 115.346 143.274 115.462C144.966 116.026 146.612 116.695 148.266 117.358C161.364 122.536 174.748 126.872 188.342 130.543C211.75 136.88 211.75 136.88 217.56 146.833C221.097 153.02 223.347 159.423 221.424 166.509C218.371 176.427 211.256 186.138 202.119 191.208C197.256 193.663 192.342 194.605 187.072 192.912C181.18 190.792 175.316 187.813 170.226 184.164C169.745 183.821 169.26 183.485 168.774 183.15C165.34 180.769 162.091 178.13 159.013 175.305C158.421 174.763 157.818 174.237 157.209 173.713C156.31 172.931 155.471 172.106 154.637 171.255C154.153 170.78 153.649 170.349 153.128 169.916C151.769 168.748 150.576 167.427 149.366 166.109C148.388 165.045 147.391 164.006 146.36 162.993C145.5 162.124 144.713 161.191 143.919 160.263C143.668 159.97 143.417 159.677 143.166 159.384C142.738 158.885 142.31 158.386 141.883 157.886C140.81 156.633 139.731 155.386 138.649 154.141C136.543 151.716 134.453 149.28 132.438 146.777C128.853 141.975 128.853 141.975 124.046 138.97C124.39 141.781 124.927 144.481 125.643 147.221C125.696 147.426 125.749 147.632 125.803 147.844C126.879 151.999 128.118 156.104 129.369 160.21C143.254 205.787 143.254 205.787 136.058 220.06C131.19 228.527 119.423 231.437 110.684 233.859C103.345 235.781 95.5033 234.322 88.967 230.542C82.6717 226.553 79.1883 220.526 77.4966 213.38C73.2775 193.821 82.5045 172.901 89.2838 154.93C90.5326 151.617 91.7608 148.298 92.9449 144.962C93.1049 144.512 93.2657 144.062 93.4274 143.612C94.2781 141.242 95.0437 138.925 95.3714 136.415C94.1524 137.066 93.2492 137.911 92.3017 138.899C91.4178 139.815 90.5287 140.698 89.5581 141.522C87.8539 142.995 86.2833 144.609 84.6941 146.204C84.1408 146.758 83.586 147.312 83.0311 147.865C80.6866 150.208 80.6866 150.208 78.4735 152.674C77.7128 153.563 76.9037 154.408 76.1015 155.259C75.0203 156.407 73.9528 157.564 72.9065 158.745C71.4271 160.393 69.8705 161.959 68.3019 163.522C67.8138 164.008 67.3273 164.496 66.8409 164.984C65.2319 166.594 63.6083 168.159 61.8709 169.632C61.5424 169.921 61.2145 170.212 60.8872 170.503C58.4914 172.617 56.0139 174.59 53.4566 176.504C52.9599 176.881 52.4673 177.263 51.9769 177.648C49.5697 179.537 47.0706 181.255 44.5174 182.94C44.1014 183.215 43.6855 183.49 43.2696 183.766C42.2673 184.428 41.2635 185.089 40.259 185.748C39.7788 186.064 39.2993 186.38 38.8199 186.697C34.2815 189.692 30.3479 191.629 24.7861 190.64C20.8339 189.718 17.4982 187.592 14.4592 184.962C14.2868 184.814 14.1143 184.665 13.9367 184.512C7.03615 178.486 1.44241 169.894 0.79165 160.536C0.445537 154.013 2.76954 148.881 7.07771 144.08C7.31046 143.814 7.54322 143.547 7.78303 143.272C13.1797 137.213 19.3104 132.474 26.667 129.034C26.9758 128.888 26.9758 128.888 27.2909 128.74C37.031 124.221 47.4598 121.624 57.8641 119.159C58.0623 119.112 58.2605 119.065 58.4648 119.017C60.4675 118.542 62.4705 118.068 64.4754 117.603C69.7024 116.406 69.7024 116.406 74.8113 114.793C75.4982 114.554 75.4982 114.554 76.066 114.554C73.5345 109.349 59.3959 106.155 54 104.28C48.2831 102.316 42.5073 100.518 36.7491 98.6788C15.8202 91.9943 15.8202 91.9943 11.3362 87.2998C11.1394 87.1051 10.9425 86.9105 10.7396 86.7099C6.15925 81.935 4.44945 75.297 4.23868 68.8462C4.23095 68.6122 4.22322 68.3783 4.21525 68.1372C4.19278 67.3562 4.17891 66.5755 4.16771 65.7942C4.1616 65.5492 4.15549 65.3041 4.1492 65.0516C4.13108 61.4717 5.45616 58.8749 7.87618 56.2946C8.26955 55.8976 8.66593 55.5036 9.06503 55.1124C9.27688 54.9032 9.48873 54.694 9.707 54.4785C11.561 52.674 13.494 51.048 15.5948 49.5408C15.7637 49.4176 15.9326 49.2944 16.1066 49.1675C22.3808 44.6285 29.8953 42.2438 37.6604 43.1319C44.5597 44.423 50.2131 49.0302 55.625 53.2315C55.7995 53.3666 55.974 53.5016 56.1538 53.6407C59.1737 55.9826 62.131 58.3968 65.0411 60.8737C66.0013 61.6896 66.974 62.4864 67.9571 63.2746C69.3806 64.4317 70.7231 65.6632 72.057 66.9214C72.9006 67.7166 73.7537 68.4958 74.6288 69.2565C75.7762 70.2545 76.892 71.2827 78.0001 72.324C78.1958 72.5074 78.3915 72.6908 78.5931 72.8798C80.0407 74.2426 81.4522 75.6356 82.8409 77.0583C83.4527 77.6878 83.4527 77.6878 84.2992 78.215C84.2992 78.4023 84.2992 78.5897 84.2992 78.7828C84.5502 78.8952 84.5502 78.8952 84.8062 79.01C85.4588 79.3636 85.8861 79.7326 86.4074 80.2577C86.5869 80.4378 86.7664 80.6178 86.9514 80.8034C87.136 80.9915 87.3206 81.1796 87.5109 81.3734C87.6922 81.5549 87.8735 81.7364 88.0604 81.9234C88.9491 82.8203 89.8078 83.7305 90.6294 84.6893C91.9372 86.2027 93.3659 87.5961 94.7859 89.0033C95.0641 89.2801 95.3423 89.557 95.6204 89.8339C96.2938 90.504 96.9679 91.1735 97.6426 91.8423C97.7614 87.7984 96.7076 83.9604 95.6609 80.0781C95.5762 79.764 95.4915 79.4499 95.4043 79.1263C94.3651 75.318 93.2198 71.5415 92.0812 67.762C79.2396 25.1293 79.2396 25.1293 84.867 14.3369C88.8512 7.30653 97.9703 3.66639 105.386 1.58413C106.34 1.32958 107.295 1.08676 108.253 0.851496C108.549 0.77892 108.844 0.706344 109.148 0.631569C115.374 -0.810215 122.125 2.26463 127.251 5.75408ZM100.98 106.76C98.6413 110.031 98.0064 113.965 98.6163 117.896C99.4236 121.06 101.742 123.743 104.496 125.432C105.043 125.715 105.59 125.963 106.16 126.195C106.546 126.361 106.546 126.361 106.94 126.532C110.606 127.448 113.985 127.053 117.302 125.254C120.02 123.588 122.168 121.003 123.071 117.897C123.706 113.832 123.245 110.22 120.926 106.778C118.955 104.222 116.17 102.375 112.973 101.779C108.101 101.347 104.12 103.03 100.98 106.76Z" fill="#5A189A"/>
</svg>
