<svg width="708" height="235" viewBox="0 0 708 235" fill="none" xmlns="http://www.w3.org/2000/svg">
<path d="M272.316 45.4092H290.815V175.313H367.895V192.374H272.316V45.4092Z" fill="#240046"/>
<path d="M444.165 192.374V177.78H443.753C439.848 183.124 435.532 187.235 430.599 190.318C425.665 193.401 419.499 194.84 411.688 194.84C400.589 194.84 391.956 191.757 385.584 185.591C379.007 179.424 375.924 170.791 375.924 159.692V86.107H392.573V159.281C392.573 166.269 394.628 171.819 398.739 175.519C402.85 179.219 408.811 181.069 416.416 181.069C420.527 181.069 424.432 180.452 427.926 178.808C431.215 177.369 434.093 175.313 436.559 172.641C439.026 169.969 440.876 166.886 442.109 163.186C443.342 159.692 444.165 155.787 444.165 151.47V86.107H460.814V192.374H444.165Z" fill="#240046"/>
<path d="M524.642 195.251C516.625 195.251 509.431 193.812 503.265 190.935C496.893 188.057 491.549 183.946 487.027 178.808C482.505 173.875 479.216 167.914 476.75 161.131C474.283 154.348 473.255 147.154 473.255 139.343C473.255 131.738 474.283 124.544 476.75 117.761C479.216 110.978 482.505 105.017 487.027 99.8785C491.549 94.9454 496.893 90.8345 503.265 87.9569C509.431 85.0793 516.625 83.4349 524.642 83.4349C537.18 83.4349 547.457 86.9292 555.268 93.5066C563.078 100.084 568.012 109.128 570.067 120.433H553.212C551.979 113.239 548.896 107.484 543.963 103.373C539.03 99.2619 532.658 97.2064 524.642 97.2064C518.886 97.2064 513.953 98.4397 509.637 100.495C505.32 102.756 501.826 105.839 498.949 109.539C496.071 113.444 493.81 117.966 492.371 122.899C490.932 128.038 490.316 133.588 490.316 139.343C490.316 145.304 490.932 150.854 492.371 155.787C493.81 160.925 496.071 165.447 498.949 169.147C501.826 172.847 505.32 175.93 509.637 177.985C513.953 180.246 518.886 181.274 524.642 181.274C533.275 181.274 540.057 179.013 544.991 174.286C549.924 169.764 552.801 163.186 553.623 154.964H570.067C568.834 167.914 564.312 177.78 556.501 184.768C548.485 191.757 537.797 195.251 524.642 195.251Z" fill="#240046"/>
<path d="M581.692 86.107H598.341V192.374H581.692V86.107ZM581.692 45.4092H598.341V65.9636H581.692V45.4092Z" fill="#240046"/>
<path d="M658.032 195.457C650.632 195.457 644.055 194.223 638.3 191.551C632.544 189.085 627.611 185.385 623.501 180.452C619.39 175.519 616.306 169.764 614.251 162.775C611.99 155.787 610.962 148.181 610.962 139.549C610.962 130.916 611.99 122.899 614.457 115.911C616.923 108.922 620.212 103.167 624.323 98.4397C628.434 93.7122 633.367 90.0124 639.122 87.5458C644.877 85.0793 651.044 83.6405 657.621 83.6405C665.021 83.6405 671.598 85.2848 677.353 88.5735C682.903 91.8623 687.425 96.1787 690.919 101.112H691.33V45.4092H707.979V192.374H691.33V179.424H690.919C686.808 184.768 682.286 188.674 677.148 191.346C671.804 194.223 665.432 195.457 658.032 195.457ZM658.649 181.48C664.404 181.48 669.543 180.452 673.859 178.397C677.97 176.341 681.464 173.258 684.342 169.558C687.014 165.858 689.069 161.542 690.303 156.403C691.536 151.47 692.358 145.92 692.358 139.754C692.358 133.588 691.536 128.038 690.097 122.899C688.658 117.761 686.603 113.239 683.725 109.539C680.847 105.839 677.148 102.962 673.037 100.906C668.72 98.8508 663.787 97.8231 658.443 97.8231C653.305 97.8231 648.783 99.0563 645.083 101.112C641.383 103.167 638.094 106.25 635.628 109.95C633.161 113.65 631.106 118.172 629.872 123.311C628.639 128.449 628.023 133.999 628.023 139.754C628.023 145.92 628.639 151.47 629.872 156.403C631.106 161.542 633.161 165.858 635.628 169.558C638.094 173.258 641.383 176.341 645.288 178.397C648.988 180.452 653.51 181.48 658.649 181.48Z" fill="#240046"/>
<path d="M127.251 5.74822C131.199 8.59435 133.603 12.2923 134.435 17.1129C134.653 18.8368 134.648 20.5629 134.639 22.298C134.638 22.4991 134.638 22.7002 134.637 22.9074C134.604 31.9074 133.396 40.8616 131.691 49.6858C131.649 49.9039 131.607 50.1221 131.563 50.3469C130.591 55.3467 129.389 60.2835 128.153 65.2234C127.649 67.2363 127.148 69.2498 126.652 71.2646C126.599 71.479 126.546 71.6934 126.492 71.9143C124.491 79.4471 124.491 79.4471 123.734 87.152C123.735 87.4677 123.735 87.4677 123.737 87.7897C123.739 88.0009 123.741 88.212 123.744 88.4296C123.746 88.7595 123.746 88.7595 123.748 89.0961C123.751 89.631 123.756 90.1659 123.762 90.7008C126.809 90.2538 129.127 87.7629 131.266 85.7205C131.757 85.264 132.262 84.8273 132.77 84.39C133.911 83.3946 134.991 82.3517 136.059 81.2799C136.247 81.0928 136.434 80.9056 136.627 80.7128C137.02 80.3202 137.412 79.9273 137.805 79.534C138.399 78.9381 138.995 78.3437 139.591 77.7494C139.975 77.3649 140.36 76.9802 140.744 76.5955C141.006 76.3337 141.006 76.3337 141.274 76.0666C142.132 75.204 142.959 74.3275 143.754 73.406C144.842 72.1474 146.005 70.9721 147.183 69.7974C147.407 69.5721 147.632 69.3469 147.864 69.1149C148.337 68.6419 148.81 68.1693 149.284 67.697C150.003 66.9792 150.721 66.2599 151.438 65.5405C151.9 65.0785 152.363 64.6166 152.825 64.1548C153.037 63.9424 153.249 63.73 153.467 63.5112C154.621 62.362 155.799 61.2597 157.038 60.2024C157.562 59.7418 158.052 59.2594 158.54 58.7618C159.376 57.9122 160.252 57.1284 161.155 56.3508C161.786 55.7969 162.404 55.2297 163.02 54.6583C164.466 53.3173 165.938 52.0288 167.477 50.7936C168.111 50.2829 168.737 49.7668 169.36 49.2433C175.11 44.4397 182.552 38.7147 190.479 39.3144C194.059 39.8724 196.84 41.2063 199.564 43.573C199.869 43.8381 199.869 43.8381 200.181 44.1086C202.045 45.8463 203.391 47.8811 204.79 49.9913C205.634 51.2598 206.495 52.517 207.353 53.7757C207.534 54.0406 207.714 54.3056 207.899 54.5785C209.039 56.2502 210.193 57.9099 211.363 59.5602C211.503 59.758 211.642 59.9558 211.786 60.1596C212.344 60.9501 212.904 61.738 213.476 62.5179C215.305 65.0782 215.485 67.8301 215.046 70.8986C213.979 76.455 211.529 81.6174 207.797 85.8745C207.615 86.0999 207.434 86.3253 207.247 86.5576C196.176 99.8087 173.276 104.463 157.636 109.569C156.942 109.795 156.249 110.022 155.556 110.248C153.518 110.915 151.48 111.58 149.439 112.239C148.596 112.511 147.754 112.786 146.911 113.061C146.516 113.189 146.121 113.317 145.726 113.443C145.184 113.617 144.644 113.794 144.103 113.97C143.799 114.069 143.495 114.167 143.181 114.269C142.456 114.479 142.456 114.479 142.215 115.116C142.565 115.228 142.914 115.34 143.274 115.456C144.966 116.02 146.612 116.689 148.266 117.352C161.364 122.53 174.748 126.866 188.342 130.537C211.75 136.874 211.75 136.874 217.56 146.827C221.097 153.014 223.347 159.417 221.424 166.503C218.371 176.421 211.256 186.132 202.119 191.202C197.256 193.658 192.342 194.599 187.072 192.906C181.18 190.787 175.316 187.808 170.226 184.158C169.745 183.815 169.26 183.479 168.774 183.144C165.34 180.763 162.091 178.125 159.013 175.299C158.421 174.757 157.818 174.231 157.209 173.707C156.31 172.925 155.471 172.1 154.637 171.249C154.153 170.774 153.649 170.344 153.128 169.91C151.769 168.742 150.576 167.422 149.366 166.104C148.388 165.039 147.391 164.001 146.36 162.987C145.5 162.118 144.713 161.186 143.919 160.257C143.668 159.964 143.417 159.671 143.166 159.379C142.738 158.879 142.31 158.38 141.883 157.88C140.81 156.627 139.731 155.38 138.649 154.135C136.543 151.71 134.453 149.274 132.438 146.772C128.853 141.969 128.853 141.969 124.046 138.964C124.39 141.775 124.927 144.475 125.643 147.215C125.696 147.421 125.749 147.626 125.803 147.838C126.879 151.993 128.118 156.098 129.369 160.204C143.254 205.781 143.254 205.781 136.058 220.054C131.19 228.522 119.423 231.431 110.684 233.853C103.345 235.775 95.5033 234.316 88.967 230.536C82.6717 226.547 79.1883 220.521 77.4966 213.374C73.2775 193.815 82.5045 172.895 89.2838 154.924C90.5326 151.612 91.7608 148.292 92.9449 144.956C93.1049 144.506 93.2657 144.056 93.4274 143.606C94.2781 141.236 95.0437 138.919 95.3714 136.409C94.1524 137.06 93.2492 137.905 92.3017 138.893C91.4178 139.809 90.5287 140.692 89.5581 141.516C87.8539 142.989 86.2833 144.603 84.6941 146.198C84.1408 146.753 83.586 147.306 83.0311 147.859C80.6866 150.202 80.6866 150.202 78.4735 152.668C77.7128 153.557 76.9037 154.402 76.1015 155.253C75.0203 156.402 73.9528 157.558 72.9065 158.739C71.4271 160.387 69.8705 161.953 68.3019 163.516C67.8138 164.002 67.3273 164.49 66.8409 164.979C65.2319 166.589 63.6083 168.153 61.8709 169.626C61.5424 169.916 61.2145 170.206 60.8872 170.497C58.4914 172.611 56.0139 174.584 53.4566 176.498C52.9599 176.875 52.4673 177.257 51.9769 177.642C49.5697 179.531 47.0706 181.249 44.5174 182.934C44.1014 183.209 43.6855 183.484 43.2696 183.76C42.2673 184.422 41.2635 185.083 40.259 185.742C39.7788 186.058 39.2993 186.375 38.8199 186.692C34.2815 189.686 30.3479 191.623 24.7861 190.635C20.8339 189.712 17.4982 187.587 14.4592 184.956C14.2868 184.808 14.1143 184.659 13.9367 184.506C7.03615 178.481 1.44241 169.888 0.79165 160.531C0.445537 154.007 2.76954 148.875 7.07771 144.075C7.31046 143.808 7.54322 143.541 7.78303 143.266C13.1797 137.207 19.3104 132.469 26.667 129.028C26.9758 128.882 26.9758 128.882 27.2909 128.734C37.031 124.215 47.4598 121.619 57.8641 119.153C58.0623 119.106 58.2605 119.059 58.4648 119.011C60.4675 118.536 62.4705 118.062 64.4754 117.597C69.7024 116.4 69.7024 116.4 74.8113 114.787C75.4982 114.549 75.4982 114.549 76.066 114.549C73.5345 109.343 59.3959 106.149 54 104.274C48.2831 102.31 42.5073 100.512 36.7491 98.673C15.8202 91.9884 15.8202 91.9884 11.3362 87.294C11.1394 87.0993 10.9425 86.9046 10.7396 86.704C6.15925 81.9291 4.44945 75.2912 4.23868 68.8403C4.23095 68.6064 4.22322 68.3724 4.21525 68.1314C4.19278 67.3504 4.17891 66.5696 4.16771 65.7884C4.1616 65.5433 4.15549 65.2982 4.1492 65.0457C4.13108 61.4659 5.45616 58.869 7.87618 56.2887C8.26955 55.8917 8.66593 55.4977 9.06503 55.1065C9.27688 54.8973 9.48873 54.6882 9.707 54.4727C11.561 52.6682 13.494 51.0421 15.5948 49.5349C15.7637 49.4117 15.9326 49.2885 16.1066 49.1616C22.3808 44.6226 29.8953 42.2379 37.6604 43.1261C44.5597 44.4172 50.2131 49.0244 55.625 53.2257C55.7995 53.3607 55.974 53.4958 56.1538 53.6349C59.1737 55.9768 62.131 58.391 65.0411 60.8679C66.0013 61.6837 66.974 62.4805 67.9571 63.2687C69.3806 64.4259 70.7231 65.6573 72.057 66.9155C72.9006 67.7108 73.7537 68.49 74.6288 69.2506C75.7762 70.2486 76.892 71.2768 78.0001 72.3181C78.1958 72.5015 78.3915 72.685 78.5931 72.8739C80.0407 74.2367 81.4522 75.6298 82.8409 77.0524C83.4527 77.682 83.4527 77.682 84.2992 78.2091C84.2992 78.3965 84.2992 78.5839 84.2992 78.7769C84.5502 78.8894 84.5502 78.8894 84.8062 79.0041C85.4588 79.3577 85.8861 79.7267 86.4074 80.2519C86.5869 80.4319 86.7664 80.612 86.9514 80.7975C87.136 80.9856 87.3206 81.1737 87.5109 81.3675C87.6922 81.549 87.8735 81.7306 88.0604 81.9176C88.9491 82.8144 89.8078 83.7246 90.6294 84.6834C91.9372 86.1969 93.3659 87.5903 94.7859 88.9974C95.0641 89.2742 95.3423 89.5511 95.6204 89.828C96.2938 90.4982 96.9679 91.1676 97.6426 91.8364C97.7614 87.7926 96.7076 83.9545 95.6609 80.0722C95.5762 79.7581 95.4915 79.444 95.4043 79.1204C94.3651 75.3122 93.2198 71.5356 92.0812 67.7562C79.2396 25.1235 79.2396 25.1235 84.867 14.331C88.8512 7.30067 97.9703 3.66053 105.386 1.57827C106.34 1.32372 107.295 1.0809 108.253 0.845637C108.549 0.773061 108.844 0.700485 109.148 0.625709C115.374 -0.816074 122.125 2.25877 127.251 5.74822ZM100.98 106.755C98.6413 110.025 98.0064 113.959 98.6163 117.89C99.4236 121.054 101.742 123.737 104.496 125.426C105.043 125.709 105.59 125.957 106.16 126.189C106.546 126.356 106.546 126.356 106.94 126.526C110.606 127.442 113.985 127.047 117.302 125.248C120.02 123.582 122.168 120.997 123.071 117.891C123.706 113.826 123.245 110.214 120.926 106.772C118.955 104.216 116.17 102.369 112.973 101.773C108.101 101.341 104.12 103.024 100.98 106.755Z" fill="#240046"/>
</svg>
