<svg width="708" height="235" viewBox="0 0 708 235" fill="none" xmlns="http://www.w3.org/2000/svg">
<path d="M272.316 45.5947H290.815V175.499H367.895V192.559H272.316V45.5947Z" fill="#E0AAFF"/>
<path d="M444.165 192.559V177.965H443.753C439.848 183.31 435.532 187.42 430.599 190.504C425.665 193.587 419.499 195.026 411.688 195.026C400.589 195.026 391.956 191.942 385.584 185.776C379.007 179.61 375.924 170.977 375.924 159.878V86.2926H392.573V159.466C392.573 166.455 394.628 172.005 398.739 175.704C402.85 179.404 408.811 181.254 416.416 181.254C420.527 181.254 424.432 180.638 427.926 178.993C431.215 177.554 434.093 175.499 436.559 172.827C439.026 170.155 440.876 167.072 442.109 163.372C443.342 159.878 444.165 155.972 444.165 151.656V86.2926H460.814V192.559H444.165Z" fill="#E0AAFF"/>
<path d="M524.642 195.437C516.625 195.437 509.431 193.998 503.265 191.12C496.893 188.243 491.549 184.132 487.027 178.993C482.505 174.06 479.216 168.099 476.75 161.316C474.283 154.533 473.255 147.339 473.255 139.529C473.255 131.923 474.283 124.729 476.75 117.946C479.216 111.163 482.505 105.203 487.027 100.064C491.549 95.131 496.893 91.0201 503.265 88.1425C509.431 85.2648 516.625 83.6205 524.642 83.6205C537.18 83.6205 547.457 87.1147 555.268 93.6922C563.078 100.27 568.012 109.314 570.067 120.618H553.212C551.979 113.424 548.896 107.669 543.963 103.558C539.03 99.4474 532.658 97.392 524.642 97.392C518.886 97.392 513.953 98.6252 509.637 100.681C505.32 102.942 501.826 106.025 498.949 109.725C496.071 113.63 493.81 118.152 492.371 123.085C490.932 128.224 490.316 133.773 490.316 139.529C490.316 145.489 490.932 151.039 492.371 155.972C493.81 161.111 496.071 165.633 498.949 169.333C501.826 173.032 505.32 176.116 509.637 178.171C513.953 180.432 518.886 181.46 524.642 181.46C533.275 181.46 540.057 179.199 544.991 174.471C549.924 169.949 552.801 163.372 553.623 155.15H570.067C568.834 168.099 564.312 177.965 556.501 184.954C548.485 191.942 537.797 195.437 524.642 195.437Z" fill="#E0AAFF"/>
<path d="M581.692 86.2926H598.341V192.559H581.692V86.2926ZM581.692 45.5947H598.341V66.1492H581.692V45.5947Z" fill="#E0AAFF"/>
<path d="M658.032 195.642C650.632 195.642 644.055 194.409 638.3 191.737C632.544 189.27 627.611 185.571 623.501 180.638C619.39 175.704 616.306 169.949 614.251 162.961C611.99 155.972 610.962 148.367 610.962 139.734C610.962 131.101 611.99 123.085 614.457 116.097C616.923 109.108 620.212 103.353 624.323 98.6252C628.434 93.8977 633.367 90.1979 639.122 87.7314C644.877 85.2648 651.044 83.826 657.621 83.826C665.021 83.826 671.598 85.4704 677.353 88.7591C682.903 92.0478 687.425 96.3642 690.919 101.297H691.33V45.5947H707.979V192.559H691.33V179.61H690.919C686.808 184.954 682.286 188.859 677.148 191.531C671.804 194.409 665.432 195.642 658.032 195.642ZM658.649 181.665C664.404 181.665 669.543 180.638 673.859 178.582C677.97 176.527 681.464 173.443 684.342 169.744C687.014 166.044 689.069 161.727 690.303 156.589C691.536 151.656 692.358 146.106 692.358 139.94C692.358 133.773 691.536 128.224 690.097 123.085C688.658 117.946 686.603 113.424 683.725 109.725C680.847 106.025 677.148 103.147 673.037 101.092C668.72 99.0363 663.787 98.0086 658.443 98.0086C653.305 98.0086 648.783 99.2419 645.083 101.297C641.383 103.353 638.094 106.436 635.628 110.136C633.161 113.836 631.106 118.358 629.872 123.496C628.639 128.635 628.023 134.184 628.023 139.94C628.023 146.106 628.639 151.656 629.872 156.589C631.106 161.727 633.161 166.044 635.628 169.744C638.094 173.443 641.383 176.527 645.288 178.582C648.988 180.638 653.51 181.665 658.649 181.665Z" fill="#E0AAFF"/>
<path d="M127.251 5.93377C131.199 8.77989 133.603 12.4779 134.435 17.2984C134.653 19.0223 134.648 20.7484 134.639 22.4836C134.638 22.6847 134.638 22.8858 134.637 23.093C134.604 32.093 133.396 41.0472 131.691 49.8713C131.649 50.0895 131.607 50.3077 131.563 50.5325C130.591 55.5322 129.389 60.469 128.153 65.4089C127.649 67.4219 127.148 69.4354 126.652 71.4501C126.599 71.6645 126.546 71.879 126.492 72.0999C124.491 79.6326 124.491 79.6326 123.734 87.3376C123.735 87.6532 123.735 87.6532 123.737 87.9753C123.739 88.1864 123.741 88.3976 123.744 88.6151C123.746 88.9451 123.746 88.9451 123.748 89.2816C123.751 89.8166 123.756 90.3515 123.762 90.8864C126.809 90.4393 129.127 87.9485 131.266 85.906C131.757 85.4496 132.262 85.0128 132.77 84.5756C133.911 83.5801 134.991 82.5373 136.059 81.4655C136.247 81.2783 136.434 81.0912 136.627 80.8983C137.02 80.5058 137.412 80.1128 137.805 79.7196C138.399 79.1236 138.995 78.5292 139.591 77.935C139.975 77.5504 140.36 77.1658 140.744 76.7811C141.006 76.5192 141.006 76.5192 141.274 76.2521C142.132 75.3896 142.959 74.513 143.754 73.5916C144.842 72.333 146.005 71.1577 147.183 69.9829C147.407 69.7577 147.632 69.5325 147.864 69.3004C148.337 68.8274 148.81 68.3548 149.284 67.8826C150.003 67.1648 150.721 66.4455 151.438 65.726C151.9 65.2641 152.363 64.8022 152.825 64.3404C153.037 64.128 153.249 63.9156 153.467 63.6968C154.621 62.5475 155.799 61.4453 157.038 60.3879C157.562 59.9274 158.052 59.4449 158.54 58.9473C159.376 58.0978 160.252 57.314 161.155 56.5364C161.786 55.9825 162.404 55.4153 163.02 54.8439C164.466 53.5029 165.938 52.2143 167.477 50.9792C168.111 50.4684 168.737 49.9524 169.36 49.4288C175.11 44.6253 182.552 38.9003 190.479 39.5C194.059 40.058 196.84 41.3919 199.564 43.7585C199.869 44.0237 199.869 44.0237 200.181 44.2942C202.045 46.0319 203.391 48.0667 204.79 50.1768C205.634 51.4453 206.495 52.7025 207.353 53.9613C207.534 54.2262 207.714 54.4911 207.899 54.764C209.039 56.4357 210.193 58.0954 211.363 59.7458C211.503 59.9436 211.642 60.1414 211.786 60.3451C212.344 61.1356 212.904 61.9235 213.476 62.7035C215.305 65.2638 215.485 68.0156 215.046 71.0842C213.979 76.6406 211.529 81.803 207.797 86.06C207.615 86.2855 207.434 86.5109 207.247 86.7432C196.176 99.9942 173.276 104.648 157.636 109.754C156.942 109.981 156.249 110.207 155.556 110.434C153.518 111.1 151.48 111.765 149.439 112.424C148.596 112.697 147.754 112.971 146.911 113.246C146.516 113.375 146.121 113.502 145.726 113.629C145.184 113.803 144.644 113.979 144.103 114.156C143.799 114.254 143.495 114.353 143.181 114.454C142.456 114.665 142.456 114.665 142.215 115.302C142.565 115.414 142.914 115.526 143.274 115.641C144.966 116.205 146.612 116.875 148.266 117.538C161.364 122.716 174.748 127.052 188.342 130.723C211.75 137.059 211.75 137.059 217.56 147.013C221.097 153.2 223.347 159.603 221.424 166.688C218.371 176.607 211.256 186.318 202.119 191.388C197.256 193.843 192.342 194.785 187.072 193.091C181.18 190.972 175.316 187.993 170.226 184.344C169.745 184 169.26 183.665 168.774 183.33C165.34 180.949 162.091 178.31 159.013 175.485C158.421 174.943 157.818 174.416 157.209 173.892C156.31 173.11 155.471 172.286 154.637 171.435C154.153 170.96 153.649 170.529 153.128 170.095C151.769 168.927 150.576 167.607 149.366 166.289C148.388 165.224 147.391 164.186 146.36 163.172C145.5 162.303 144.713 161.371 143.919 160.443C143.668 160.15 143.417 159.857 143.166 159.564C142.738 159.065 142.31 158.566 141.883 158.066C140.81 156.813 139.731 155.566 138.649 154.321C136.543 151.895 134.453 149.459 132.438 146.957C128.853 142.154 128.853 142.154 124.046 139.15C124.39 141.961 124.927 144.661 125.643 147.401C125.696 147.606 125.749 147.812 125.803 148.023C126.879 152.179 128.118 156.284 129.369 160.389C143.254 205.967 143.254 205.967 136.058 220.239C131.19 228.707 119.423 231.617 110.684 234.039C103.345 235.961 95.5033 234.501 88.967 230.722C82.6717 226.733 79.1883 220.706 77.4966 213.56C73.2775 194 82.5045 173.08 89.2838 155.11C90.5326 151.797 91.7608 148.478 92.9449 145.142C93.1049 144.692 93.2657 144.242 93.4274 143.792C94.2781 141.422 95.0437 139.105 95.3714 136.595C94.1524 137.245 93.2492 138.091 92.3017 139.079C91.4178 139.995 90.5287 140.877 89.5581 141.702C87.8539 143.175 86.2833 144.789 84.6941 146.383C84.1408 146.938 83.586 147.491 83.0311 148.044C80.6866 150.388 80.6866 150.388 78.4735 152.854C77.7128 153.743 76.9037 154.587 76.1015 155.439C75.0203 156.587 73.9528 157.744 72.9065 158.924C71.4271 160.573 69.8705 162.138 68.3019 163.701C67.8138 164.188 67.3273 164.676 66.8409 165.164C65.2319 166.774 63.6083 168.339 61.8709 169.811C61.5424 170.101 61.2145 170.392 60.8872 170.683C58.4914 172.797 56.0139 174.77 53.4566 176.684C52.9599 177.061 52.4673 177.443 51.9769 177.828C49.5697 179.717 47.0706 181.435 44.5174 183.119C44.1014 183.395 43.6855 183.67 43.2696 183.945C42.2673 184.608 41.2635 185.268 40.259 185.928C39.7788 186.243 39.2993 186.56 38.8199 186.877C34.2815 189.872 30.3479 191.808 24.7861 190.82C20.8339 189.897 17.4982 187.772 14.4592 185.142C14.2868 184.993 14.1143 184.845 13.9367 184.691C7.03615 178.666 1.44241 170.074 0.79165 160.716C0.445537 154.192 2.76954 149.06 7.07771 144.26C7.31046 143.993 7.54322 143.726 7.78303 143.452C13.1797 137.392 19.3104 132.654 26.667 129.213C26.9758 129.068 26.9758 129.068 27.2909 128.92C37.031 124.4 47.4598 121.804 57.8641 119.339C58.0623 119.292 58.2605 119.245 58.4648 119.196C60.4675 118.721 62.4705 118.248 64.4754 117.783C69.7024 116.585 69.7024 116.585 74.8113 114.973C75.4982 114.734 75.4982 114.734 76.066 114.734C73.5345 109.528 59.3959 106.334 54 104.459C48.2831 102.495 42.5073 100.697 36.7491 98.8585C15.8202 92.1739 15.8202 92.1739 11.3362 87.4795C11.1394 87.2848 10.9425 87.0901 10.7396 86.8895C6.15925 82.1147 4.44945 75.4767 4.23868 69.0259C4.23095 68.7919 4.22322 68.558 4.21525 68.3169C4.19278 67.5359 4.17891 66.7552 4.16771 65.9739C4.1616 65.7288 4.15549 65.4838 4.1492 65.2313C4.13108 61.6514 5.45616 59.0546 7.87618 56.4743C8.26955 56.0773 8.66593 55.6833 9.06503 55.2921C9.27688 55.0829 9.48873 54.8737 9.707 54.6582C11.561 52.8537 13.494 51.2277 15.5948 49.7205C15.7637 49.5973 15.9326 49.4741 16.1066 49.3472C22.3808 44.8082 29.8953 42.4235 37.6604 43.3116C44.5597 44.6027 50.2131 49.2099 55.625 53.4112C55.7995 53.5463 55.974 53.6813 56.1538 53.8204C59.1737 56.1623 62.131 58.5765 65.0411 61.0534C66.0013 61.8692 66.974 62.6661 67.9571 63.4543C69.3806 64.6114 70.7231 65.8429 72.057 67.1011C72.9006 67.8963 73.7537 68.6755 74.6288 69.4362C75.7762 70.4342 76.892 71.4623 78.0001 72.5037C78.1958 72.6871 78.3915 72.8705 78.5931 73.0595C80.0407 74.4222 81.4522 75.8153 82.8409 77.238C83.4527 77.8675 83.4527 77.8675 84.2992 78.3946C84.2992 78.582 84.2992 78.7694 84.2992 78.9625C84.5502 79.0749 84.5502 79.0749 84.8062 79.1897C85.4588 79.5433 85.8861 79.9123 86.4074 80.4374C86.5869 80.6175 86.7664 80.7975 86.9514 80.983C87.136 81.1711 87.3206 81.3593 87.5109 81.5531C87.6922 81.7346 87.8735 81.9161 88.0604 82.1031C88.9491 82.9999 89.8078 83.9101 90.6294 84.869C91.9372 86.3824 93.3659 87.7758 94.7859 89.1829C95.0641 89.4598 95.3423 89.7366 95.6204 90.0136C96.2938 90.6837 96.9679 91.3531 97.6426 92.022C97.7614 87.9781 96.7076 84.1401 95.6609 80.2578C95.5762 79.9437 95.4915 79.6296 95.4043 79.306C94.3651 75.4977 93.2198 71.7211 92.0812 67.9417C79.2396 25.309 79.2396 25.309 84.867 14.5166C88.8512 7.48622 97.9703 3.84608 105.386 1.76381C106.34 1.50927 107.295 1.26645 108.253 1.03118C108.549 0.958607 108.844 0.886031 109.148 0.811256C115.374 -0.630527 122.125 2.44432 127.251 5.93377ZM100.98 106.94C98.6413 110.211 98.0064 114.144 98.6163 118.076C99.4236 121.24 101.742 123.922 104.496 125.611C105.043 125.895 105.59 126.142 106.16 126.374C106.546 126.541 106.546 126.541 106.94 126.711C110.606 127.628 113.985 127.233 117.302 125.434C120.02 123.768 122.168 121.182 123.071 118.077C123.706 114.012 123.245 110.4 120.926 106.958C118.955 104.402 116.17 102.555 112.973 101.959C108.101 101.527 104.12 103.21 100.98 106.94Z" fill="#E0AAFF"/>
</svg>
