<svg width="708" height="235" viewBox="0 0 708 235" fill="none" xmlns="http://www.w3.org/2000/svg">
<path d="M272.316 45.71H290.815V175.614H367.895V192.674H272.316V45.71Z" fill="#7B2CBF"/>
<path d="M444.165 192.674V178.081H443.753C439.848 183.425 435.532 187.536 430.599 190.619C425.665 193.702 419.499 195.141 411.688 195.141C400.589 195.141 391.956 192.058 385.584 185.891C379.007 179.725 375.924 171.092 375.924 159.993V86.4078H392.573V159.582C392.573 166.57 394.628 172.12 398.739 175.82C402.85 179.519 408.811 181.369 416.416 181.369C420.527 181.369 424.432 180.753 427.926 179.108C431.215 177.67 434.093 175.614 436.559 172.942C439.026 170.27 440.876 167.187 442.109 163.487C443.342 159.993 444.165 156.087 444.165 151.771V86.4078H460.814V192.674H444.165Z" fill="#7B2CBF"/>
<path d="M524.642 195.552C516.625 195.552 509.431 194.113 503.265 191.236C496.893 188.358 491.549 184.247 487.027 179.108C482.505 174.175 479.216 168.215 476.75 161.432C474.283 154.649 473.255 147.455 473.255 139.644C473.255 132.039 474.283 124.845 476.75 118.062C479.216 111.279 482.505 105.318 487.027 100.179C491.549 95.2462 496.893 91.1353 503.265 88.2577C509.431 85.3801 516.625 83.7357 524.642 83.7357C537.18 83.7357 547.457 87.23 555.268 93.8074C563.078 100.385 568.012 109.429 570.067 120.734H553.212C551.979 113.54 548.896 107.784 543.963 103.674C539.03 99.5626 532.658 97.5072 524.642 97.5072C518.886 97.5072 513.953 98.7405 509.637 100.796C505.32 103.057 501.826 106.14 498.949 109.84C496.071 113.745 493.81 118.267 492.371 123.2C490.932 128.339 490.316 133.889 490.316 139.644C490.316 145.605 490.932 151.154 492.371 156.087C493.81 161.226 496.071 165.748 498.949 169.448C501.826 173.148 505.32 176.231 509.637 178.286C513.953 180.547 518.886 181.575 524.642 181.575C533.275 181.575 540.057 179.314 544.991 174.586C549.924 170.064 552.801 163.487 553.623 155.265H570.067C568.834 168.215 564.312 178.081 556.501 185.069C548.485 192.058 537.797 195.552 524.642 195.552Z" fill="#7B2CBF"/>
<path d="M581.692 86.4078H598.341V192.674H581.692V86.4078ZM581.692 45.71H598.341V66.2644H581.692V45.71Z" fill="#7B2CBF"/>
<path d="M658.032 195.758C650.632 195.758 644.055 194.524 638.3 191.852C632.544 189.386 627.611 185.686 623.501 180.753C619.39 175.82 616.306 170.064 614.251 163.076C611.99 156.087 610.962 148.482 610.962 139.849C610.962 131.217 611.99 123.2 614.457 116.212C616.923 109.223 620.212 103.468 624.323 98.7405C628.434 94.0129 633.367 90.3131 639.122 87.8466C644.877 85.3801 651.044 83.9413 657.621 83.9413C665.021 83.9413 671.598 85.5856 677.353 88.8743C682.903 92.163 687.425 96.4795 690.919 101.413H691.33V45.71H707.979V192.674H691.33V179.725H690.919C686.808 185.069 682.286 188.975 677.148 191.647C671.804 194.524 665.432 195.758 658.032 195.758ZM658.649 181.78C664.404 181.78 669.543 180.753 673.859 178.697C677.97 176.642 681.464 173.559 684.342 169.859C687.014 166.159 689.069 161.843 690.303 156.704C691.536 151.771 692.358 146.221 692.358 140.055C692.358 133.889 691.536 128.339 690.097 123.2C688.658 118.062 686.603 113.54 683.725 109.84C680.847 106.14 677.148 103.262 673.037 101.207C668.72 99.1516 663.787 98.1238 658.443 98.1238C653.305 98.1238 648.783 99.3571 645.083 101.413C641.383 103.468 638.094 106.551 635.628 110.251C633.161 113.951 631.106 118.473 629.872 123.611C628.639 128.75 628.023 134.3 628.023 140.055C628.023 146.221 628.639 151.771 629.872 156.704C631.106 161.843 633.161 166.159 635.628 169.859C638.094 173.559 641.383 176.642 645.288 178.697C648.988 180.753 653.51 181.78 658.649 181.78Z" fill="#7B2CBF"/>
<path d="M127.251 6.04901C131.199 8.89513 133.603 12.5931 134.435 17.4136C134.653 19.1376 134.648 20.8637 134.639 22.5988C134.638 22.7999 134.638 23.001 134.637 23.2082C134.604 32.2082 133.396 41.1624 131.691 49.9865C131.649 50.2047 131.607 50.4229 131.563 50.6477C130.591 55.6475 129.389 60.5843 128.153 65.5242C127.649 67.5371 127.148 69.5506 126.652 71.5654C126.599 71.7798 126.546 71.9942 126.492 72.2151C124.491 79.7479 124.491 79.7479 123.734 87.4528C123.735 87.7685 123.735 87.7685 123.737 88.0905C123.739 88.3016 123.741 88.5128 123.744 88.7304C123.746 89.0603 123.746 89.0603 123.748 89.3969C123.751 89.9318 123.756 90.4667 123.762 91.0016C126.809 90.5546 129.127 88.0637 131.266 86.0213C131.757 85.5648 132.262 85.1281 132.77 84.6908C133.911 83.6954 134.991 82.6525 136.059 81.5807C136.247 81.3935 136.434 81.2064 136.627 81.0136C137.02 80.621 137.412 80.2281 137.805 79.8348C138.399 79.2389 138.995 78.6445 139.591 78.0502C139.975 77.6657 140.36 77.281 140.744 76.8963C141.006 76.6345 141.006 76.6345 141.274 76.3673C142.132 75.5048 142.959 74.6282 143.754 73.7068C144.842 72.4482 146.005 71.2729 147.183 70.0982C147.407 69.8729 147.632 69.6477 147.864 69.4156C148.337 68.9427 148.81 68.4701 149.284 67.9978C150.003 67.28 150.721 66.5607 151.438 65.8413C151.9 65.3793 152.363 64.9174 152.825 64.4556C153.037 64.2432 153.249 64.0308 153.467 63.812C154.621 62.6628 155.799 61.5605 157.038 60.5032C157.562 60.0426 158.052 59.5602 158.54 59.0625C159.376 58.213 160.252 57.4292 161.155 56.6516C161.786 56.0977 162.404 55.5305 163.02 54.9591C164.466 53.6181 165.938 52.3296 167.477 51.0944C168.111 50.5836 168.737 50.0676 169.36 49.544C175.11 44.7405 182.552 39.0155 190.479 39.6152C194.059 40.1732 196.84 41.5071 199.564 43.8738C199.869 44.1389 199.869 44.1389 200.181 44.4094C202.045 46.1471 203.391 48.1819 204.79 50.2921C205.634 51.5605 206.495 52.8178 207.353 54.0765C207.534 54.3414 207.714 54.6063 207.899 54.8793C209.039 56.5509 210.193 58.2107 211.363 59.861C211.503 60.0588 211.642 60.2566 211.786 60.4604C212.344 61.2508 212.904 62.0387 213.476 62.8187C215.305 65.379 215.485 68.1309 215.046 71.1994C213.979 76.7558 211.529 81.9182 207.797 86.1753C207.615 86.4007 207.434 86.6261 207.247 86.8584C196.176 100.109 173.276 104.764 157.636 109.87C156.942 110.096 156.249 110.323 155.556 110.549C153.518 111.215 151.48 111.88 149.439 112.54C148.596 112.812 147.754 113.087 146.911 113.361C146.516 113.49 146.121 113.617 145.726 113.744C145.184 113.918 144.644 114.094 144.103 114.271C143.799 114.37 143.495 114.468 143.181 114.57C142.456 114.78 142.456 114.78 142.215 115.417C142.565 115.529 142.914 115.641 143.274 115.757C144.966 116.321 146.612 116.99 148.266 117.653C161.364 122.831 174.748 127.167 188.342 130.838C211.75 137.175 211.75 137.175 217.56 147.128C221.097 153.315 223.347 159.718 221.424 166.804C218.371 176.722 211.256 186.433 202.119 191.503C197.256 193.958 192.342 194.9 187.072 193.207C181.18 191.087 175.316 188.108 170.226 184.459C169.745 184.116 169.26 183.78 168.774 183.445C165.34 181.064 162.091 178.425 159.013 175.6C158.421 175.058 157.818 174.532 157.209 174.008C156.31 173.226 155.471 172.401 154.637 171.55C154.153 171.075 153.649 170.644 153.128 170.21C151.769 169.043 150.576 167.722 149.366 166.404C148.388 165.339 147.391 164.301 146.36 163.288C145.5 162.419 144.713 161.486 143.919 160.558C143.668 160.265 143.417 159.972 143.166 159.679C142.738 159.18 142.31 158.681 141.883 158.181C140.81 156.928 139.731 155.681 138.649 154.436C136.543 152.011 134.453 149.575 132.438 147.072C128.853 142.27 128.853 142.27 124.046 139.265C124.39 142.076 124.927 144.776 125.643 147.516C125.696 147.721 125.749 147.927 125.803 148.138C126.879 152.294 128.118 156.399 129.369 160.505C143.254 206.082 143.254 206.082 136.058 220.355C131.19 228.822 119.423 231.732 110.684 234.154C103.345 236.076 95.5033 234.616 88.967 230.837C82.6717 226.848 79.1883 220.821 77.4966 213.675C73.2775 194.115 82.5045 173.196 89.2838 155.225C90.5326 151.912 91.7608 148.593 92.9449 145.257C93.1049 144.807 93.2657 144.357 93.4274 143.907C94.2781 141.537 95.0437 139.22 95.3714 136.71C94.1524 137.361 93.2492 138.206 92.3017 139.194C91.4178 140.11 90.5287 140.993 89.5581 141.817C87.8539 143.29 86.2833 144.904 84.6941 146.499C84.1408 147.053 83.586 147.607 83.0311 148.16C80.6866 150.503 80.6866 150.503 78.4735 152.969C77.7128 153.858 76.9037 154.703 76.1015 155.554C75.0203 156.702 73.9528 157.859 72.9065 159.04C71.4271 160.688 69.8705 162.254 68.3019 163.816C67.8138 164.303 67.3273 164.791 66.8409 165.279C65.2319 166.889 63.6083 168.454 61.8709 169.927C61.5424 170.216 61.2145 170.507 60.8872 170.798C58.4914 172.912 56.0139 174.885 53.4566 176.799C52.9599 177.176 52.4673 177.558 51.9769 177.943C49.5697 179.832 47.0706 181.55 44.5174 183.234C44.1014 183.51 43.6855 183.785 43.2696 184.061C42.2673 184.723 41.2635 185.384 40.259 186.043C39.7788 186.359 39.2993 186.675 38.8199 186.992C34.2815 189.987 30.3479 191.924 24.7861 190.935C20.8339 190.013 17.4982 187.887 14.4592 185.257C14.2868 185.109 14.1143 184.96 13.9367 184.807C7.03615 178.781 1.44241 170.189 0.79165 160.831C0.445537 154.308 2.76954 149.176 7.07771 144.375C7.31046 144.108 7.54322 143.842 7.78303 143.567C13.1797 137.508 19.3104 132.769 26.667 129.328C26.9758 129.183 26.9758 129.183 27.2909 129.035C37.031 124.515 47.4598 121.919 57.8641 119.454C58.0623 119.407 58.2605 119.36 58.4648 119.312C60.4675 118.837 62.4705 118.363 64.4754 117.898C69.7024 116.701 69.7024 116.701 74.8113 115.088C75.4982 114.849 75.4982 114.849 76.066 114.849C73.5345 109.644 59.3959 106.45 54 104.575C48.2831 102.611 42.5073 100.813 36.7491 98.9737C15.8202 92.2892 15.8202 92.2892 11.3362 87.5948C11.1394 87.4001 10.9425 87.2054 10.7396 87.0048C6.15925 82.2299 4.44945 75.5919 4.23868 69.1411C4.23095 68.9071 4.22322 68.6732 4.21525 68.4322C4.19278 67.6511 4.17891 66.8704 4.16771 66.0891C4.1616 65.8441 4.15549 65.599 4.1492 65.3465C4.13108 61.7667 5.45616 59.1698 7.87618 56.5895C8.26955 56.1925 8.66593 55.7985 9.06503 55.4073C9.27688 55.1981 9.48873 54.989 9.707 54.7734C11.561 52.969 13.494 51.3429 15.5948 49.8357C15.7637 49.7125 15.9326 49.5893 16.1066 49.4624C22.3808 44.9234 29.8953 42.5387 37.6604 43.4268C44.5597 44.718 50.2131 49.3251 55.625 53.5264C55.7995 53.6615 55.974 53.7965 56.1538 53.9357C59.1737 56.2776 62.131 58.6917 65.0411 61.1687C66.0013 61.9845 66.974 62.7813 67.9571 63.5695C69.3806 64.7267 70.7231 65.9581 72.057 67.2163C72.9006 68.0116 73.7537 68.7908 74.6288 69.5514C75.7762 70.5494 76.892 71.5776 78.0001 72.6189C78.1958 72.8023 78.3915 72.9857 78.5931 73.1747C80.0407 74.5375 81.4522 75.9305 82.8409 77.3532C83.4527 77.9828 83.4527 77.9827 84.2992 78.5099C84.2992 78.6973 84.2992 78.8846 84.2992 79.0777C84.5502 79.1902 84.5502 79.1902 84.8062 79.3049C85.4588 79.6585 85.8861 80.0275 86.4074 80.5527C86.5869 80.7327 86.7664 80.9128 86.9514 81.0983C87.136 81.2864 87.3206 81.4745 87.5109 81.6683C87.6922 81.8498 87.8735 82.0313 88.0604 82.2184C88.9491 83.1152 89.8078 84.0254 90.6294 84.9842C91.9372 86.4977 93.3659 87.891 94.7859 89.2982C95.0641 89.575 95.3423 89.8519 95.6204 90.1288C96.2938 90.7989 96.9679 91.4684 97.6426 92.1372C97.7614 88.0934 96.7076 84.2553 95.6609 80.373C95.5762 80.0589 95.4915 79.7448 95.4043 79.4212C94.3651 75.6129 93.2198 71.8364 92.0812 68.0569C79.2396 25.4242 79.2396 25.4242 84.867 14.6318C88.8512 7.60146 97.9703 3.96131 105.386 1.87905C106.34 1.62451 107.295 1.38169 108.253 1.14642C108.549 1.07384 108.844 1.00127 109.148 0.92649C115.374 -0.515293 122.125 2.55956 127.251 6.04901ZM100.98 107.055C98.6413 110.326 98.0064 114.26 98.6163 118.191C99.4236 121.355 101.742 124.037 104.496 125.726C105.043 126.01 105.59 126.258 106.16 126.489C106.546 126.656 106.546 126.656 106.94 126.827C110.606 127.743 113.985 127.348 117.302 125.549C120.02 123.883 122.168 121.298 123.071 118.192C123.706 114.127 123.245 110.515 120.926 107.073C118.955 104.517 116.17 102.67 112.973 102.074C108.101 101.642 104.12 103.325 100.98 107.055Z" fill="#7B2CBF"/>
</svg>
